<svg width="1024" height="1024" viewBox="0 0 1024 1024" fill="none" xmlns="http://www.w3.org/2000/svg">
<g clip-path="url(#clip0_4_361)">
<path d="M501.304 432.737L500.723 432.298C501.327 423.043 508.15 411.271 515.051 405.055C532.569 389.275 561.255 391.842 577.058 408.68C582.352 414.32 582.601 420.213 591.362 420.713C589.741 423.657 585.277 424.117 582.322 423.054C580.886 425.245 580.195 435.769 574.754 441.156L573.763 442.37C573.699 444.619 571.128 448.694 569.422 450.053C559.442 458.001 552.104 456.894 541.704 457.446C529.58 454.686 524.545 446.906 521.304 435.774C520.026 429.644 520.307 424.049 522.307 418.143L521.771 417.079C516.035 416.05 509.059 423.729 504.803 424.947C503.747 427.189 502.07 430.483 501.304 432.737Z" fill="#090807"/>
<path d="M558.441 410.779C559.735 410.251 560.435 410.452 561.837 410.577L562.399 410.631L563.144 409.584C565.019 411.446 568.851 415.246 571.631 415.167L572.775 416.347C576.297 419.551 578.234 421.196 578.551 426.453C578.802 430.619 576.587 437.391 574.754 441.156L573.763 442.37C573.699 444.619 571.128 448.694 569.422 450.053C559.442 458.001 552.104 456.894 541.704 457.446C529.58 454.686 524.545 446.906 521.304 435.774L522.254 435.154L522.604 436.5C527.224 432.523 526.44 432.514 532.187 431.376C534.038 436.38 534.828 439.914 539.377 443.051C550.051 450.412 558.448 444.258 564.39 435.31C564.416 432.553 564.27 424.235 562.053 422.719C564.78 421.321 566.116 418.174 565.229 415.242C564.342 412.309 561.485 410.431 558.441 410.779Z" fill="url(#paint0_linear_4_361)"/>
<path d="M564.971 450.981C575.788 436.993 575.885 433.079 572.775 416.347C576.297 419.551 578.234 421.196 578.551 426.453C578.802 430.619 576.587 437.391 574.754 441.156L573.763 442.37C570.989 446.183 568.594 448.03 564.971 450.981Z" fill="white"/>
<path d="M501.304 432.737L500.723 432.298C501.327 423.043 508.15 411.271 515.051 405.055C532.569 389.275 561.255 391.842 577.058 408.68C582.352 414.32 582.601 420.213 591.362 420.713C589.741 423.657 585.277 424.117 582.322 423.054C580.886 425.245 580.195 435.769 574.754 441.156C576.587 437.391 578.802 430.619 578.551 426.453C578.234 421.196 576.297 419.551 572.775 416.347L571.631 415.167C568.851 415.246 565.019 411.446 563.144 409.584C559.126 404.562 539.32 399.962 533.75 402.603C533.23 403.701 532.879 403.751 531.839 404.471C527.505 407.476 523.751 413.077 522.307 418.143L521.771 417.079C516.035 416.05 509.059 423.729 504.803 424.947C503.747 427.189 502.07 430.483 501.304 432.737Z" fill="#090807"/>
<path d="M533.75 402.603C533.23 403.701 532.879 403.751 531.839 404.471C527.505 407.476 523.751 413.077 522.307 418.143L521.771 417.079C516.035 416.05 509.059 423.729 504.803 424.947C510.519 412.636 520.827 405.79 533.75 402.603Z" fill="#CBC7C7"/>
<path d="M558.441 410.779C561.485 410.431 564.342 412.309 565.229 415.242C566.116 418.174 564.78 421.321 562.053 422.719C559.794 423.877 557.062 423.576 555.109 421.953C553.157 420.33 552.361 417.699 553.086 415.266C553.812 412.833 555.919 411.068 558.441 410.779Z" fill="white"/>
<path d="M346.709 423.699C351.067 418.707 351.75 413.888 355.334 408.388C359.133 402.558 365.47 398.809 372.154 397.437C379.922 395.842 389.247 398.758 395.6 403.499C406.828 411.877 412.806 422.388 415.205 435.92C416.248 438.582 416.273 443.22 416.245 446.136L415.144 446.024L414.971 446.336C415.946 448.304 415.653 449.017 415.541 451.291L415.437 453.538C413.694 453.566 411.084 453.811 409.574 453.167C404.094 456.811 396.959 458.204 390.45 457.572C386.53 459.613 376.355 457.41 372.374 455.6C368.717 455.439 363.03 450.918 362.527 446.898C362.53 445.747 359.897 440.645 359.112 439.441C355.914 437.195 353.659 427.059 351.215 422.962C349.505 422.62 348.552 423.179 346.709 423.699Z" fill="url(#paint1_linear_4_361)"/>
<path d="M346.709 423.699C351.067 418.707 351.75 413.888 355.334 408.388C359.133 402.558 365.47 398.809 372.154 397.437C379.922 395.842 389.247 398.758 395.6 403.499C406.828 411.877 412.806 422.388 415.205 435.92L414.689 436.317C415.184 439.86 414.869 442.334 414.078 445.829L413.796 445.473C413.768 444.052 412.69 436.97 412.252 436.068L411.388 435.999L410.934 434.946C409.461 436.533 410.077 439.11 409.209 440.162C397.861 453.916 387.223 445.365 382.663 432.329C384.561 420.279 389.859 411.964 403.064 416.855C394.576 409.212 395.147 410.283 385.581 405.331C380.762 408.205 378.326 411.06 375.367 415.81C370.847 414.581 365.067 416.386 361.106 418.65C359.789 419.403 359.173 420.021 357.658 420.351C356.378 427.47 357.448 432.405 359.112 439.441C355.914 437.195 353.659 427.059 351.215 422.962C349.505 422.62 348.552 423.179 346.709 423.699Z" fill="#090807"/>
<path d="M357.658 420.351C360.968 406.622 372.997 402.85 385.581 405.331C380.762 408.205 378.326 411.06 375.367 415.81C370.847 414.581 365.067 416.386 361.106 418.65C359.789 419.403 359.173 420.021 357.658 420.351Z" fill="#CBC7C7"/>
<path d="M403.168 418.983C405.773 419.687 408.263 422.534 408.252 425.289C408.245 426.819 407.163 427.398 406.153 428.359C399.452 428.462 398.579 422.965 403.168 418.983Z" fill="white"/>
<path d="M357.658 420.351C359.173 420.021 359.789 419.403 361.106 418.65C365.067 416.386 370.847 414.581 375.367 415.81C371.496 424.95 371.044 431.576 374.039 441.117C374.911 443.628 375.185 444.612 376.603 446.826C380.239 452.442 383.876 455.569 390.45 457.572C386.53 459.613 376.355 457.41 372.374 455.6C368.717 455.439 363.03 450.918 362.527 446.898C362.53 445.747 359.897 440.645 359.112 439.441C357.448 432.405 356.378 427.47 357.658 420.351Z" fill="white"/>
<path d="M362.527 446.898C365.663 450.725 368.404 452.658 372.374 455.6C368.717 455.439 363.03 450.918 362.527 446.898Z" fill="#090807"/>
<path d="M374.039 441.117C375.778 437.74 376.906 437.237 380.25 435.333C379.055 438.858 378.162 444.907 376.603 446.826C375.185 444.612 374.911 443.628 374.039 441.117Z" fill="#434243"/>
<path d="M414.971 446.336C415.946 448.304 415.653 449.017 415.541 451.291L415.437 453.538C413.694 453.566 411.084 453.811 409.574 453.167C412.192 450.536 413.009 449.436 414.971 446.336Z" fill="white"/>
<path d="M528.319 346.008C550.691 345.684 578.584 355.748 592.542 373.86C582.972 367.32 573.355 363.49 562.605 359.629C545.073 354.999 530.788 354.605 513.059 357.747C508.436 358.566 496.503 363.221 492.918 362.145C490.398 359.913 491.604 355.807 493.671 354.135C502.362 347.106 517.724 346.491 528.319 346.008Z" fill="#8E6950"/>
<path d="M504.803 424.947C509.059 423.729 516.035 416.05 521.771 417.079L522.307 418.143C520.307 424.049 520.026 429.644 521.304 435.774C524.545 446.906 529.58 454.686 541.704 457.446C529.773 460.609 514.389 452.163 500.881 452.037C500.126 445.843 500.171 438.883 501.304 432.737C502.07 430.483 503.747 427.189 504.803 424.947Z" fill="white"/>
<path d="M377.73 351.984C384.657 351.482 410.28 352.779 405.478 364.65C405.132 364.905 404.787 365.159 404.441 365.413C398.417 364.558 390.594 361.896 384.643 361.24C376.838 360.307 368.929 360.803 361.301 362.705C352.107 365.428 346.197 369.467 339 375.636C348.116 360.259 360.281 353.846 377.73 351.984Z" fill="#8E6950"/>
<path d="M375.439 389.56C383.736 388.646 391.03 389.017 398.031 394.177C403.568 398.258 410.066 407.188 411.064 413.988C407.466 408.446 407.422 406.504 402.342 401.089C394.076 392.278 387.279 390.614 375.731 390.155L375.439 389.56Z" fill="#B28064"/>
<path d="M508.195 399.903C514.534 391.236 521.509 386.514 532.487 385.737L535.721 386.103L535.871 386.496L532.323 387.831C521.595 391.147 517.309 391.637 509.233 400.431L508.195 399.903Z" fill="#B28064"/>
<path d="M532.487 385.737C538.732 384.832 544.39 385.983 550.554 387.092C544.47 387.443 538.417 387.871 532.323 387.831L535.871 386.496L535.721 386.103L532.487 385.737Z" fill="#B28064"/>
<path d="M508.195 399.903L509.233 400.431C506.779 403.724 505.568 407.215 503.192 410.202C504.707 405.938 505.724 403.646 508.195 399.903Z" fill="#8E6950"/>
</g>
<defs>
<linearGradient id="paint0_linear_4_361" x1="565.422" y1="412.736" x2="538.56" y2="456.219" gradientUnits="userSpaceOnUse">
<stop stop-color="#1B1716"/>
<stop offset="1" stop-color="#383636"/>
</linearGradient>
<linearGradient id="paint1_linear_4_361" x1="392.765" y1="406.242" x2="393.125" y2="456.322" gradientUnits="userSpaceOnUse">
<stop stop-color="#130E0D"/>
<stop offset="1" stop-color="#3A3838"/>
</linearGradient>
<clipPath id="clip0_4_361">
<rect width="1024" height="1024" fill="white"/>
</clipPath>
</defs>
</svg>
