<?xml version="1.0" encoding="utf-8" ?><svg xmlns="http://www.w3.org/2000/svg" xmlns:xlink="http://www.w3.org/1999/xlink" width="1024" height="1024" viewBox="0 0 1024 1024"><path fill="#CEAB8C" d="M330.77 393.486C319.696 367.629 319.826 320.195 322.136 292.001C325.411 252.032 350.11 207.212 380.644 181.6C408.555 158.927 450.504 140.342 486.597 137.152C518.192 134.359 561.262 136.421 591.569 146C624.09 156.63 653.041 176.038 675.229 202.082C676.491 203.644 681.59 210.35 682.526 211.12C685.715 216.343 692.776 226.354 694.756 231.461C708.933 252.553 716.838 294.096 718.792 319.164C719.564 329.075 719.421 347.567 719.01 358.14C717.757 390.396 708.335 426.069 694.019 454.917C691.853 459.282 690.041 462.084 689.961 466.917L690.018 467.306C692.138 481.137 686.433 503.461 680.267 515.903C672.888 530.793 657.037 546.167 640.046 548.891C631.558 550.251 627.835 546.691 620.574 544.269C617.431 550.898 615.081 558.021 611.951 564.526C604.548 579.909 593.257 594.186 580.045 604.997C575.267 608.906 568.848 612.608 563.865 616.217L561.393 615.29C557.737 617.162 554.069 619.441 550.503 621.228C529.816 632.227 500.053 647.028 476.83 649.548C463.671 649.327 456.65 646.577 446.205 639.174C444.316 637.835 440.068 635.281 437.922 634.643C435.234 633.472 426.802 626.891 424.124 625.112C415.044 619.08 387.117 597.714 383.394 589.037C376.386 583.216 368.763 561.449 367.541 552.614C365.241 535.979 364.679 536.315 355.26 523.44C342.684 506.249 333.625 487.34 334.04 465.725C333.845 460.846 333.584 454.429 334.416 449.665C334.802 445.278 336.154 443.145 338.152 439.281C339.835 438.225 341.563 437.461 343.322 436.504C343.5 436.165 343.678 435.825 343.856 435.485C341.372 425.701 332.016 402.395 330.77 393.486Z"/><defs><linearGradient id="gradient_0" gradientUnits="userSpaceOnUse" x1="356.12537" y1="482.26053" x2="338.47064" y2="486.03732"><stop offset="0" stop-color="#B27559"/><stop offset="1" stop-color="#CBA08A"/></linearGradient></defs><path fill="url(#gradient_0)" d="M334.416 449.665C338.538 443.603 336.018 442.184 344.118 438.292C347.647 446.321 347.974 449.505 350.435 457.18C356.026 474.617 359.184 491.918 361.38 510.099C362.158 516.539 361.881 523.314 362.679 529.898C350.474 516.474 341.73 500.275 337.206 482.706C335.783 476.969 335.275 471.079 334.04 465.725C333.845 460.846 333.584 454.429 334.416 449.665Z"/><defs><linearGradient id="gradient_1" gradientUnits="userSpaceOnUse" x1="359.4758" y1="484.32422" x2="351.96124" y2="485.79633"><stop offset="0" stop-color="#794123"/><stop offset="1" stop-color="#71533B"/></linearGradient></defs><path fill="url(#gradient_1)" d="M330.77 393.486C333.21 396.86 338.15 414.299 339.987 419.37C348.532 442.97 359.059 469.337 362.243 494.347C365.017 516.134 364.678 534.959 369.684 556.907C371.377 564.557 374.147 571.929 377.909 578.803C378.804 580.471 383.025 587.709 383.394 589.037C376.386 583.216 368.763 561.449 367.541 552.614C365.241 535.979 364.679 536.315 355.26 523.44C342.684 506.249 333.625 487.34 334.04 465.725C335.275 471.079 335.783 476.969 337.206 482.706C341.73 500.275 350.474 516.474 362.679 529.898C361.881 523.314 362.158 516.539 361.38 510.099C359.184 491.918 356.026 474.617 350.435 457.18C347.974 449.505 347.647 446.321 344.118 438.292C336.018 442.184 338.538 443.603 334.416 449.665C334.802 445.278 336.154 443.145 338.152 439.281C339.835 438.225 341.563 437.461 343.322 436.504C343.5 436.165 343.678 435.825 343.856 435.485C341.372 425.701 332.016 402.395 330.77 393.486Z"/><path fill="#68432E" d="M690.018 467.306C692.138 481.137 686.433 503.461 680.267 515.903C672.888 530.793 657.037 546.167 640.046 548.891C631.558 550.251 627.835 546.691 620.574 544.269C617.431 550.898 615.081 558.021 611.951 564.526C604.548 579.909 593.257 594.186 580.045 604.997C575.267 608.906 568.848 612.608 563.865 616.217L561.393 615.29C584.037 601.048 599.702 585.722 611.031 560.86C614.349 553.577 616.401 545.76 621.685 540.007C642.489 560.653 670.409 531.114 679.881 512.729C686.115 500.629 689.374 480.923 690.018 467.306Z"/><path fill="#68432E" d="M694.756 231.461C708.933 252.553 716.838 294.096 718.792 319.164C719.564 329.075 719.421 347.567 719.01 358.14C717.757 390.396 708.335 426.069 694.019 454.917C691.853 459.282 690.041 462.084 689.961 466.917C688.914 465.573 689.21 466.311 689.029 464.626C689.276 462.97 688.766 460.286 689.227 459.321C689.517 458.717 690.767 458.675 691.234 456.957C692.419 453.372 695.686 446.633 697.279 442.84C700.115 435.944 702.647 428.927 704.867 421.809C720.907 372.205 722.148 319.004 708.441 268.706C706.192 260.604 703.459 252.645 700.257 244.87C698.476 240.56 695.923 235.91 694.756 231.461Z"/><defs><linearGradient id="gradient_2" gradientUnits="userSpaceOnUse" x1="683.55811" y1="439.69785" x2="647.33862" y2="458.6279"><stop offset="0" stop-color="#754127"/><stop offset="1" stop-color="#98715D"/></linearGradient></defs><path fill="url(#gradient_2)" d="M689.029 464.626C687.932 454.635 685.61 442.858 677.865 435.818C666.139 425.159 649.228 438.22 641.469 447.56L641.189 447.903L641.098 447.351C643.786 440.567 650.242 434.575 656.834 431.687C669.168 426.283 678.698 429.538 685.169 441.217C688.156 446.607 689.095 451.37 691.234 456.957C690.767 458.675 689.517 458.717 689.227 459.321C688.766 460.286 689.276 462.97 689.029 464.626Z"/><defs><linearGradient id="gradient_3" gradientUnits="userSpaceOnUse" x1="654.99927" y1="456.82086" x2="663.88373" y2="472.68463"><stop offset="0" stop-color="#A16045"/><stop offset="1" stop-color="#C99479"/></linearGradient></defs><path fill="url(#gradient_3)" d="M646.788 471.086C650.987 464.029 654.582 455.492 660.599 449.827C667.544 443.288 671.717 447.483 676.37 453.223C681.843 463.841 680.737 470.865 680.42 482.284C682.426 489.726 673.998 503.563 669.372 509.06C667.137 511.716 661.696 512.685 658.588 514.109C657.29 514.712 656.726 515.608 655.389 516.271C653.042 517.12 651.706 517.861 649.54 519.017C644.514 521.52 638.137 516.903 633.842 514.286C636.108 512.617 636.411 512.16 638.099 509.875C639.943 505.549 642.046 497.104 642.605 492.47C641.302 487.816 643.147 474.668 646.788 471.086Z"/><path fill="#CFA889" d="M668.425 450.713C671.722 452.271 672.515 455.531 675.534 455.033C675.982 454.198 676.053 454.115 676.37 453.223C681.843 463.841 680.737 470.865 680.42 482.284C682.426 489.726 673.998 503.563 669.372 509.06C667.137 511.716 661.696 512.685 658.588 514.109C657.29 514.712 656.726 515.608 655.389 516.271C656.167 515.135 657.812 513.28 658.746 512.154C656.982 511.284 657.078 511.317 656.001 509.817C661.424 505.235 659.956 497.527 659.653 490.994C659.378 489.487 658.638 487.409 658.162 485.899C654.585 483.238 653.556 482.489 649.119 481.151L648.586 480.994C647.321 479.515 647.697 480.345 647.427 478.41C651.07 479.041 652.431 479.229 655.892 480.692C651.855 474.132 662.614 472.608 665.549 468.252C666.754 466.464 667.346 464.541 667.852 462.47C672.681 463.416 673.591 460.372 676.393 462.541L676.07 460.104C675.063 458.344 670.458 453.712 668.425 450.713Z"/><defs><linearGradient id="gradient_4" gradientUnits="userSpaceOnUse" x1="659.13904" y1="483.26349" x2="648.05884" y2="505.87323"><stop offset="0" stop-color="#955740"/><stop offset="1" stop-color="#B3816B"/></linearGradient></defs><path fill="url(#gradient_4)" d="M647.427 478.41C651.07 479.041 652.431 479.229 655.892 480.692C666.274 488.613 664.285 501.979 658.746 512.154C656.982 511.284 657.078 511.317 656.001 509.817C661.424 505.235 659.956 497.527 659.653 490.994C659.378 489.487 658.638 487.409 658.162 485.899C654.585 483.238 653.556 482.489 649.119 481.151L648.586 480.994C647.321 479.515 647.697 480.345 647.427 478.41Z"/><defs><linearGradient id="gradient_5" gradientUnits="userSpaceOnUse" x1="680.97217" y1="459.36655" x2="673.41687" y2="468.10519"><stop offset="0" stop-color="#A05F46"/><stop offset="1" stop-color="#B7826A"/></linearGradient></defs><path fill="url(#gradient_5)" d="M668.425 450.713C671.722 452.271 672.515 455.531 675.534 455.033C675.982 454.198 676.053 454.115 676.37 453.223C681.843 463.841 680.737 470.865 680.42 482.284C679.94 479.96 679.834 476.75 679.699 474.327C679.17 474.756 678.637 479.475 678.464 480.577C678.563 475.913 677.529 467.02 676.393 462.541L676.07 460.104C675.063 458.344 670.458 453.712 668.425 450.713Z"/><defs><linearGradient id="gradient_6" gradientUnits="userSpaceOnUse" x1="639.43408" y1="489.68198" x2="654.51642" y2="510.14532"><stop offset="0" stop-color="#B78064"/><stop offset="1" stop-color="#CD9E85"/></linearGradient></defs><path fill="url(#gradient_6)" d="M648.806 487.454C648.314 485.698 647.815 484.652 648.271 482.903C651.218 480.803 656.969 489.151 659.653 490.994C659.956 497.527 661.424 505.235 656.001 509.817C657.078 511.317 656.982 511.284 658.746 512.154C657.812 513.28 656.167 515.135 655.389 516.271C653.042 517.12 651.706 517.861 649.54 519.017C644.514 521.52 638.137 516.903 633.842 514.286C636.108 512.617 636.411 512.16 638.099 509.875C639.943 505.549 642.046 497.104 642.605 492.47C644.01 493.015 644.687 493.235 645.993 494.05C646.087 493.617 646.501 492.553 646.666 492.093C645.643 490.656 644.46 489.271 643.343 487.898C646.045 487.247 646.845 488.093 648.806 487.454Z"/><path fill="#BD7F65" d="M638.099 509.875L641.603 509.23C642.387 510.982 642.717 510.853 642.251 512.19L639.544 514.392C640.001 516.409 642.678 516.457 644.248 517.139C646.038 517.625 648.024 518.016 649.54 519.017C644.514 521.52 638.137 516.903 633.842 514.286C636.108 512.617 636.411 512.16 638.099 509.875Z"/><path fill="#BC8B6F" d="M644.248 517.139C649.423 516.012 652.3 513.438 656.001 509.817C657.078 511.317 656.982 511.284 658.746 512.154C657.812 513.28 656.167 515.135 655.389 516.271C653.042 517.12 651.706 517.861 649.54 519.017C648.024 518.016 646.038 517.625 644.248 517.139Z"/><path fill="#BC8B6F" d="M642.605 492.47C644.01 493.015 644.687 493.235 645.993 494.05C645.827 498.282 640.76 502.207 641.603 509.23L638.099 509.875C639.943 505.549 642.046 497.104 642.605 492.47Z"/><path fill="#BD7F65" d="M648.806 487.454C649.624 489.468 651.413 494.195 651.323 496.125L650.747 496.522C648.17 495.262 649.408 494.282 646.666 492.093C645.643 490.656 644.46 489.271 643.343 487.898C646.045 487.247 646.845 488.093 648.806 487.454Z"/><defs><linearGradient id="gradient_7" gradientUnits="userSpaceOnUse" x1="651.75909" y1="454.25604" x2="663.69708" y2="478.53632"><stop offset="0" stop-color="#8E5034"/><stop offset="1" stop-color="#A16856"/></linearGradient></defs><path fill="url(#gradient_7)" d="M646.788 471.086C650.987 464.029 654.582 455.492 660.599 449.827C667.544 443.288 671.717 447.483 676.37 453.223C676.053 454.115 675.982 454.198 675.534 455.033C672.515 455.531 671.722 452.271 668.425 450.713C660.263 449.156 650.464 469.133 648.329 475.717L647.427 478.41C647.697 480.345 647.321 479.515 648.586 480.994L649.119 481.151C653.556 482.489 654.585 483.238 658.162 485.899C658.638 487.409 659.378 489.487 659.653 490.994C656.969 489.151 651.218 480.803 648.271 482.903C647.815 484.652 648.314 485.698 648.806 487.454C646.845 488.093 646.045 487.247 643.343 487.898C644.46 489.271 645.643 490.656 646.666 492.093C646.501 492.553 646.087 493.617 645.993 494.05C644.687 493.235 644.01 493.015 642.605 492.47C641.302 487.816 643.147 474.668 646.788 471.086Z"/><path fill="#CFA889" d="M646.788 471.086C644.466 476.969 643.721 481.563 643.343 487.898C644.46 489.271 645.643 490.656 646.666 492.093C646.501 492.553 646.087 493.617 645.993 494.05C644.687 493.235 644.01 493.015 642.605 492.47C641.302 487.816 643.147 474.668 646.788 471.086Z"/><path fill="#BC8B6F" d="M667.852 462.47C671.362 460.563 671.416 457.831 676.07 460.104L676.393 462.541C673.591 460.372 672.681 463.416 667.852 462.47Z"/><defs><linearGradient id="gradient_8" gradientUnits="userSpaceOnUse" x1="437.33658" y1="520.2085" x2="449.88278" y2="519.90656"><stop offset="0" stop-color="#985F42"/><stop offset="1" stop-color="#C98F76"/></linearGradient></defs><path fill="url(#gradient_8)" d="M448.296 503.945C448.366 501.772 448.578 499.446 448.735 497.264L449.049 498.943C450.344 499.596 450.4 499.6 451.488 500.54L451.272 501.301L449.598 500.078C448.417 501.799 456.385 515.93 447.186 519.107C445.774 520.288 442.59 522.532 442.25 524.077C443.023 526.442 445.22 526.36 445.453 527.06C445.832 528.199 447.015 532.511 447.366 533.799C454.023 536.823 455.269 539.055 461.796 535.775C459.136 533.481 455.339 533.085 454.866 529.937C456.881 526.853 463.535 527.821 465.258 530.675L465.524 533.722C463.025 536.46 459.982 537.804 456.661 539.329C455.415 538.411 454.617 537.589 453.11 537.438C453.155 540.138 453.991 539.92 453.031 541.788C451.259 542.479 451.302 542.426 449.508 542.485C447.663 541.495 446.852 540.483 445.346 538.985C428.301 529.382 440.415 514.249 448.296 503.945Z"/><path fill="#BC8B6F" d="M440.992 522.155C444.059 521.835 443.45 519.79 447.154 518.566L447.186 519.107C445.774 520.288 442.59 522.532 442.25 524.077C443.023 526.442 445.22 526.36 445.453 527.06C445.832 528.199 447.015 532.511 447.366 533.799C454.023 536.823 455.269 539.055 461.796 535.775C459.136 533.481 455.339 533.085 454.866 529.937C456.881 526.853 463.535 527.821 465.258 530.675L465.524 533.722C463.025 536.46 459.982 537.804 456.661 539.329C455.415 538.411 454.617 537.589 453.11 537.438C453.155 540.138 453.991 539.92 453.031 541.788C451.259 542.479 451.302 542.426 449.508 542.485C447.663 541.495 446.852 540.483 445.346 538.985L444.769 536.564C442.821 533.097 440.638 529.423 441.5 525.387C441.562 524.21 441.253 523.334 440.992 522.155Z"/><path fill="#754E34" d="M454.944 529.417C459.704 529.256 460.865 529.182 465.258 530.675L465.524 533.722C463.496 533.747 461.493 533.913 459.47 534.052C457.906 532.798 456.32 530.924 454.944 529.417Z"/><path fill="#754E34" d="M441.5 525.387C445.444 529.656 443.956 529.46 446.238 533.976C445.645 536.055 446.206 535.277 444.769 536.564C442.821 533.097 440.638 529.423 441.5 525.387Z"/><path fill="#BD7F65" d="M446.238 533.976C448.167 535.572 449.308 538.841 450.273 541.255C449.786 542.31 450.098 541.942 449.508 542.485C447.663 541.495 446.852 540.483 445.346 538.985L444.769 536.564C446.206 535.277 445.645 536.055 446.238 533.976Z"/><path fill="#CEAB8C" d="M440.992 522.155C440.844 517.079 444.092 506.905 450.296 512.094C451.106 514.786 449.374 517.109 447.154 518.566C443.45 519.79 444.059 521.835 440.992 522.155Z"/><path fill="#BD7F65" d="M486.462 577.391C492.788 576.268 497.35 573.243 501.337 572.698L501.726 573.233C494.817 580.737 464.042 585.073 453.786 582.735C450.069 581.888 439.684 578.393 439.772 574.026L440.652 573.807L442.357 574.93C448.885 574.928 455.919 572.23 462.631 573.245C470.113 574.377 479.063 574.237 485.942 577.294C486.116 577.326 486.289 577.359 486.462 577.391Z"/><defs><linearGradient id="gradient_9" gradientUnits="userSpaceOnUse" x1="469.7178" y1="573.74841" x2="469.92978" y2="581.98895"><stop offset="0" stop-color="#552E10"/><stop offset="1" stop-color="#9C4030"/></linearGradient></defs><path fill="url(#gradient_9)" d="M486.462 577.391C492.788 576.268 497.35 573.243 501.337 572.698L501.726 573.233C494.817 580.737 464.042 585.073 453.786 582.735C450.069 581.888 439.684 578.393 439.772 574.026L440.652 573.807L442.357 574.93C453.888 583.787 473.427 580.327 486.462 577.391Z"/><path fill="#CFA889" d="M451.582 589.657C451.906 589.806 454.584 591.604 453.54 591.567C459.791 591.789 464.448 590.113 470.437 592.952C467.029 593.951 457.832 591.251 455.099 593.745L455.258 594.693C456.529 596.199 456.785 596.19 458.611 596.789C462.776 597.739 469.941 597.811 471.541 598.229C469.121 599.798 448.255 597.271 448.829 593.042C450.417 592.839 451.184 592.91 452.407 591.888L451.582 589.657Z"/><defs><linearGradient id="gradient_10" gradientUnits="userSpaceOnUse" x1="594.84583" y1="1026.6205" x2="410.06131" y2="720.50861"><stop offset="0" stop-color="#AF9D8D"/><stop offset="1" stop-color="#C6BAAB"/></linearGradient></defs><path fill="url(#gradient_10)" d="M550.503 621.228C554.069 619.441 557.737 617.162 561.393 615.29L563.865 616.217C560.406 618.834 557.514 620.448 554.025 622.79L554.282 647.232C554.385 662.309 553.232 672.633 559.303 686.965C568.3 700.571 582.857 708.82 598.257 713.419L603.941 711.571C609.258 712.909 611.173 712.992 613.432 718.445C621.303 722.506 632.967 725.755 642.098 730.161C658.932 735.891 665.501 745.533 674.191 759.156C676.973 764.255 683.67 779.786 684.191 785.598C686.894 792.422 689.996 817.592 690.131 825.17C691.727 833.572 691.653 842.723 692.174 851.223C692.915 863.314 693.69 879.066 692.982 891.133C693.005 894.635 692.892 898.692 693.185 902.145C694.667 919.626 694.489 937.074 694.638 954.618L695.158 1001C695.237 1007.53 694.991 1017.77 695.449 1024L626.597 1024L624.149 1024C624.17 1018.63 624.177 1013.93 623.842 1008.56C622.265 1003.4 623.062 992.896 622.474 987.134C621.299 975.614 620.394 965.082 618.834 953.586C617.811 946.052 618.776 936.862 617.284 928.532C613.881 930.906 613.846 936.51 612.369 940.807C611.458 946.317 610.129 951.994 608.751 957.409C604.902 972.545 603.978 988.654 600.764 1003.81L600.977 1004.57C603.754 1014.3 609.336 1012.36 605.465 1024L603.206 1024L390.239 1024L387.522 1024L368.518 1024L365.459 1024C365.561 1012.31 364.869 999.171 364.441 987.5C363.884 969.533 363.206 951.569 362.407 933.611C360.678 929.699 360.913 928.02 360.845 923.757C360.268 919.097 360.904 913.165 360.178 908.705C357.736 893.691 358.1 879.248 357.956 864.103L357.424 827.42C357.071 786.995 352.144 739.286 397.664 721.423C404.257 718.835 408.997 717.052 416.036 715.457C416.935 714.779 418.04 713.668 418.89 712.874C422.27 708.28 424.836 708.186 430.263 707.263C432.269 708.447 432.859 708.666 435.072 709.48C439.876 708.113 444.65 706.646 449.392 705.08L457.837 701.201C464.837 697.691 473.954 693.156 475.65 684.886C477.815 674.322 475.056 661.942 474.954 651.294C462.346 649.488 456.403 647.366 445.482 640.216C442.836 638.484 440.184 636.9 437.922 634.643C440.068 635.281 444.316 637.835 446.205 639.174C456.65 646.577 463.671 649.327 476.83 649.548C500.053 647.028 529.816 632.227 550.503 621.228Z"/><path fill="#CFA889" d="M610.859 720.273C619.163 721.97 634.331 727.498 641.646 731.331L642.098 730.161C658.932 735.891 665.501 745.533 674.191 759.156C676.973 764.255 683.67 779.786 684.191 785.598C686.894 792.422 689.996 817.592 690.131 825.17C691.727 833.572 691.653 842.723 692.174 851.223C692.915 863.314 693.69 879.066 692.982 891.133C693.005 894.635 692.892 898.692 693.185 902.145C694.667 919.626 694.489 937.074 694.638 954.618L695.158 1001C695.237 1007.53 694.991 1017.77 695.449 1024L626.597 1024L624.149 1024C624.17 1018.63 624.177 1013.93 623.842 1008.56C622.265 1003.4 623.062 992.896 622.474 987.134C621.299 975.614 620.394 965.082 618.834 953.586C617.811 946.052 618.776 936.862 617.284 928.532C613.881 930.906 613.846 936.51 612.369 940.807L612.221 939.909L611.103 939.376C613.913 927.6 615.045 923.266 613.999 911.397C609.594 909.762 600.039 895.622 597.356 891.084C573.897 851.412 574.295 809.891 586.22 766.344L587.804 767.142C593.214 750.041 598.497 733.918 610.859 720.273Z"/><path fill="#462C1E" d="M613.999 911.397C609.594 909.762 600.039 895.622 597.356 891.084C573.897 851.412 574.295 809.891 586.22 766.344L587.804 767.142C585.004 776.955 584.605 783.403 582.872 792.99C576.865 826.218 580.415 855.475 596.348 885.272C601.759 895.392 606.979 900.814 613.453 909.569C613.139 907.138 612.818 905.255 612.89 902.788L613.053 899.5L613.402 899.389C613.767 901.522 614.032 910.809 614.159 911.179L613.999 911.397Z"/><path fill="#68432E" d="M612.89 902.788C612.153 899.396 612.043 895.577 611.669 892.087C610.604 882.17 609.301 872.326 607.108 862.589C605.33 854.693 601.836 850.55 596.878 844.663C602.836 847.247 605.378 848.549 607.758 855.44C615.206 877.014 614.652 904.974 618.201 926.722L617.284 928.532C613.881 930.906 613.846 936.51 612.369 940.807L612.221 939.909L611.103 939.376C613.913 927.6 615.045 923.266 613.999 911.397L614.159 911.179C614.032 910.809 613.767 901.522 613.402 899.389L613.053 899.5L612.89 902.788Z"/><path fill="#754E34" d="M618.201 926.722C621.155 935.568 621.807 959.44 622.859 969.95C623.563 976.986 624.628 986.353 624.551 993.342C624.186 998.51 625.603 1004.65 623.842 1008.56C622.265 1003.4 623.062 992.896 622.474 987.134C621.299 975.614 620.394 965.082 618.834 953.586C617.811 946.052 618.776 936.862 617.284 928.532L618.201 926.722Z"/><path fill="#7E573B" d="M690.131 825.17C691.727 833.572 691.653 842.723 692.174 851.223C692.915 863.314 693.69 879.066 692.982 891.133C690.652 884.319 689.1 835.927 688.36 825.265L690.131 825.17Z"/><path fill="#7E573B" d="M642.098 730.161C658.932 735.891 665.501 745.533 674.191 759.156L673.415 762.751C664.47 746.677 658.081 740.786 641.646 731.331L642.098 730.161Z"/><path fill="#754E34" d="M682.085 786.172L682.611 783.635C683.372 784.372 683.563 784.735 684.191 785.598C686.894 792.422 689.996 817.592 690.131 825.17L688.36 825.265C687.194 811.268 684.78 799.89 682.085 786.172Z"/><path fill="#68432E" d="M674.191 759.156C676.973 764.255 683.67 779.786 684.191 785.598C683.563 784.735 683.372 784.372 682.611 783.635L682.085 786.172C680.049 777.968 677.003 770.371 673.415 762.751L674.191 759.156Z"/><path fill="#7E573B" d="M624.551 993.342C626.019 1003.16 626.593 1014.09 626.597 1024L624.149 1024C624.17 1018.63 624.177 1013.93 623.842 1008.56C625.603 1004.65 624.186 998.51 624.551 993.342Z"/><path fill="#CEAB8C" d="M550.503 621.228C554.069 619.441 557.737 617.162 561.393 615.29L563.865 616.217C560.406 618.834 557.514 620.448 554.025 622.79L554.282 647.232C554.385 662.309 553.232 672.633 559.303 686.965L559.74 690.014C560.899 691.914 562.616 694.74 564.137 696.238C571.434 703.418 589.05 712.024 598.368 714.865C587.925 730.859 579.777 748.237 574.159 766.493L573.749 767.342C568.708 778.026 566.515 791.491 563.048 802.766C560.099 812.357 561.822 821.828 550.953 825.491C530.104 832.518 508.934 836.836 486.851 836.531C483.098 836.488 476.689 836.771 473.283 836.081C469.846 835.873 466.74 835.701 463.322 835.248C454.868 834.147 449.187 832.749 440.981 830.39C430.458 826.55 413.274 820.26 406.748 810.446C404.985 790.364 418.224 740.727 426.745 721.833C427.294 720.684 427.856 719.541 428.431 718.405C429.752 715.812 431.094 712.771 433.881 711.863L435.072 709.48C439.876 708.113 444.65 706.646 449.392 705.08L457.837 701.201C464.837 697.691 473.954 693.156 475.65 684.886C477.815 674.322 475.056 661.942 474.954 651.294C462.346 649.488 456.403 647.366 445.482 640.216C442.836 638.484 440.184 636.9 437.922 634.643C440.068 635.281 444.316 637.835 446.205 639.174C456.65 646.577 463.671 649.327 476.83 649.548C500.053 647.028 529.816 632.227 550.503 621.228Z"/><defs><linearGradient id="gradient_11" gradientUnits="userSpaceOnUse" x1="508.42453" y1="640.05487" x2="530.48792" y2="689.98138"><stop offset="0" stop-color="#A3694A"/><stop offset="1" stop-color="#C69879"/></linearGradient></defs><path fill="url(#gradient_11)" d="M550.503 621.228C554.069 619.441 557.737 617.162 561.393 615.29L563.865 616.217C560.406 618.834 557.514 620.448 554.025 622.79L554.282 647.232C554.385 662.309 553.232 672.633 559.303 686.965L559.74 690.014C556.935 685.999 555.615 680.339 554.163 675.582C553.547 676.609 553.725 676.061 553.608 677.219C552.219 678.255 551.729 677.788 549.441 677.664C545.289 681.304 540.303 684.291 535.66 687.298C531.325 690.105 522.501 693.122 519.271 696.729C511.944 698.279 494.215 701.57 486.516 695.841C484.129 694.065 480.666 682.603 479.87 681.989C479.894 683.322 479.928 684.555 480.007 685.892C479.943 687.205 480.099 688.92 479.508 689.838L479.462 687.402C474.155 691.518 469.316 701.511 461.497 702.251L460.148 702.781L457.837 701.201C464.837 697.691 473.954 693.156 475.65 684.886C477.815 674.322 475.056 661.942 474.954 651.294C462.346 649.488 456.403 647.366 445.482 640.216C442.836 638.484 440.184 636.9 437.922 634.643C440.068 635.281 444.316 637.835 446.205 639.174C456.65 646.577 463.671 649.327 476.83 649.548C500.053 647.028 529.816 632.227 550.503 621.228Z"/><defs><linearGradient id="gradient_12" gradientUnits="userSpaceOnUse" x1="505.53107" y1="626.90521" x2="521.66687" y2="646.83929"><stop offset="0" stop-color="#60341D"/><stop offset="1" stop-color="#A26247"/></linearGradient></defs><path fill="url(#gradient_12)" d="M476.83 649.548C500.053 647.028 529.816 632.227 550.503 621.228C551.447 625.072 551.508 626.258 551.346 630.189C550.852 628.635 550.566 627.843 550.331 626.198L549.886 625.847C545.616 626.818 532.144 632.291 528.748 634.641C518.146 641.979 509.894 644.499 497.534 647.629C490.793 649.337 484.945 653.013 477.402 652.487L476.239 650.734L476.83 649.548Z"/><path fill="#754E34" d="M550.503 621.228C554.069 619.441 557.737 617.162 561.393 615.29L563.865 616.217C560.406 618.834 557.514 620.448 554.025 622.79L554.282 647.232C554.385 662.309 553.232 672.633 559.303 686.965L559.74 690.014C556.935 685.999 555.615 680.339 554.163 675.582C553.817 669.359 552.51 662.221 551.928 655.909C551.099 646.926 551.03 639.133 551.346 630.189C551.508 626.258 551.447 625.072 550.503 621.228Z"/><path fill="#68432E" d="M437.922 634.643C440.068 635.281 444.316 637.835 446.205 639.174C456.65 646.577 463.671 649.327 476.83 649.548L476.239 650.734L477.402 652.487C478.058 666.492 478.235 672.402 477.746 686.617C473.204 694.144 468.631 697.594 461.497 702.251L460.148 702.781L457.837 701.201C464.837 697.691 473.954 693.156 475.65 684.886C477.815 674.322 475.056 661.942 474.954 651.294C462.346 649.488 456.403 647.366 445.482 640.216C442.836 638.484 440.184 636.9 437.922 634.643Z"/><path fill="#BC8B6F" d="M480.007 685.892C480.953 689.049 481.493 699.234 481.744 703.064C480.675 704.863 479.713 706.529 478.728 708.375C475.101 704.556 475.004 704.255 469.688 705.116L469.589 704.776L471.231 703.396L470.711 703.243C469.454 702.864 468.737 702.795 467.835 701.867C471.04 700.754 474.115 704.019 475.097 699.082C475.501 697.05 477.528 692.213 478.64 690.351L479.508 689.838C480.099 688.92 479.943 687.205 480.007 685.892Z"/><path fill="#BC8B6F" d="M463.322 835.248L463.706 832.049C464.697 834.151 463.994 833.342 465.793 834.655C472.669 835.984 476.888 825.288 481.797 821.73L482.576 821.824C483.368 829.325 476.005 831.826 473.283 836.081C469.846 835.873 466.74 835.701 463.322 835.248Z"/><path fill="#754E34" d="M435.072 709.48C439.876 708.113 444.65 706.646 449.392 705.08L449.921 707.269C445.242 708.819 438.606 711.175 433.881 711.863L435.072 709.48Z"/><path fill="#68432E" d="M449.392 705.08L457.837 701.201L460.148 702.781C456.546 704.524 453.642 705.787 449.921 707.269L449.392 705.08Z"/><path fill="#BC8B6F" d="M548.059 736.201C549.795 736.499 550.912 736.497 552.407 737.302C537.58 742.062 529.477 742.867 514.087 744.159C507.962 749.507 507.546 751.448 499.536 750.076C505.271 746.38 510.349 741.806 517.26 740.697C527.668 739.026 537.708 738.563 548.059 736.201Z"/><defs><linearGradient id="gradient_13" gradientUnits="userSpaceOnUse" x1="451.39673" y1="735.13141" x2="449.27951" y2="739.8587"><stop offset="0" stop-color="#A4775C"/><stop offset="1" stop-color="#C49574"/></linearGradient></defs><path fill="url(#gradient_13)" d="M427.691 729.14C433.055 729.397 441.312 732.802 446.596 734.644C457.186 738.335 469.103 739.022 474.224 750.346C467.678 748.266 467.286 743.892 461.472 741.734C451.248 737.939 439.406 735.399 429.06 731.857C427.951 731.478 427.809 730.052 427.691 729.14Z"/><path fill="#CFA889" d="M548.059 736.201C550.387 735.621 558.326 733.84 560.165 734.663C558.996 736.445 554.556 737.045 552.407 737.302C550.912 736.497 549.795 736.499 548.059 736.201Z"/><path fill="#CFA889" d="M360.845 923.757C360.268 919.097 360.904 913.165 360.178 908.705C357.736 893.691 358.1 879.248 357.956 864.103L357.424 827.42C357.071 786.995 352.144 739.286 397.664 721.423C404.257 718.835 408.997 717.052 416.036 715.457L416.223 716.982C415.886 719.328 413.221 724.737 412.127 727.306C403.069 748.571 398.347 770.122 393.513 792.696C392.967 796.765 388.256 811.965 386.298 815.648C379.02 831.002 371.623 847.234 366.737 863.529C360.829 885.062 363.687 911.764 373.294 931.732C380.688 947.1 382.385 952.171 384.948 968.678C388.032 988.543 388.78 1003.95 387.522 1024L368.518 1024L365.459 1024C365.561 1012.31 364.869 999.171 364.441 987.5C363.884 969.533 363.206 951.569 362.407 933.611C360.678 929.699 360.913 928.02 360.845 923.757Z"/><path fill="#754E34" d="M360.845 923.757C360.268 919.097 360.904 913.165 360.178 908.705C357.736 893.691 358.1 879.248 357.956 864.103L357.424 827.42C357.071 786.995 352.144 739.286 397.664 721.423C404.257 718.835 408.997 717.052 416.036 715.457L416.223 716.982C398.618 721.165 380.423 730.351 370.68 746.122C354.424 772.435 358.12 828.764 359.525 859.66C360.026 870.689 360.21 881.726 360.689 892.75C361.087 901.908 362.904 910.983 362.361 920.191L361.825 917.739C361.051 919.353 361.085 921.824 360.845 923.757Z"/><defs><linearGradient id="gradient_14" gradientUnits="userSpaceOnUse" x1="373.03406" y1="986.5025" x2="358.43036" y2="984.22577"><stop offset="0" stop-color="#744635"/><stop offset="1" stop-color="#806343"/></linearGradient></defs><path fill="url(#gradient_14)" d="M362.407 933.611L363.596 931.643C364.657 942.349 365.192 953.482 365.754 964.232C366.799 984.21 368.226 1003.98 368.518 1024L365.459 1024C365.561 1012.31 364.869 999.171 364.441 987.5C363.884 969.533 363.206 951.569 362.407 933.611Z"/><path fill="#BD7F65" d="M386.298 815.648C386.484 807.327 388.553 798.983 388.957 789.112C390.014 787.58 389.451 787.834 390.825 787.138C391.564 789.296 391.911 791.013 393.513 792.696C392.967 796.765 388.256 811.965 386.298 815.648Z"/><path fill="#7E573B" d="M360.845 923.757C361.085 921.824 361.051 919.353 361.825 917.739L362.361 920.191C363.224 924.377 362.953 927.953 363.596 931.643L362.407 933.611C360.678 929.699 360.913 928.02 360.845 923.757Z"/><defs><linearGradient id="gradient_15" gradientUnits="userSpaceOnUse" x1="572.17468" y1="763.02386" x2="456.01733" y2="857.43439"><stop offset="0" stop-color="#553E2E"/><stop offset="1" stop-color="#866959"/></linearGradient></defs><path fill="url(#gradient_15)" d="M473.283 836.081C476.689 836.771 483.098 836.488 486.851 836.531C508.934 836.836 530.104 832.518 550.953 825.491C561.822 821.828 560.099 812.357 563.048 802.766C566.515 791.491 568.708 778.026 573.749 767.342L574.159 766.493L575.936 766.183C572.796 775.923 569.914 785.743 567.292 795.635C565.879 801.02 561.646 818.869 559.514 823.09C542.717 834.685 501.323 840.295 481.051 839.935C471.091 839.758 445.491 835.97 437.094 831.353L437.697 831.073C435.807 830.379 433.576 829.888 432.388 828.527C433.738 828.256 438.188 830.404 440.981 830.39C449.187 832.749 454.868 834.147 463.322 835.248C466.74 835.701 469.846 835.873 473.283 836.081Z"/><path fill="#68432E" d="M366.737 863.529L368.503 863.917C359.755 902.49 372.015 917.577 384.179 950.65C389.561 965.282 392.539 1008.15 390.239 1024L387.522 1024C388.78 1003.95 388.032 988.543 384.948 968.678C382.385 952.171 380.688 947.1 373.294 931.732C363.687 911.764 360.829 885.062 366.737 863.529Z"/><path fill="#241814" d="M559.303 686.965C568.3 700.571 582.857 708.82 598.257 713.419L603.941 711.571C609.258 712.909 611.173 712.992 613.432 718.445C621.303 722.506 632.967 725.755 642.098 730.161L641.646 731.331C634.331 727.498 619.163 721.97 610.859 720.273C598.497 733.918 593.214 750.041 587.804 767.142L586.22 766.344C590.308 753.755 594.199 742.372 600.938 730.796C603.37 726.617 607.258 722.112 610.038 718.058C610.488 717.402 610.282 717.19 609.973 716.529C609.061 714.578 605.395 713.647 603.277 712.919C591.101 723.978 581.422 750.704 575.936 766.183L574.159 766.493C579.777 748.237 587.925 730.859 598.368 714.865C589.05 712.024 571.434 703.418 564.137 696.238C562.616 694.74 560.899 691.914 559.74 690.014L559.303 686.965Z"/><path fill="#462C1E" d="M418.89 712.874L420.585 713.965C406.223 737.135 400.28 772.051 393.888 798.492C388.269 821.736 374.954 840.936 368.503 863.917L366.737 863.529C371.623 847.234 379.02 831.002 386.298 815.648C388.256 811.965 392.967 796.765 393.513 792.696C398.347 770.122 403.069 748.571 412.127 727.306C413.221 724.737 415.886 719.328 416.223 716.982L416.036 715.457C416.935 714.779 418.04 713.668 418.89 712.874Z"/><path fill="#462C1E" d="M405.073 810.966C403.296 788.735 416.268 741.183 425.274 720.727L426.745 721.833C418.224 740.727 404.985 790.364 406.748 810.446C413.274 820.26 430.458 826.55 440.981 830.39C438.188 830.404 433.738 828.256 432.388 828.527C433.576 829.888 435.807 830.379 437.697 831.073L437.094 831.353C436.894 831.326 436.694 831.299 436.494 831.272C426.213 827.16 411.183 820.304 405.073 810.966Z"/><path fill="#68432E" d="M611.103 939.376L612.221 939.909L612.369 940.807C611.458 946.317 610.129 951.994 608.751 957.409C604.902 972.545 603.978 988.654 600.764 1003.81L600.977 1004.57C603.754 1014.3 609.336 1012.36 605.465 1024L603.206 1024C603.852 1022.2 604.555 1019.53 605.12 1017.64C603.22 1013.57 599.458 1009.51 599.516 1004.89C599.597 998.478 600.833 991.696 601.904 985.345C604.452 970.228 606.599 954.051 611.103 939.376Z"/><defs><linearGradient id="gradient_16" gradientUnits="userSpaceOnUse" x1="423.72223" y1="720.03815" x2="428.98645" y2="707.57202"><stop offset="0" stop-color="#2F1F1C"/><stop offset="1" stop-color="#644A39"/></linearGradient></defs><path fill="url(#gradient_16)" d="M430.263 707.263C432.269 708.447 432.859 708.666 435.072 709.48L433.881 711.863C431.094 712.771 429.752 715.812 428.431 718.405C427.856 719.541 427.294 720.684 426.745 721.833L425.274 720.727C427.032 716.922 428.858 713.547 430.843 709.871C426.678 710.813 423.858 711.133 420.585 713.965L418.89 712.874C422.27 708.28 424.836 708.186 430.263 707.263Z"/></svg>