<?xml version="1.0" encoding="utf-8" ?><svg xmlns="http://www.w3.org/2000/svg" xmlns:xlink="http://www.w3.org/1999/xlink" width="1024" height="1024" viewBox="0 0 1024 1024"><path fill="#CCAB8B" d="M320.595 303.767C319.324 276.827 324.487 249.971 335.659 225.423C364.298 162.524 428.118 126.365 495.149 119.739C501.817 119.08 547.238 119.02 551.336 120.911C595.277 123.327 647.179 150.464 675.336 183.681C675.77 184.192 676.796 185.376 677.141 185.976C679.845 190.063 683.037 193.384 685.829 197.361C717.522 242.507 722.624 295.645 720.858 349.311C715.383 390.039 710.278 408.828 691.991 445.991L691.895 449.682C692.439 473.535 686.878 498.007 670.242 515.957C665.092 521.799 660.513 525.196 653.944 529.306C647.38 533.195 640.066 536.326 632.311 534.266C628.826 533.369 625.665 531.505 623.193 528.89C622.254 530.213 621.271 531.656 620.267 532.913C614.799 546.485 608.305 559.448 599.52 571.155L597.573 570.251C586.337 581.976 566.487 593.358 552.539 602.935C540.097 611.478 526.156 619.879 513.177 627.873C493.692 639.879 469.825 639.503 448.245 634.432C434.095 631.107 426.304 614.796 418.156 603.559C411.649 594.699 405.189 585.804 398.778 576.875C395.803 572.744 390.682 565.936 388.308 561.657L387.002 562.397C382.683 554.088 376.855 546.108 372.685 537.497C369.728 533.05 368.054 523.286 365.159 519.295C356.084 506.785 346.185 496.992 340.932 481.877C334.053 467.281 333.536 452.449 334.531 436.832C335.364 431.397 336.745 427.999 341.33 424.797C342.654 423.872 345.337 422.391 344.7 420.671C338.137 402.954 331.975 385.029 327.663 366.609C327.634 366.423 327.604 366.237 327.575 366.051C320.871 341.422 320.467 328.86 320.595 303.767Z"/><defs><linearGradient id="gradient_0" gradientUnits="userSpaceOnUse" x1="355.69296" y1="467.90549" x2="339.25281" y2="471.22656"><stop offset="0" stop-color="#B27B5D"/><stop offset="1" stop-color="#CCA087"/></linearGradient></defs><path fill="url(#gradient_0)" d="M334.531 436.832C337.901 434.484 337.424 424.119 345.474 424.676C349.094 428.768 357.863 475.203 359.672 483.716C361.452 492.096 361.556 505.283 363.858 514.758C357.36 507.142 352.109 501.634 347.539 492.66C346.266 490.16 342.953 483.017 340.932 481.877C334.053 467.281 333.536 452.449 334.531 436.832Z"/><path fill="#6D4F3B" d="M551.336 120.911C595.277 123.327 647.179 150.464 675.336 183.681C675.77 184.192 676.796 185.376 677.141 185.976C679.845 190.063 683.037 193.384 685.829 197.361C717.522 242.507 722.624 295.645 720.858 349.311C719.708 346.628 719.613 343.429 719.342 340.492L719.28 341.24C719.101 340.734 718.541 333.096 718.452 331.964C716.87 273.917 711.93 236.497 675.978 188.642C671.203 183.904 667.189 178.047 661.801 173.095C643.468 156.246 620.421 142.222 596.948 133.925C586.783 130.331 576.01 128.101 565.669 125.589C564.891 124.812 564.521 124.709 563.491 124.287L562.896 124.047C559.275 122.568 558.071 122.795 554.255 122.559L556.262 122.521C554.584 121.852 554.001 123.001 551.336 120.911Z"/><path fill="#87624A" d="M320.595 303.767C319.324 276.827 324.487 249.971 335.659 225.423C364.298 162.524 428.118 126.365 495.149 119.739C501.817 119.08 547.238 119.02 551.336 120.911C554.001 123.001 554.584 121.852 556.262 122.521L554.255 122.559C558.071 122.795 559.275 122.568 562.896 124.047L563.491 124.287C564.521 124.709 564.891 124.812 565.669 125.589C503.355 116.345 440.894 122.648 389.329 161.503C347.139 193.294 324.773 241.221 321.291 293.242C321.094 296.183 321.151 301.044 320.595 303.767Z"/><defs><linearGradient id="gradient_1" gradientUnits="userSpaceOnUse" x1="353.46362" y1="469.96924" x2="358.56259" y2="468.92279"><stop offset="0" stop-color="#674E3B"/><stop offset="1" stop-color="#935D41"/></linearGradient></defs><path fill="url(#gradient_1)" d="M327.575 366.051L328.632 366.408C330.179 370.003 330.699 374.003 331.784 377.768C339.458 404.389 351.821 429.357 357.136 456.703C357.946 460.871 358.897 465.033 359.647 469.216C363.431 487.432 363.124 506.517 369.026 524.25C372.245 534.199 377.281 542.641 382.396 551.657C383.795 554.122 387.299 559.459 388.308 561.657L387.002 562.397C382.683 554.088 376.855 546.108 372.685 537.497C369.728 533.05 368.054 523.286 365.159 519.295C356.084 506.785 346.185 496.992 340.932 481.877C342.953 483.017 346.266 490.16 347.539 492.66C352.109 501.634 357.36 507.142 363.858 514.758C361.556 505.283 361.452 492.096 359.672 483.716C357.863 475.203 349.094 428.768 345.474 424.676C337.424 424.119 337.901 434.484 334.531 436.832C335.364 431.397 336.745 427.999 341.33 424.797C342.654 423.872 345.337 422.391 344.7 420.671C338.137 402.954 331.975 385.029 327.663 366.609C327.634 366.423 327.604 366.237 327.575 366.051Z"/><defs><linearGradient id="gradient_2" gradientUnits="userSpaceOnUse" x1="719.19312" y1="393.67178" x2="695.54645" y2="380.40143"><stop offset="0" stop-color="#604532"/><stop offset="1" stop-color="#835139"/></linearGradient></defs><path fill="url(#gradient_2)" d="M718.452 331.964C718.541 333.096 719.101 340.734 719.28 341.24L719.342 340.492C719.613 343.429 719.708 346.628 720.858 349.311C715.383 390.039 710.278 408.828 691.991 445.991L691.939 441.8L691.94 441.328C704.919 415.786 713.323 384.299 716.573 355.938C717.462 348.181 717.427 340.074 718.378 332.524L718.452 331.964Z"/><path fill="#87624A" d="M640.834 433.076C647.916 422.107 658.884 410.615 673.979 414.876C681.989 417.136 687.053 427.389 689.53 434.553C690.287 436.741 690.86 439.196 691.94 441.328L691.939 441.8C689.715 442.86 689.564 444.027 689.16 446.337C688.15 435.369 681.898 417.677 668.736 417.351C657.687 417.078 648.452 426.152 640.834 433.076Z"/><path fill="#764C33" d="M691.939 441.8L691.991 445.991L691.895 449.682C692.439 473.535 686.878 498.007 670.242 515.957L668.916 514.073C670.501 511.412 674.925 507.319 677.164 503.581C688.391 484.835 690.863 468.201 689.445 447.002L689.16 446.337C689.564 444.027 689.715 442.86 691.939 441.8Z"/><path fill="#764C33" d="M618.261 532.013C618.648 530.407 621.135 525.578 622.002 523.804C634.173 536.534 642.797 532.691 656.12 525.196C655.952 527.411 654.875 527.492 653.944 529.306C647.38 533.195 640.066 536.326 632.311 534.266C628.826 533.369 625.665 531.505 623.193 528.89C622.254 530.213 621.271 531.656 620.267 532.913L618.487 534.572C618.368 533.628 618.322 532.958 618.261 532.013Z"/><path fill="#4D3324" d="M618.261 532.013C618.322 532.958 618.368 533.628 618.487 534.572L620.267 532.913C614.799 546.485 608.305 559.448 599.52 571.155L597.573 570.251C606.863 558.178 612.424 545.927 618.261 532.013Z"/><path fill="#4D3324" d="M668.916 514.073L670.242 515.957C665.092 521.799 660.513 525.196 653.944 529.306C654.875 527.492 655.952 527.411 656.12 525.196C660.672 521.831 664.95 518.112 668.916 514.073Z"/><defs><linearGradient id="gradient_3" gradientUnits="userSpaceOnUse" x1="642.71582" y1="445.32153" x2="667.77643" y2="493.2511"><stop offset="0" stop-color="#A1694D"/><stop offset="1" stop-color="#C6967B"/></linearGradient></defs><path fill="url(#gradient_3)" d="M658.647 437.794C670.341 423.153 677.117 436.489 680.989 448.497L680.065 449.96L679.249 449.8C678.431 448.109 678.138 447.334 676.794 446.042C677.226 448.187 677.745 450.495 678.073 452.641L677.809 452.167C676.614 449.975 676.362 449.169 675.629 446.781L675.029 446.273C670.569 449.381 669.016 451.255 665.033 454.789C662.395 457.129 658.609 458.88 655.822 461.772C655.935 463.683 656.535 463.89 657.647 465.742C666.897 472.817 665.299 486.623 659.913 495.518C656.989 500.347 653.231 502.368 648.498 504.852C645.365 504.468 638.426 503.173 637.167 499.998C635.92 496.852 640.194 490.598 641.117 487.32C642.056 483.986 642.252 480.598 643.867 477.677C644.626 477.496 645.095 477.398 645.878 477.278L646.55 477.18L646.927 476.118C646.181 474.501 646.199 474.925 644.266 473.844C642.877 462.976 651.505 445.287 658.647 437.794Z"/><defs><linearGradient id="gradient_4" gradientUnits="userSpaceOnUse" x1="671.79987" y1="432.41626" x2="670.03595" y2="448.51804"><stop offset="0" stop-color="#8B5039"/><stop offset="1" stop-color="#A06B54"/></linearGradient></defs><path fill="url(#gradient_4)" d="M658.647 437.794C670.341 423.153 677.117 436.489 680.989 448.497L680.065 449.96L679.249 449.8C678.431 448.109 678.138 447.334 676.794 446.042L676.498 445.486C676.565 442.887 673.533 438.966 671.392 437.537C667.739 435.101 665.451 435.441 661.405 436.164C660.32 437.085 659.981 437.299 658.647 437.794Z"/><path fill="#C3997C" d="M657.647 465.742C654.673 464.403 653.119 463.534 649.905 462.884L649.375 462.781L649.755 462.564C651.635 463.038 652.06 463.006 654.032 463.036C653.875 462.593 653.496 461.709 654.034 461.22C659.127 456.589 665.155 448.491 671.587 446.277C673.126 445.748 673.045 445.893 674.399 445.176L675.277 444.7L676.498 445.486L676.794 446.042C677.226 448.187 677.745 450.495 678.073 452.641L677.809 452.167C676.614 449.975 676.362 449.169 675.629 446.781L675.029 446.273C670.569 449.381 669.016 451.255 665.033 454.789C662.395 457.129 658.609 458.88 655.822 461.772C655.935 463.683 656.535 463.89 657.647 465.742Z"/><path fill="#B68367" d="M439.962 525.398C433.656 521.386 426.871 516.226 423.937 509.08C423.137 507.132 423.772 504.181 424.428 502.254C426.99 494.722 429.657 487.433 432.106 479.867C434.746 471.712 437.307 456.181 440.384 449.382C438.662 467.266 435.894 476.257 430.82 493.544L431.189 494.35C429.063 500.452 424.42 509.701 434.408 512.064C440.681 513.547 446.538 512.737 452.648 510.857L453.179 510.993C462.321 507.909 471.739 509.835 476.26 507.985L476.042 507.581C475.131 505.922 475.09 505.837 473.715 504.601C473.337 502.78 473.288 502.853 473.691 500.923L474.552 500.42C478.463 501.903 480.1 508.395 478.955 512.118C477.814 514.35 477.662 514.68 475.682 516.187C468.153 522.984 456.702 530.685 445.784 527.509C444.016 526.994 441.257 526.932 440.103 525.729L439.962 525.398Z"/><defs><linearGradient id="gradient_5" gradientUnits="userSpaceOnUse" x1="434.81924" y1="522.8681" x2="451.76895" y2="457.82761"><stop offset="0" stop-color="#8C5035"/><stop offset="1" stop-color="#A88465"/></linearGradient></defs><path fill="url(#gradient_5)" d="M439.962 525.398C433.656 521.386 426.871 516.226 423.937 509.08C423.137 507.132 423.772 504.181 424.428 502.254C426.99 494.722 429.657 487.433 432.106 479.867C434.746 471.712 437.307 456.181 440.384 449.382C438.662 467.266 435.894 476.257 430.82 493.544C428.809 496.617 427.613 501.68 426.714 505.255C431.614 519.11 437.068 521.655 450.601 525.681L450.151 527.172C446.758 526.898 442.435 525.32 439.962 525.398Z"/><path fill="#87624A" d="M477.369 510.627C478.582 511.294 478.222 510.963 478.955 512.118C477.814 514.35 477.662 514.68 475.682 516.187C473.151 516.309 470.566 516.233 467.92 516.42C464.101 516.69 455.742 518.842 452.507 517.941L452.87 517.278C458.062 514.513 459.631 513.551 465.468 512.79C467.4 513.455 471.206 514.352 473.26 514.894L477.369 510.627Z"/><path fill="#87624A" d="M450.601 525.681C452.094 525.943 453.286 525.876 454.273 526.698C453.088 527.389 451.504 527.335 450.151 527.172L450.601 525.681Z"/><path fill="#87624A" d="M523.215 546.411C523.732 546.456 524.973 546.8 525.54 546.939L525.652 547.903C523.198 551.176 519.152 552.846 515.388 554.162C501.207 559.119 443.468 561.436 427.915 559.124C424.067 558.552 420.959 557.301 417.476 555.641C416.377 554.404 415.028 553.153 415.454 551.426C417.86 550.877 419.509 553.135 421.083 554.707C430.436 556.88 445.041 556.686 454.91 557.159C460.21 557.413 469.82 556.192 475.47 555.853C489.892 554.987 511.844 556.129 523.215 546.411Z"/><path fill="#B68367" d="M441.954 576.603C445.7 576.336 470.931 578.155 473.741 579.701L473.737 580.486C471.983 581.452 469.322 581.409 467.234 581.557C461.557 582.89 457.396 583.033 451.509 581.989C449.462 581.626 441.834 578.762 440.946 577.309L441.954 576.603Z"/><defs><linearGradient id="gradient_6" gradientUnits="userSpaceOnUse" x1="673.39978" y1="456.94791" x2="685.5885" y2="467.39954"><stop offset="0" stop-color="#AD7A60"/><stop offset="1" stop-color="#C7A487"/></linearGradient></defs><path fill="url(#gradient_6)" d="M676.794 446.042C678.138 447.334 678.431 448.109 679.249 449.8L680.065 449.96L680.989 448.497C682.035 457.494 681.902 466.59 680.596 475.554C680.398 476.858 680.182 477.052 679.406 478.097C679.114 476.899 679.168 476.978 679.108 475.729L678.333 475.298C676.931 476.039 676.447 477.58 675.69 479.087L675.451 478.615C679.751 466.842 679.883 465.923 678.073 452.641C677.745 450.495 677.226 448.187 676.794 446.042Z"/><defs><linearGradient id="gradient_7" gradientUnits="userSpaceOnUse" x1="634.53552" y1="1020.5523" x2="411.59174" y2="707.09265"><stop offset="0" stop-color="#AF9D8C"/><stop offset="1" stop-color="#C2BAAB"/></linearGradient></defs><path fill="url(#gradient_7)" d="M388.308 561.657C390.682 565.936 395.803 572.744 398.778 576.875C405.189 585.804 411.649 594.699 418.156 603.559C426.304 614.796 434.095 631.107 448.245 634.432C469.825 639.503 493.692 639.879 513.177 627.873C526.156 619.879 540.097 611.478 552.539 602.935C566.487 593.358 586.337 581.976 597.573 570.251L599.52 571.155C595.912 575.179 591.392 579.787 587.076 583.057C587.075 602.559 586.647 623.14 589.019 642.451C594.746 657.929 603.362 666.233 617.6 674.751C621.371 677.006 626.097 678.925 629.653 681.379L633.681 679.683C641.194 683.556 646.348 684.9 649.51 692.549C654.208 696.238 660.605 697.997 666.023 700.827C673.405 703.644 702.098 713.197 706.096 718.173C716.739 722.923 738.039 740.873 745.558 750.805C748.823 755.118 751.98 762.317 753.897 767.381C758.693 780.239 762.04 793.592 763.877 807.193C767.061 828.792 764.459 851.949 767.162 874.535C770.237 900.255 775.179 926.675 775.704 952.638C775.763 955.545 776.122 963.795 775.867 966.304C776.053 978.129 776.146 989.956 776.147 1001.78C776.142 1008.01 775.82 1017.96 776.323 1024L773.47 1024L679.601 1024L672.126 1024L669.776 1024C664.551 998.679 658.681 973.749 654.848 948.101C654.063 942.847 654.066 934.909 652.14 930.227L651.701 930.479C650.756 933.147 650.272 935.414 649.688 938.155C644.809 961.089 639.004 983.579 636.487 1006.99C636.009 1011.44 635.299 1016.98 634.364 1021.31L634.236 1021.88L634.567 1024L390.049 1024L386.789 1024L327.268 1024L324.392 1024C328.023 1007.63 325.981 997.077 326.496 981.044C326.417 952.915 325.289 926.419 327.324 898.093C328.111 888.344 329.201 878.622 330.592 868.94C331.091 865.549 333.394 854.131 333.035 851.361C331.781 841.662 330.979 833.61 330.917 823.701C329.766 813.368 329.84 784.88 332.727 775.573C333.338 772.297 333.746 770.4 334.713 767.212C336.688 755.725 345.873 739.27 353.248 730.186C366.503 713.34 401.923 703.834 421.702 696.74C423.231 696.192 429.673 691.365 431.725 690.16C435.793 687.771 439.058 686.371 443.336 684.501C447.535 683.436 448.764 685.486 454.598 682.91C464.472 678.516 471.012 673.088 477.464 664.64C477.391 658.875 475.213 644.932 472.806 639.754C461.626 639.613 445.11 639.244 436.839 630.928C426.767 620.8 419.239 607.44 410.889 595.857C402.854 584.712 394.674 573.797 387.002 562.397L388.308 561.657Z"/><defs><linearGradient id="gradient_8" gradientUnits="userSpaceOnUse" x1="780.5224" y1="792.20563" x2="607.69598" y2="951.84106"><stop offset="0" stop-color="#CE9D7E"/><stop offset="1" stop-color="#CCB192"/></linearGradient></defs><path fill="url(#gradient_8)" d="M645.369 693.724C652.307 697.043 659.317 700.209 666.394 703.22L666.023 700.827C673.405 703.644 702.098 713.197 706.096 718.173C716.739 722.923 738.039 740.873 745.558 750.805C748.823 755.118 751.98 762.317 753.897 767.381C758.693 780.239 762.04 793.592 763.877 807.193C767.061 828.792 764.459 851.949 767.162 874.535C770.237 900.255 775.179 926.675 775.704 952.638C775.763 955.545 776.122 963.795 775.867 966.304C776.053 978.129 776.146 989.956 776.147 1001.78C776.142 1008.01 775.82 1017.96 776.323 1024L773.47 1024L679.601 1024L672.126 1024C668.025 1008.85 664.988 993.045 661.765 977.659C658.177 960.529 656.394 943.031 653.137 925.826C650.467 920.127 652.276 916.976 647.825 911.866C644.701 908.074 640.723 904.459 637.455 900.732C619.628 880.401 608.201 846.575 606.894 819.718C605.447 789.97 617.338 745.19 630.092 717.948L631.141 716.04C635.128 707.923 639.541 700.675 645.369 693.724Z"/><path fill="#B68367" d="M641.244 860.352C652.562 868.222 648.701 873.011 649.152 884.275C649.269 887.188 652.082 911.55 652.771 912.464L653.16 912.229L653.217 910.243C654.731 911.414 657.502 924.32 658.151 926.937C660.601 936.809 660.131 947.301 661.595 957.341C660.573 954.961 660.212 954.157 659.734 951.595C659.707 952.17 659.981 961.065 660.045 961.152C661.33 962.889 661.729 974.852 662.277 975.616C667.19 982.47 664.616 983.986 665.876 990.057C667.681 998.762 667.985 1007.55 671.83 1015.44C672.412 1016.53 671.41 1020.18 672.928 1022.21C675.186 1022.65 675.095 1022.66 677.371 1022.33L678.363 1021.63C678.599 1018.96 676.212 1016.5 676.959 1015.16L676.41 1014.36L676.446 1014.71L676.631 1014.44C678.234 1017.14 679.145 1020.89 679.601 1024L672.126 1024C668.025 1008.85 664.988 993.045 661.765 977.659C658.177 960.529 656.394 943.031 653.137 925.826C653.092 924.595 651.715 914.788 651.481 913.16C649.392 898.6 647.942 872.817 641.244 860.352Z"/><path fill="#6D4F3B" d="M702.537 717.776C703.789 718.16 704.3 718.353 705.609 718.531L706.096 718.173C716.739 722.923 738.039 740.873 745.558 750.805C748.823 755.118 751.98 762.317 753.897 767.381C758.693 780.239 762.04 793.592 763.877 807.193L763.038 807.372C763.133 809.775 763.716 818.668 763.448 820.353C763.164 817.446 763.13 812.826 761.456 810.792C760.164 802.741 758.695 794.72 757.048 786.734C755.433 779.174 751.212 763.891 747.366 757.133C738.963 742.364 716.57 726.869 702.537 717.776Z"/><path fill="#6D4F3B" d="M765.225 873.883L767.162 874.535C770.237 900.255 775.179 926.675 775.704 952.638C775.763 955.545 776.122 963.795 775.867 966.304C775.581 967.547 775.379 968.458 775.181 969.73L774.436 969.801C773.672 966.402 773.073 946.417 772.633 941.113C770.768 918.61 767.352 896.192 765.225 873.883Z"/><path fill="#764C33" d="M647.825 911.866C648.918 909.554 643.111 876.032 642.495 871.035C641.101 859.748 631.917 855.474 625.218 848.866C629.981 846.473 638.504 857.162 641.244 860.352C647.942 872.817 649.392 898.6 651.481 913.16C651.715 914.788 653.092 924.595 653.137 925.826C650.467 920.127 652.276 916.976 647.825 911.866Z"/><path fill="#764C33" d="M761.456 810.792C763.13 812.826 763.164 817.446 763.448 820.353C763.716 818.668 763.133 809.775 763.038 807.372L763.877 807.193C767.061 828.792 764.459 851.949 767.162 874.535L765.225 873.883C764.564 868.959 764.041 865.868 762.855 861.058C762.57 858.459 762.249 855.865 761.892 853.275C763.712 837.264 763.082 826.666 761.456 810.792Z"/><path fill="#764C33" d="M774.436 969.801L775.181 969.73C775.379 968.458 775.581 967.547 775.867 966.304C776.053 978.129 776.146 989.956 776.147 1001.78C776.142 1008.01 775.82 1017.96 776.323 1024L773.47 1024C773.266 1006.55 774.439 987.699 774.436 969.801Z"/><path fill="#B68367" d="M631.141 716.04L632.082 715.92C638.737 715.023 655.408 709.654 661.384 710.746L661.91 711.271C658.882 715.853 635.806 718.184 630.092 717.948L631.141 716.04Z"/><path fill="#4D3324" d="M666.023 700.827C673.405 703.644 702.098 713.197 706.096 718.173L705.609 718.531C704.3 718.353 703.789 718.16 702.537 717.776C699.207 716.161 695.859 714.555 692.486 713.03C683.892 709.145 675.002 707.207 666.394 703.22L666.023 700.827Z"/><defs><linearGradient id="gradient_9" gradientUnits="userSpaceOnUse" x1="764.79889" y1="860.42279" x2="752.70111" y2="874.07721"><stop offset="0" stop-color="#855942"/><stop offset="1" stop-color="#A97055"/></linearGradient></defs><path fill="url(#gradient_9)" d="M762.855 861.058C760.607 865.393 758.244 877.093 754.948 879.384C754.444 876.436 760.603 859.052 761.704 854.132L761.892 853.275C762.249 855.865 762.57 858.459 762.855 861.058Z"/><defs><linearGradient id="gradient_10" gradientUnits="userSpaceOnUse" x1="486.64069" y1="613.37585" x2="542.99536" y2="818.18915"><stop offset="0" stop-color="#BB8C6D"/><stop offset="1" stop-color="#D6BC9C"/></linearGradient></defs><path fill="url(#gradient_10)" d="M388.308 561.657C390.682 565.936 395.803 572.744 398.778 576.875C405.189 585.804 411.649 594.699 418.156 603.559C426.304 614.796 434.095 631.107 448.245 634.432C469.825 639.503 493.692 639.879 513.177 627.873C526.156 619.879 540.097 611.478 552.539 602.935C566.487 593.358 586.337 581.976 597.573 570.251L599.52 571.155C595.912 575.179 591.392 579.787 587.076 583.057C587.075 602.559 586.647 623.14 589.019 642.451C594.746 657.929 603.362 666.233 617.6 674.751C621.371 677.006 626.097 678.925 629.653 681.379L633.681 679.683C641.194 683.556 646.348 684.9 649.51 692.549C654.208 696.238 660.605 697.997 666.023 700.827L666.394 703.22C659.317 700.209 652.307 697.043 645.369 693.724L644.911 691.474C645.549 690.357 645.502 690.938 645.234 689.72C642.462 686.772 636.701 684.195 632.706 683.291C632.005 683.132 631.932 683.523 631.237 684.21L628.048 684.263C624.024 688.717 613.665 703.958 611.655 709.727C609.552 713.57 606.984 718.001 605.163 721.925L603.788 724.827C595.268 744.882 587.927 765.417 581.8 786.327C579.688 792.16 578.249 799.05 576.152 804.349C563.07 816.149 534.713 821.751 517.408 823.63C518.863 824.727 520.067 824.986 521.276 825.933C503.502 828.991 471.21 828.656 454.42 822.134C442.383 817.458 418.138 805.73 412.401 793.318C413.037 779.031 416.524 754.861 420.601 741.346C421.031 728.999 436 699.02 443.703 688.045L444.192 687.357L443.832 686.96L443.336 684.501C447.535 683.436 448.764 685.486 454.598 682.91C464.472 678.516 471.012 673.088 477.464 664.64C477.391 658.875 475.213 644.932 472.806 639.754C461.626 639.613 445.11 639.244 436.839 630.928C426.767 620.8 419.239 607.44 410.889 595.857C402.854 584.712 394.674 573.797 387.002 562.397L388.308 561.657Z"/><defs><linearGradient id="gradient_11" gradientUnits="userSpaceOnUse" x1="506.96045" y1="594.52936" x2="541.68317" y2="656.57922"><stop offset="0" stop-color="#5A2513"/><stop offset="1" stop-color="#7B583E"/></linearGradient></defs><path fill="url(#gradient_11)" d="M388.308 561.657C390.682 565.936 395.803 572.744 398.778 576.875C405.189 585.804 411.649 594.699 418.156 603.559C426.304 614.796 434.095 631.107 448.245 634.432C469.825 639.503 493.692 639.879 513.177 627.873C526.156 619.879 540.097 611.478 552.539 602.935C566.487 593.358 586.337 581.976 597.573 570.251L599.52 571.155C595.912 575.179 591.392 579.787 587.076 583.057C587.075 602.559 586.647 623.14 589.019 642.451L588.252 644.296C583.707 626.673 583.292 603.231 584.531 585.171C558.114 601.96 530.627 622.561 502.207 635.862C496.36 638.598 483.293 640.541 476.802 640.726C477.986 652.998 482.991 667.357 482.398 679.68C481.391 680.827 481.751 681.272 481.134 682.389C480.725 677.755 480.171 672.026 479.007 667.519C472.955 675.418 464.539 680.749 455.494 684.726C455.219 683.482 455.406 683.922 454.598 682.91C464.472 678.516 471.012 673.088 477.464 664.64C477.391 658.875 475.213 644.932 472.806 639.754C461.626 639.613 445.11 639.244 436.839 630.928C426.767 620.8 419.239 607.44 410.889 595.857C402.854 584.712 394.674 573.797 387.002 562.397L388.308 561.657Z"/><path fill="#87624A" d="M412.401 793.318C413.037 779.031 416.524 754.861 420.601 741.346C421.269 743.93 419.529 747.07 419.535 750.731C420.786 747.464 420.896 743.689 422.596 741.81C419.774 757.573 414.517 778.057 415.538 794.07C429.109 811.378 456.163 822.19 477.422 824.484C490.037 825.845 504.771 824.682 517.408 823.63C518.863 824.727 520.067 824.986 521.276 825.933C503.502 828.991 471.21 828.656 454.42 822.134C442.383 817.458 418.138 805.73 412.401 793.318Z"/><defs><linearGradient id="gradient_12" gradientUnits="userSpaceOnUse" x1="555.71173" y1="723.18402" x2="555.78821" y2="741.8078"><stop offset="0" stop-color="#A47152"/><stop offset="1" stop-color="#B28A71"/></linearGradient></defs><path fill="url(#gradient_12)" d="M605.163 721.925L603.788 724.827C589.218 726.555 574.38 728.85 560.234 730.861C544.255 733.133 527.317 729.351 514.349 740.188C512.354 741.855 508.83 743.392 506.397 744.507C508.856 740.548 517.173 733.017 521.734 732.129C539.201 728.729 558.142 728.423 575.862 726.351C585.842 725.184 595.356 723.188 605.163 721.925Z"/><path fill="#6D4F3B" d="M588.252 644.296L589.019 642.451C594.746 657.929 603.362 666.233 617.6 674.751C621.371 677.006 626.097 678.925 629.653 681.379L633.681 679.683C641.194 683.556 646.348 684.9 649.51 692.549C654.208 696.238 660.605 697.997 666.023 700.827L666.394 703.22C659.317 700.209 652.307 697.043 645.369 693.724L644.911 691.474C645.549 690.357 645.502 690.938 645.234 689.72C642.462 686.772 636.701 684.195 632.706 683.291C632.005 683.132 631.932 683.523 631.237 684.21L628.048 684.263C626.686 683.014 620.093 679.242 617.976 677.8C602.974 667.58 594.138 661.49 588.252 644.296Z"/><path fill="#6D4F3B" d="M454.598 682.91C455.406 683.922 455.219 683.482 455.494 684.726C453.54 685.606 448.53 687.823 447.058 688.96C440.021 694.394 434.048 708.638 430.87 716.944C430.52 717.859 430.188 718.781 429.875 719.709L428.97 721.189C426.624 728.208 424.819 734.964 422.596 741.81C420.896 743.689 420.786 747.464 419.535 750.731C419.529 747.07 421.269 743.93 420.601 741.346C421.031 728.999 436 699.02 443.703 688.045L444.192 687.357L443.832 686.96L443.336 684.501C447.535 683.436 448.764 685.486 454.598 682.91Z"/><path fill="#B68367" d="M429.875 719.709C432.875 720.224 436.676 720.923 439.52 721.921C458.023 728.416 472.279 723.594 480.183 744.627C477.846 742.369 469.942 733.252 467.804 732.278C455.507 726.676 441.942 726.173 428.97 721.189L429.875 719.709Z"/><path fill="#B68367" d="M481.134 682.389C481.751 681.272 481.391 680.827 482.398 679.68C482.697 682.649 482.805 684.369 481.681 687.118L481.231 687.268C480.764 685.263 480.957 684.487 481.134 682.389Z"/><path fill="#C3997C" d="M482.739 778.238C483.247 778.568 483.681 779.038 484.138 779.466C484.368 781.178 474.932 818.48 473.518 820.697C471.603 819.572 471.772 820.071 471.049 818.411C472.505 811.894 478.762 782.646 482.739 778.238Z"/><path fill="#CCAB8B" d="M517.439 719.967L518.088 720.811C517.821 722.478 516.614 723.38 515.395 724.662C515.134 724.413 515.009 724.052 514.833 723.737C515.764 722.039 516.216 721.499 517.439 719.967Z"/><path fill="#CCAB8B" d="M353.248 730.186C366.503 713.34 401.923 703.834 421.702 696.74C423.231 696.192 429.673 691.365 431.725 690.16C435.793 687.771 439.058 686.371 443.336 684.501L443.832 686.96C426.472 692.999 425.521 697.638 417.36 713.446C413.614 720.701 410.76 728.61 407.852 736.278C405.824 741.626 403.974 749.055 401.927 754.105L400.026 753.989C395.811 767.875 391.345 785.046 386.406 798.131C384.864 803.314 382.401 810.111 380.358 815.125C374.53 835.192 370.409 845.101 366.628 866.583C364.237 888.432 376.185 920.402 381.201 942.164C384.634 957.059 385.755 968.45 387.267 983.6C388.929 1000.25 389.249 1007.13 386.789 1024L327.268 1024L324.392 1024C328.023 1007.63 325.981 997.077 326.496 981.044C326.417 952.915 325.289 926.419 327.324 898.093C328.111 888.344 329.201 878.622 330.592 868.94C331.091 865.549 333.394 854.131 333.035 851.361C331.781 841.662 330.979 833.61 330.917 823.701C329.766 813.368 329.84 784.88 332.727 775.573C333.338 772.297 333.746 770.4 334.713 767.212C336.688 755.725 345.873 739.27 353.248 730.186Z"/><path fill="#6D4F3B" d="M353.248 730.186C366.503 713.34 401.923 703.834 421.702 696.74C423.231 696.192 429.673 691.365 431.725 690.16C435.793 687.771 439.058 686.371 443.336 684.501L443.832 686.96C426.472 692.999 425.521 697.638 417.36 713.446C413.614 720.701 410.76 728.61 407.852 736.278C405.824 741.626 403.974 749.055 401.927 754.105L400.026 753.989C403.139 743.272 408.571 727.586 412.863 717.356L414.138 714.758C409.227 711.603 402.292 711.25 397.549 708.721C395.94 709.4 393.735 710.417 392.102 710.871C381.653 713.35 363.103 722.272 356.185 730.318L353.248 730.186Z"/><path fill="#C3997C" d="M397.549 708.721C405.488 705.046 413.956 702.911 422.22 699.269C418.991 704.72 416.764 708.895 414.138 714.758C409.227 711.603 402.292 711.25 397.549 708.721Z"/><defs><linearGradient id="gradient_13" gradientUnits="userSpaceOnUse" x1="348.68155" y1="754.80157" x2="339.31845" y2="744.19843"><stop offset="0" stop-color="#563C2C"/><stop offset="1" stop-color="#7A5437"/></linearGradient></defs><path fill="url(#gradient_13)" d="M353.248 730.186L356.185 730.318C349.097 738.799 339.96 755.793 337.154 766.489C336.466 766.675 335.321 766.936 334.713 767.212C336.688 755.725 345.873 739.27 353.248 730.186Z"/><path fill="#4D3324" d="M326.496 981.044C329.66 986.265 328.502 1016.96 327.268 1024L324.392 1024C328.023 1007.63 325.981 997.077 326.496 981.044Z"/><path fill="#6D4F3B" d="M337.154 766.489L336.062 770.327C333.498 782.076 331.96 792.04 331.169 804.154C330.774 810.199 331.399 818.123 330.917 823.701C329.766 813.368 329.84 784.88 332.727 775.573C333.338 772.297 333.746 770.4 334.713 767.212C335.321 766.936 336.466 766.675 337.154 766.489Z"/><path fill="#764C33" d="M337.154 766.489L336.062 770.327C334.107 772.886 334.552 774.415 332.727 775.573C333.338 772.297 333.746 770.4 334.713 767.212C335.321 766.936 336.466 766.675 337.154 766.489Z"/><path fill="#B68367" d="M380.358 815.125C380.216 809.578 381.74 794.215 383.728 789.082C384.426 791.987 385.075 795.539 386.406 798.131C384.864 803.314 382.401 810.111 380.358 815.125Z"/><path fill="#B68367" d="M392.102 710.871C393.735 710.417 395.94 709.4 397.549 708.721C402.292 711.25 409.227 711.603 414.138 714.758L412.863 717.356C410.89 716.138 395.091 711.738 392.102 710.871Z"/><defs><linearGradient id="gradient_14" gradientUnits="userSpaceOnUse" x1="672.98114" y1="815.55103" x2="604.31696" y2="802.73938"><stop offset="0" stop-color="#613A24"/><stop offset="1" stop-color="#735846"/></linearGradient></defs><path fill="url(#gradient_14)" d="M648.856 915.096C639.82 907.174 632.379 899.404 626.154 889.014C610.751 863.503 602.081 832.314 604.7 802.437C606.424 782.772 612.717 759.119 618.611 740.259C621.721 730.309 636.461 696.492 644.911 691.474L645.369 693.724C639.541 700.675 635.128 707.923 631.141 716.04L630.092 717.948C617.338 745.19 605.447 789.97 606.894 819.718C608.201 846.575 619.628 880.401 637.455 900.732C640.723 904.459 644.701 908.074 647.825 911.866C652.276 916.976 650.467 920.127 653.137 925.826C656.394 943.031 658.177 960.529 661.765 977.659C664.988 993.045 668.025 1008.85 672.126 1024L669.776 1024C664.551 998.679 658.681 973.749 654.848 948.101C654.063 942.847 654.066 934.909 652.14 930.227L651.701 930.479C650.756 933.147 650.272 935.414 649.688 938.155C644.809 961.089 639.004 983.579 636.487 1006.99C636.009 1011.44 635.299 1016.98 634.364 1021.31L634.236 1021.88C632.747 1012.36 638.324 987.021 640.181 976.763C641.369 968.899 643.074 961.172 644.593 953.391C646.928 941.426 652.957 927.091 648.856 915.096Z"/><path fill="#6D4F3B" d="M366.628 866.583L368.457 867.669C368.504 894.107 381.714 926.187 386.687 952.442C388.508 962.053 389.381 971.225 390.216 980.944C392.294 996.587 392.329 1008.38 390.049 1024L386.789 1024C389.249 1007.13 388.929 1000.25 387.267 983.6C385.755 968.45 384.634 957.059 381.201 942.164C376.185 920.402 364.237 888.432 366.628 866.583Z"/><path fill="#4D3324" d="M400.026 753.989L401.927 754.105C397.963 765.804 393.903 780.622 390.282 792.477C385.031 809.673 369.074 850.69 368.457 867.669L366.628 866.583C370.409 845.101 374.53 835.192 380.358 815.125C382.401 810.111 384.864 803.314 386.406 798.131C391.345 785.046 395.811 767.875 400.026 753.989Z"/><path fill="#87624A" d="M581.8 786.327C582.939 785.886 583.186 785.649 584.252 784.992C583.244 788.525 579.57 804.273 577.82 805.851C563.961 818.343 539.328 823.495 521.276 825.933C520.067 824.986 518.863 824.727 517.408 823.63C534.713 821.751 563.07 816.149 576.152 804.349C578.249 799.05 579.688 792.16 581.8 786.327Z"/><path fill="#4D3324" d="M611.655 709.727L612.907 710.357C602.004 729.81 590.451 763.3 584.252 784.992C583.186 785.649 582.939 785.886 581.8 786.327C587.927 765.417 595.268 744.882 603.788 724.827L605.163 721.925C606.984 718.001 609.552 713.57 611.655 709.727Z"/><path fill="#6D4F3B" d="M628.048 684.263L631.237 684.21C623.751 693.807 619.47 700.186 612.907 710.357L611.655 709.727C613.665 703.958 624.024 688.717 628.048 684.263Z"/></svg>