<svg width="1024" height="1024" viewBox="0 0 1024 1024" fill="none" xmlns="http://www.w3.org/2000/svg">
<g clip-path="url(#clip0_3_249)">
<path d="M587.355 642.063C597.771 641.705 598.037 642.83 606.662 648.91C615.599 651.744 624.257 656.786 633.044 660.238C649.894 666.857 667.245 672.387 683.487 680.433C685.448 681.41 687.838 685.117 688.822 687.039C689.392 688.171 689.939 689.315 690.461 690.47C722.2 708.697 731.992 705.661 741.853 745.28C745.137 758.477 749.193 771.794 751.5 786.01C755.298 805.318 755.933 816.388 757.673 835.466C758.013 837.948 758.424 841.689 758.935 844.029C762.304 855.704 763.37 867.559 765.44 879.458C770.839 910.496 777.174 941.283 779.497 972.754C779.942 978.779 785.778 982.032 786.191 988.027C786.59 992.737 784.264 998.608 782.709 1003.01C785.349 1011.24 786.251 1015.43 787.451 1024H784.191H733.799H715.078H674.344H623.476H620.762H509.043H507.054H471.693H469.61H463.125H461.49H456.103H455.169H427.525H425.155H354.616C354.477 1020.36 354.129 1015.35 354.478 1011.83C353.955 998.437 356.795 984.681 356.38 971.269C356.348 970.237 355.302 968.834 354.683 968.008L354.074 967.254C352.485 959.839 354.065 950.586 357.258 943.718C358.135 941.832 358.157 942.31 358.349 940.124C356.554 930.353 356.907 910.097 356.933 899.671C356.122 894.426 356.531 876.707 356.893 871.153C356.983 861.253 359.577 850.898 361.66 841.172C362.353 837.638 363.434 832.386 364.791 829.146C368.376 812.139 372.918 798.371 376.215 780.174C378.375 767.925 380.405 755.654 382.305 743.362C383.104 738.388 384.525 728.276 385.866 723.635C386.246 718.46 389.43 705.224 390.681 699.591L390.713 699.359C389.762 698.608 389.754 698.486 389.052 697.473C391.025 695.183 392.96 689.493 396.23 687.493C401.581 684.219 409.041 681.968 414.882 679.361C431.362 672.008 447.814 664.266 464.684 657.874L467.974 656.133C470.724 654.317 473.734 653.3 476.891 652.399C476.92 654.31 476.863 658.237 477.071 659.978C477.097 661.468 476.994 663.257 477.419 664.609C476.982 666.494 472.971 671.65 471.567 673.908C471.235 696.793 485.081 705.589 505.759 707.479C509.824 706.804 514.952 707.08 519.419 706.027C538.838 701.452 558.623 688.104 573.872 675.432C574.878 673.907 579.792 668.448 581.271 666.647C585.261 661.785 588.593 657.227 592.278 652.118C590.554 648.733 588.929 645.518 587.355 642.063Z" fill="#2E2E2E"/>
<path d="M662.548 893.263C661.196 891.973 659.599 890.054 658.404 888.643C650.922 879.908 645.63 870.055 642.832 859.649C636.452 836.179 642.14 797.314 647.25 773.667C651.728 752.945 667.763 700.844 688.774 689C698.52 691.98 707.431 696.465 716.576 700.456C723.109 703.306 729.795 705.846 736.021 709.157C742.043 712.359 747.135 716.301 750.834 721.356C759.645 733.395 769.482 770.78 773.6 786.485L776.907 786.121C781.565 805.42 782.344 816.485 784.478 835.554C784.895 838.035 785.399 841.774 786.026 844.113C790.158 855.782 791.465 867.632 794.004 879.525C800.626 910.549 808.395 941.322 811.245 972.778C811.79 978.8 818.948 982.052 819.455 988.044C819.944 992.752 817.091 998.62 815.184 1003.02C818.422 1011.25 819.528 1015.43 821 1024H817.002H755.197H732.236H682.276C683.624 1014.54 686.674 1006.35 686.176 996.81C685.769 988.987 676.086 984.782 675.433 978.648C674.457 969.465 674.744 959.504 674.098 950.151C672.753 933.443 670.574 916.786 667.563 900.223C666.361 897.338 664.695 895.682 662.548 893.263Z" fill="white"/>
<path d="M652.348 846.481C649.376 834.961 646.843 828.331 644.621 816.096C654.761 834.194 656.899 855.528 659.99 875.747C661.141 883.276 662.767 892.684 662.348 900.165C661.368 897.279 660.01 895.622 658.259 893.202C659.066 887.226 654.866 860.522 652.096 854.168C649.515 848.248 646.053 845.621 644.041 836.799C647.441 840.005 649.516 842.825 652.348 846.481Z" fill="url(#paint0_linear_3_249)"/>
<path d="M716.884 1022.19C734.253 1022.64 740.321 1019.53 756.291 1013.23C747.072 1021.53 743.503 1019.8 733.799 1024H715.078L715.201 1023.58C715.856 1023.61 716.866 1023.52 717.552 1023.48L717.926 1022.93L716.884 1022.19Z" fill="#9E9C9D"/>
<path d="M704.463 1018.8C708.545 1020.29 712.521 1021.84 716.884 1022.19L717.926 1022.93L717.552 1023.48C716.866 1023.52 715.856 1023.61 715.201 1023.58C711.098 1022.3 708.342 1021.31 704.382 1019.64L704.463 1018.8Z" fill="#7B797B"/>
<path d="M704.382 1019.64C701.036 1018.04 695.25 1015.37 692.403 1013.17C696.232 1014.6 700.965 1016.7 704.463 1018.8L704.382 1019.64Z" fill="#9E9C9D"/>
<path d="M682.142 991.091C690.445 993.436 700.037 998.938 708.923 1001.22C719.735 1004 730.056 1004.2 740.758 1007.14L741.079 1007.74C723.955 1009.11 703.497 1004.2 688.326 996.199C686.156 995.054 682.897 993.448 682.142 991.091Z" fill="#9E9C9D"/>
<path d="M468.955 672.162L469.758 672.903L471.567 673.908C471.235 696.793 485.081 705.589 505.759 707.479C509.824 706.804 514.952 707.08 519.419 706.027C538.838 701.452 558.623 688.104 573.872 675.432C573.212 678.19 571.887 683.157 568.871 684.17C566.514 687.159 564.186 690.17 561.888 693.205C559.436 696.412 548.544 710.292 547.161 712.862L546.481 713.637C538.758 724.271 525.955 740.422 519.299 751.058C515.678 755.665 505.601 768.698 503.047 773.384C498.957 776.711 479.189 804.217 475.356 809.723C473.664 799.06 469.593 786.992 468.009 776.017C464.638 752.666 464.603 724.854 466.081 701.481C466.05 698.661 466.032 697.342 466.452 694.479C466.778 690.001 467.411 675.246 468.955 672.162Z" fill="white"/>
<path d="M505.759 707.479C509.824 706.804 514.952 707.08 519.419 706.027C538.838 701.452 558.623 688.104 573.872 675.432C573.212 678.19 571.887 683.157 568.871 684.17C564.376 685.471 560.947 689.399 557.02 691.906C543.497 700.54 518.59 712.808 502.118 709.548C501.001 709.014 500.307 708.935 499.759 708.063C502.391 708.247 503.261 708.478 505.759 707.479Z" fill="url(#paint1_linear_3_249)"/>
<path d="M469.758 672.903L471.567 673.908C471.235 696.793 485.081 705.589 505.759 707.479C503.261 708.478 502.391 708.247 499.759 708.063C500.307 708.935 501.001 709.014 502.118 709.548C501.109 709.495 500.101 709.412 499.097 709.3C479.695 707.166 467.707 692.272 469.758 672.903Z" fill="url(#paint2_linear_3_249)"/>
<path d="M466.452 694.479C466.425 709.948 483.495 715.12 495.126 721.005C482.844 718.776 475.42 715.193 468.023 704.413C467.36 703.446 466.713 702.469 466.081 701.481C466.05 698.661 466.032 697.342 466.452 694.479Z" fill="#9E9C9D"/>
<path d="M508.864 721.048C516.562 720.131 525.099 718.735 532.646 717.039C537.325 715.987 542.105 714.089 546.764 712.956L547.161 712.862L546.481 713.637C538.594 716.31 516.955 723.333 508.864 721.048Z" fill="#7B797B"/>
<path d="M509.043 1024C509.077 1017.63 509.886 959.691 510.679 958.853L510.622 957.754C511.685 962.28 511.356 974.255 516.128 976.021C536.422 983.53 559.504 998.43 581.61 991.153C595.292 986.649 608.49 983.406 621.979 979.963L620.762 1024H509.043Z" fill="#2E2E2E"/>
<path d="M616.243 981.92L616.589 982.263C617.435 984.513 616.453 994.04 616.233 997.044L615.939 996.735C614.878 993.19 615.869 985.888 616.243 981.92Z" fill="#151516"/>
<path d="M615.179 1002.41C616.702 1003.85 615.564 1013.68 615.384 1016.19C613.831 1012.64 614.824 1006.49 615.179 1002.41Z" fill="#151516"/>
<path d="M515.186 979.858C516.131 983.732 515.644 988.323 514.727 992.172C513.825 989.013 514.41 983.047 515.186 979.858Z" fill="#010101"/>
<path d="M423.017 971.615C423.667 966.257 424.38 957.798 426.394 953.051L426.91 952.983C428.057 957.677 426.683 975.797 426.443 981.718C425.867 995.942 424.904 1009.64 425.155 1024H354.616C354.477 1020.36 354.129 1015.35 354.478 1011.83C354.883 1010.47 354.869 1009.44 355.134 1008.4C358.1 996.687 358.292 984.694 359.494 972.645C364.373 975.529 374.711 982.946 379.549 983.064C391.962 983.367 411.853 975.299 423.017 971.615Z" fill="#2E2E2E"/>
<path d="M420.663 975.353C421.3 978.042 421.285 983.484 420.337 986.145C419.64 983.158 419.803 978.329 420.663 975.353Z" fill="#151516"/>
<path d="M358.349 940.124C358.821 942.589 358.387 942.605 359.854 943.934C366.77 945.519 373.546 945.265 380.496 945.863C395.75 947.175 412.304 946.756 427.404 948.172C422.313 956.918 422.496 960.097 421.038 970.04C407.581 974.771 394.519 978.212 380.763 981.928C377.198 979.96 357.562 967.286 354.987 967.881C354.88 967.905 354.784 967.965 354.683 968.008L354.074 967.254C352.485 959.839 354.065 950.586 357.258 943.718C358.135 941.832 358.157 942.31 358.349 940.124Z" fill="#2E2E2E"/>
<path d="M378.876 963.743C381.713 962.943 384.661 964.597 385.456 967.435C386.251 970.274 384.591 973.219 381.751 974.008C378.919 974.795 375.985 973.141 375.192 970.31C374.399 967.48 376.047 964.542 378.876 963.743Z" fill="#010101"/>
<path d="M379.042 965.215C381.51 965.767 382.087 965.801 383.063 968.21C382.917 970.312 382.741 970.418 381.526 972.238C379.233 972.095 378.85 972.045 377.656 970.245C377.534 968.023 378.082 967.325 379.042 965.215Z" fill="#2E2E2E"/>
<path d="M509.154 948.672C521.15 947.167 532.998 948.634 544.972 948.892C561.813 949.255 578.669 949.338 595.516 949.717C604.479 949.918 613.877 951.434 622.645 951.57C628.19 962.422 624.228 972.524 624.184 983.718C624.131 997.11 623.476 1010.65 623.476 1024H620.762L621.979 979.963C608.49 983.406 595.292 986.649 581.61 991.153C559.504 998.43 536.422 983.53 516.128 976.021C511.356 974.255 511.685 962.28 510.622 957.754L510.679 958.853C509.886 959.691 509.077 1017.63 509.043 1024H507.054C507.105 1008.02 507.414 992.035 507.982 976.062C508.219 968.247 508.196 956.507 509.588 949.197C514.263 956.808 513.775 963.417 514.069 972.27C523.36 978.454 554.01 988.366 565.835 990.402C568.393 990.843 572.903 990.418 575.554 989.801C582.925 988.088 590.547 985.837 597.838 983.726C606.051 981.348 615.028 979.245 622.895 976.005C623.502 967.453 623.414 961.683 622.917 953.018C609.531 952.656 595.808 951.603 582.53 951.489L548.151 951.044C537.455 950.94 519.344 950.808 509.154 948.672Z" fill="#010101"/>
<path d="M356.933 899.671C357.118 896.756 357.282 893.84 357.426 890.923C357.582 893.734 357.758 896.403 357.733 899.224L358.525 899.006L358.615 894.59C359.883 898.91 359.395 918.611 359.527 924.042C359.658 929.428 359.971 936.621 360.153 942.155L360.822 942.304C373.562 945.034 420.999 943.193 427.293 947.839C430.785 953.818 428.871 972.858 428.603 980.552C428.128 995.031 427.769 1009.51 427.525 1024H425.155C424.904 1009.64 425.867 995.942 426.443 981.718C426.683 975.797 428.057 957.677 426.91 952.983L426.394 953.051C424.38 957.798 423.667 966.257 423.017 971.615C411.853 975.299 391.962 983.367 379.549 983.064C374.711 982.946 364.373 975.529 359.494 972.645C358.292 984.694 358.1 996.687 355.134 1008.4C354.869 1009.44 354.883 1010.47 354.478 1011.83C353.955 998.437 356.795 984.681 356.38 971.269C356.348 970.237 355.302 968.834 354.683 968.008C354.784 967.965 354.88 967.905 354.987 967.881C357.562 967.286 377.198 979.96 380.763 981.928C394.519 978.212 407.581 974.771 421.038 970.04C422.496 960.097 422.313 956.918 427.404 948.172C412.304 946.756 395.75 947.175 380.496 945.863C373.546 945.265 366.77 945.519 359.854 943.934C358.387 942.605 358.821 942.589 358.349 940.124C356.554 930.353 356.907 910.097 356.933 899.671Z" fill="#010101"/>
<path d="M553.311 722.44C551.193 727.969 547.204 733.494 543.725 738.279C525.969 762.594 508.47 786.441 489.432 809.809C476.044 826.242 478.753 856.952 476.724 877.001C474.686 897.144 474.256 916.104 474.312 936.297C474.339 945.752 469.254 956.97 469.497 966.735C470.307 986.146 471.946 1004.48 471.693 1024H469.61C470.507 1005.36 468.412 989.489 467.479 971.005C466.952 960.578 472.334 946.744 472.469 936.554C472.709 918.425 473.063 901.633 474.791 883.491C476.848 861.891 474.777 838.069 482.698 817.383C483.898 814.263 492.909 802.853 495.171 799.949C502.034 791.247 508.854 782.51 515.63 773.738C528.319 757.101 540.725 738.751 553.311 722.44Z" fill="#010101"/>
<path d="M455.169 1024C453.691 1014.33 452.309 1004.13 453.162 994.396C454.438 979.827 455.961 965.684 455.64 951.001C455.528 945.864 456.574 940.147 456.455 934.937C456.422 926.729 455.613 918.626 456.226 910.363C457.273 896.236 459.46 882.088 461.222 868.038C462.317 859.302 462.531 850.567 463.689 841.814L464.251 841.389L464.817 841.81C465.675 861.464 459.726 884.831 457.919 904.654C456.487 912.756 459.5 924.996 458.389 932.574C456.768 943.633 458.754 957.11 457.268 967.467C454.311 988.087 455.239 1003.65 456.103 1024H455.169Z" fill="#010101"/>
<path d="M464.684 657.874L467.974 656.133C468.365 657.535 468.614 657.315 467.815 658.615C465.37 662.587 462.46 665.783 460.876 670.293C457.909 678.734 458.105 687.53 457.012 696.092C453.489 723.694 453.627 751.111 458.695 778.641C459.9 785.357 461.356 792.026 463.061 798.632C464.966 805.978 469.217 816.314 465.309 823.059C464.944 821.215 465.385 822.307 465.411 821.257C465.689 810.317 459.42 795.927 457.644 784.695C453.066 755.749 451.489 732.302 454.872 703.237C456.888 685.918 456.547 674.415 464.684 657.874Z" fill="#010101"/>
<path d="M587.355 642.063C597.771 641.705 598.037 642.83 606.662 648.91C606.518 650.908 606.863 651.203 605.82 652.417C601.595 652.066 597.702 642.919 591.91 643.335C591.893 645.368 595.889 650.791 594.529 653.072C590.873 659.204 567.948 692.656 562.937 694.655L562.18 694.336L561.888 693.205C564.186 690.17 566.514 687.159 568.871 684.17C571.887 683.157 573.212 678.19 573.872 675.432C574.878 673.907 579.792 668.448 581.271 666.647C585.261 661.785 588.593 657.227 592.278 652.118C590.554 648.733 588.929 645.518 587.355 642.063Z" fill="#010101"/>
<path d="M385.866 723.635C388.274 727.248 378.874 777.592 377.436 785.271C376.318 791.235 371.693 815.872 368.802 819.707L368.864 819.433C366.779 822.989 366.559 823.61 366.03 827.931L364.791 829.146C368.376 812.139 372.918 798.371 376.215 780.174C378.375 767.925 380.405 755.654 382.305 743.362C383.104 738.388 384.525 728.276 385.866 723.635Z" fill="#010101"/>
<path d="M461.49 1024C461 1015.66 460.095 1004.7 460.542 996.612C461.031 987.747 462.111 978.843 462.623 969.814C463.221 959.277 463.418 946.701 464.854 936.49C466.422 938.564 462.573 992.984 462.499 999.317C462.43 1005.25 463.264 1018.1 463.125 1024H461.49Z" fill="#010101"/>
<path d="M362.551 851.232C363.72 848.342 369.252 832.045 370.108 831.056L370.694 831.374C371.103 835.79 361.137 856.822 360.099 862.903C359.835 864.447 358.431 868.482 357.889 870.179L357.852 868.832C357.475 869.676 357.174 870.272 356.893 871.153C356.983 861.253 359.577 850.898 361.66 841.172L362.648 840.392C363.66 841.991 362.623 848.778 362.551 851.232Z" fill="#010101"/>
<path d="M519.299 751.058C519.678 751.882 520.371 753.024 519.782 753.946C517.314 757.809 507.908 775.354 503.047 773.384C505.601 768.698 515.678 755.665 519.299 751.058Z" fill="url(#paint3_linear_3_249)"/>
<path d="M468.986 671.888C469.263 671.453 469.436 670.446 469.729 670.1C471.176 668.391 475.491 665.284 477.419 664.609C476.982 666.494 472.971 671.65 471.567 673.908L469.758 672.903L468.955 672.162L468.986 671.888Z" fill="url(#paint4_linear_3_249)"/>
<path d="M477.071 659.978C477.097 661.468 476.994 663.257 477.419 664.609C475.491 665.284 471.176 668.391 469.729 670.1C469.436 670.446 469.263 671.453 468.986 671.888C468.98 663.578 475.348 666.853 477.071 659.978Z" fill="white"/>
<path d="M397.394 711.416C398.727 716.278 382.655 790.706 380.453 800.491C390.873 800.558 434.535 798.716 441.43 802.741C446.577 809.597 439.047 852.987 438.001 863.012C437.354 869.221 435.804 879.652 431.88 884.586C433.826 877.939 434.744 873.72 435.868 866.997C437.145 860.177 443.654 812.458 441.22 809.798C440.026 811.575 438.728 817.034 438.029 819.45C434.648 820.65 431.482 821.386 428.116 822.194C402.565 828.325 396.764 828.449 374.235 814.2C375.559 805.056 380.218 798.396 381.853 789.709C385.371 771.008 388.623 752.311 392.589 733.688C394.224 726.014 395.083 719.03 397.394 711.416Z" fill="#010101"/>
<path d="M379.284 802.055C399.16 801.763 420.649 803.131 441.315 802.99C439.543 807.66 438.916 812.328 436.966 816.744C436.349 818.14 435.084 818.265 433.853 818.606C424.676 820.24 413.559 824.095 404.614 824.832C400.393 825.18 381.337 817.713 378.35 813.955C376.435 811.546 378.518 805.05 379.284 802.055Z" fill="#2E2E2E"/>
<path d="M403.11 810.121C404.726 809.602 406.496 809.993 407.743 811.143C408.991 812.293 409.524 814.026 409.138 815.678C408.752 817.331 407.507 818.648 405.878 819.127C403.404 819.854 400.805 818.456 400.047 815.991C399.289 813.526 400.654 810.909 403.11 810.121Z" fill="#010101"/>
<path d="M402.745 811.863C403.718 811.204 404.972 811.127 406.018 811.66C407.065 812.194 407.738 813.255 407.776 814.43C407.813 815.604 407.209 816.705 406.198 817.305C404.699 818.194 402.765 817.731 401.831 816.259C400.898 814.788 401.302 812.841 402.745 811.863Z" fill="#2E2E2E"/>
<path d="M510.916 888.492C509.219 883.961 507.826 872.697 508.191 868.271C509.201 856.031 508.979 806.084 514.507 798.46L515.489 798.367C516.376 799.568 516.101 799.105 516.545 800.582L516.086 801.658L515.566 801.491C513.897 804.253 514.124 807.234 515.222 810.203C515.084 813.719 513.932 814.057 513.168 817.032C512.597 819.881 512.106 824.548 512.136 827.356C512.259 839.044 507.588 877.996 512.336 887.278C518.4 891.145 567.453 897.369 576.622 897.459C583.212 897.523 596.142 896.467 603.306 896.545C596.683 898.333 589.565 899.472 582.735 899.663C566.034 900.13 524.968 894.78 510.916 888.492Z" fill="#010101"/>
<path d="M516.38 796.551C519.857 796.07 535.348 796.919 538.998 797.236C548.763 798.085 608.048 799.125 612.411 804.346C609.234 804.691 587.773 802.539 582.969 802.179L543.475 799.521C536.27 799.032 522.914 798.37 516.38 796.551Z" fill="#010101"/>
<path d="M561.537 808.211C565.046 807.539 568.447 809.8 569.184 813.296C569.921 816.792 567.722 820.234 564.241 821.035C561.931 821.567 559.514 820.81 557.92 819.056C556.325 817.302 555.803 814.823 556.553 812.574C557.303 810.326 559.209 808.657 561.537 808.211Z" fill="#010101"/>
<path d="M560.863 810.742C562.277 810.164 563.894 810.404 565.08 811.367C566.266 812.33 566.832 813.864 566.556 815.366C566.28 816.869 565.207 818.101 563.756 818.581C561.617 819.288 559.303 818.172 558.523 816.059C557.743 813.946 558.778 811.594 560.863 810.742Z" fill="#2E2E2E"/>
<path d="M565.832 973.253C567.945 972.401 570.354 972.76 572.126 974.192C573.898 975.624 574.754 977.904 574.363 980.149C573.973 982.393 572.396 984.25 570.245 984.999C567.028 986.119 563.504 984.468 562.307 981.279C561.109 978.09 562.673 974.528 565.832 973.253Z" fill="#010101"/>
<path d="M566.862 975.352C568.92 974.755 571.077 975.911 571.72 977.954C572.363 979.998 571.256 982.181 569.227 982.87C567.874 983.329 566.378 983.019 565.317 982.061C564.257 981.103 563.799 979.646 564.12 978.253C564.44 976.86 565.489 975.75 566.862 975.352Z" fill="#2E2E2E"/>
<path d="M471.72 835.368C472.123 837.528 470.333 849.954 470.086 853.374C469.188 865.824 470.276 881.375 467.625 893.469C465.377 887.194 469.49 842.56 471.72 835.368Z" fill="#010101"/>
<path d="M516.545 800.582C517.099 803.258 517.041 807.514 517.098 810.372C521.083 811.252 525.309 812.027 529.048 813.604L528.821 813.887C522.412 813.137 521.155 812.67 515.222 810.203C514.124 807.234 513.897 804.253 515.566 801.491L516.086 801.658L516.545 800.582Z" fill="#151516"/>
<path d="M528.334 886.692C531.896 886.321 556.201 889.049 559.258 890.217C553.246 891.047 534.059 888.651 528.334 886.692Z" fill="#010101"/>
<path d="M602.256 851.926C603.617 853.282 602.058 865.896 601.758 868.604L601.382 868.262C600.495 865.891 601.902 855.146 602.256 851.926Z" fill="#151516"/>
<path d="M379.247 824.369C380.544 826.223 379.094 834.362 378.741 837.211L378.268 837C377.555 834.035 378.733 827.485 379.247 824.369Z" fill="#151516"/>
<path d="M422.772 880.459C423.582 880.416 423.14 880.36 424.073 880.767C422.333 882.073 418.859 883.105 416.688 883.884L415.354 883.942L415.204 883.351C417.355 882.106 420.359 881.262 422.772 880.459Z" fill="#010101"/>
<path d="M516.03 868.288C517.053 870.75 516.848 877.444 516.454 880.177C515.171 876.774 515.448 871.815 516.03 868.288Z" fill="#151516"/>
<path d="M432.004 865.792C433.136 867.956 432.082 872.859 431.709 875.386C430.098 872.859 431.269 868.456 432.004 865.792Z" fill="#010101"/>
<path d="M538.246 815.519C541.754 815.657 544.739 816.597 547.728 818.421C543.869 817.963 541.614 817.714 538.246 815.519Z" fill="#151516"/>
<path d="M377.068 856.785C378.012 859.172 377.493 863.165 377.264 865.776C375.968 862.582 376.545 860.094 377.068 856.785Z" fill="#151516"/>
<path d="M434.131 825.913L434.565 826.338C435.233 828.339 435.019 830.606 435 832.765L434.284 832.206C433.635 830.182 433.988 828.086 434.131 825.913Z" fill="#151516"/>
<path d="M330.5 809.5C330.5 805.5 328.815 802 329.5 799C327.194 772 334.204 765.513 340 743.362C345.069 723.987 374.293 708.794 390.681 699.591C389.43 705.224 386.246 718.46 385.866 723.635C384.525 728.276 383.104 738.388 382.305 743.362C380.405 755.654 378.375 767.925 376.215 780.174C372.918 798.371 368.376 812.139 364.791 829.146C363.434 832.386 362.353 837.638 361.66 841.172C359.577 850.898 356.983 861.253 356.893 871.153C356.531 876.707 356.122 894.426 356.933 899.671C356.907 910.097 356.554 930.353 358.349 940.124C358.157 942.31 358.135 941.832 357.258 943.718C354.065 950.586 352.485 959.839 354.074 967.254L354.683 968.008C355.302 968.834 356.348 970.237 356.38 971.269C356.795 984.681 353.955 998.437 354.478 1011.83C354.129 1015.35 354.477 1020.36 354.616 1024H308.945C309.826 1010.63 314.201 1004.9 317.549 992.38C318.827 987.601 315.286 982.166 316.108 977.021C317.162 970.421 322.179 964.622 323.364 958.151C324.379 952.61 325.081 946.753 325.871 941.157L323.364 899.671C327.544 871.853 329.474 857.291 330.5 829.146C330.607 826.219 330.5 812.866 330.5 809.5Z" fill="white"/>
<path d="M329.747 984.756C333.387 991.702 338.081 996.336 343.857 1001.66C345.8 1003.46 348.174 1004.95 349.85 1006.93C345.898 1006.25 331.711 994.002 329.193 989.498C327.871 987.134 325.655 983.509 326.227 980.674C327.861 980.471 327.959 980.913 329.74 981.805C336.074 985.797 346.892 992.276 353.795 994.89C346.098 993.468 342.627 992.675 335.911 988.354C335.18 987.884 330.385 984.926 329.747 984.756Z" fill="#9E9C9D"/>
</g>
<defs>
<linearGradient id="paint0_linear_3_249" x1="671.431" y1="863.311" x2="635.116" y2="851.543" gradientUnits="userSpaceOnUse">
<stop stop-color="#878786"/>
<stop offset="1" stop-color="#A7A4A7"/>
</linearGradient>
<linearGradient id="paint1_linear_3_249" x1="528.954" y1="684.586" x2="543.231" y2="702.937" gradientUnits="userSpaceOnUse">
<stop/>
<stop offset="1" stop-color="#262828"/>
</linearGradient>
<linearGradient id="paint2_linear_3_249" x1="498.471" y1="690.556" x2="470.341" y2="691.434" gradientUnits="userSpaceOnUse">
<stop stop-color="#161516"/>
<stop offset="1" stop-color="#484546"/>
</linearGradient>
<linearGradient id="paint3_linear_3_249" x1="503.772" y1="762.946" x2="519.728" y2="762.566" gradientUnits="userSpaceOnUse">
<stop stop-color="#010402"/>
<stop offset="1" stop-color="#212125"/>
</linearGradient>
<linearGradient id="paint4_linear_3_249" x1="470.287" y1="669.442" x2="476.713" y2="669.058" gradientUnits="userSpaceOnUse">
<stop stop-color="#363436"/>
<stop offset="1" stop-color="#505054"/>
</linearGradient>
<clipPath id="clip0_3_249">
<rect width="1024" height="1024" fill="white"/>
</clipPath>
</defs>
</svg>
