<svg width="1024" height="1024" viewBox="0 0 1024 1024" fill="none" xmlns="http://www.w3.org/2000/svg">
<g clip-path="url(#clip0_2_2)">
<path d="M373.544 822.144C419.346 827.522 465.346 831.049 511.433 832.717C530.492 833.377 550.336 833.224 569.607 833.736C568.752 835.194 568.102 836.473 567.343 837.984C567.438 838.977 567.53 839.869 567.565 840.865C568.137 841.034 567.848 840.984 568.431 841.02C569.759 839.117 570.913 836.962 572.067 834.935C571.241 833.568 571.301 834.261 571.561 832.855C574.169 832.22 574.225 830.791 574.352 828.605L575.002 828.444L575.284 829.546C582.581 829.129 584.717 828.281 590.731 833.221C591.116 835 591.08 834.874 592.448 836.091L592.808 836.977C595.287 835.332 597.165 835.49 600.028 835.385C600.703 839.588 601.986 859.369 602.867 861.415C603.423 869.141 604.88 877.15 605.723 884.855C608.415 909.463 614.843 941.662 628.764 962.545C631.178 967.878 650.636 995.027 656.661 991.967L657.833 989.775C659.155 990.535 659.753 993.756 660.951 995.591C661.768 1003.02 657.481 1009.43 656.534 1016.7C656.228 1019.05 656.013 1021.63 655.967 1024H371.837H369.364C361.062 1006.16 367.598 1009.52 369.345 992.906C370.372 983.139 368.249 966.299 367.392 955.894C366.956 952.165 366.372 948.334 366.623 944.6L366.803 944.482L367.501 944.856C367.225 945.262 367.182 946.126 367.09 946.708L367.436 946.858L367.92 945.181L367.697 944.605C368.444 943.49 368.213 943.291 368.345 941.761C369.385 932.092 363.861 905.433 362.837 894.526C360.546 870.12 367.216 845.371 373.544 822.144Z" fill="white"/>
<path d="M574.352 828.605L575.002 828.444L575.284 829.546C582.581 829.129 584.717 828.281 590.731 833.221C591.116 835 591.08 834.874 592.448 836.091L592.808 836.977C598.082 862.618 559.379 856.656 567.343 837.984C567.438 838.977 567.53 839.869 567.565 840.865C568.137 841.034 567.848 840.984 568.431 841.02C569.759 839.117 570.913 836.962 572.067 834.935C571.241 833.568 571.301 834.261 571.561 832.855C574.169 832.22 574.225 830.791 574.352 828.605Z" fill="#B9B8B8"/>
<path d="M574.352 828.605L575.002 828.444L575.284 829.546C582.581 829.129 584.717 828.281 590.731 833.221C591.116 835 591.08 834.874 592.448 836.091L592.808 836.977C598.082 862.618 559.379 856.656 567.343 837.984C567.438 838.977 567.53 839.869 567.565 840.865C568.137 841.034 567.848 840.984 568.431 841.02C568.352 847.462 573.549 850.26 578.843 852.221C581.675 851.701 583.849 851.396 586.428 849.828C595.115 844.547 590.407 832.205 581.164 831.403C577.55 831.09 574.838 832.586 572.067 834.935C571.241 833.568 571.301 834.261 571.561 832.855C574.169 832.22 574.225 830.791 574.352 828.605Z" fill="#070607"/>
<path d="M366.623 944.6L366.803 944.482L367.501 944.856C367.225 945.262 367.182 946.126 367.09 946.708L367.436 946.858L367.92 945.181L367.697 944.605C368.444 943.49 368.213 943.291 368.345 941.761C370.533 958.127 372.79 978.374 371.496 994.947C371.103 999.987 368.741 1007.28 367.648 1012.41C368.572 1014.82 371.436 1021.81 371.837 1024H369.364C361.062 1006.16 367.598 1009.52 369.345 992.906C370.372 983.139 368.249 966.299 367.392 955.894C366.956 952.165 366.372 948.334 366.623 944.6Z" fill="#070607"/>
<path d="M396.34 885.937C407.643 885.575 421.56 886.667 433.108 887.226L493.487 890.119C509.051 890.845 524.864 892.021 540.418 891.757C546.294 891.658 551.751 891.332 557.668 891.802C561.726 910.353 559.564 931.342 558.104 950.155C556.844 966.39 549.866 972.731 539.402 984.082C535.062 988.563 521.566 1002.03 515.893 1002.68C496.13 1004.93 474.825 1002.93 455.002 1001.21C449.947 1000.44 435.344 999.228 431.732 996.581C424.581 991.341 405.555 964.327 402.92 957.27C395.804 938.208 394.062 905.456 396.34 885.937Z" fill="#B9B8B8"/>
<path d="M397.196 886.707C401.375 887.656 411.445 888.563 415.85 888.95C429.021 890.082 442.214 890.93 455.42 891.492C486.216 893.049 525.716 895.918 555.905 893.183C558.897 917.184 555.402 939.029 553.735 962.487C548.538 968.56 543.02 975.032 537.483 980.75C530.562 987.777 523.935 994.39 516.554 1000.94C505.192 1001.9 490.116 1000.39 478.347 999.689C465.09 998.893 446.379 998.347 433.524 995.84C429.67 991.604 405.889 958.259 404.635 954.205C399.111 936.341 397.618 905.796 397.196 886.707Z" fill="white"/>
<path d="M660.574 688.574C665.774 691.558 675.298 694.415 681.463 697.125C692.714 701.972 703.743 707.321 714.516 713.156C732.756 723.248 739.867 729.291 748.525 748.108C752.134 756.116 755.213 764.352 757.741 772.764C764.934 796.688 768.715 820.628 773.486 845.084C776.282 859.412 780.686 873.751 783.201 888.156C785.649 902.182 789.903 916.826 791.488 930.918C788.74 933.446 786.906 934.913 783.284 936.268C780.269 937.69 778.138 938.682 774.99 939.816L772.994 940.675C773.141 945.385 773.614 953.055 773.46 957.467C773.576 959.022 773.88 964.711 774.297 965.828C775.328 983.109 773.421 1005.73 773.458 1024H682.695H680.221H658.37H655.967C656.013 1021.63 656.228 1019.05 656.534 1016.7C657.481 1009.43 661.768 1003.02 660.951 995.591C659.753 993.756 659.155 990.535 657.833 989.775L656.661 991.967C650.636 995.027 631.178 967.878 628.764 962.545C614.843 941.662 608.415 909.463 605.723 884.855C604.88 877.15 603.423 869.141 602.867 861.415C601.986 859.369 600.703 839.588 600.028 835.385C602.342 834.161 602.619 834.183 605.261 833.733C608.151 831.827 610.087 822.523 607.497 819.488C606.139 817.897 604.012 818.032 602.185 817.983C610.835 778.304 623.159 737.354 645.179 703.149C647.931 698.872 651.499 691.819 655.612 688.752C656.873 687.811 658.327 688.239 659.836 688.542L660.329 689.094L660.574 688.574Z" fill="#2F2F2F"/>
<path d="M772.994 940.675C773.141 945.385 773.614 953.055 773.46 957.467C773.576 959.022 773.88 964.711 774.297 965.828C775.328 983.109 773.421 1005.73 773.458 1024H682.695H680.221H658.37H655.967C656.013 1021.63 656.228 1019.05 656.534 1016.7C657.481 1009.43 661.768 1003.02 660.951 995.591L661.216 995.438C661.703 996.375 662.274 997.146 662.866 998.02C662.737 996.74 662.733 995.748 662.722 994.475C661.566 991.772 660.312 989.154 659.059 986.496C660.501 978.887 663.318 969.151 665.132 961.358C666.119 959.019 665.57 957.344 667.091 954.881C668.826 954.399 667.905 954.454 669.946 955.25C670.607 955.423 671.239 955.669 671.866 955.64C679.373 955.028 692.167 957.092 700.672 957.059C726.227 956.962 749.497 949.888 772.994 940.675Z" fill="#CBAB88"/>
<path d="M772.994 940.675C773.141 945.385 773.614 953.055 773.46 957.467C745.175 968.554 703.5 974.316 673.769 967.72C673.243 963.881 672.742 959.359 671.866 955.64C679.373 955.028 692.167 957.092 700.672 957.059C726.227 956.962 749.497 949.888 772.994 940.675Z" fill="#B7896C"/>
<path d="M665.132 961.358C666.119 959.019 665.57 957.344 667.091 954.881C668.826 954.399 667.905 954.454 669.946 955.25C670.607 955.423 671.239 955.669 671.866 955.64C672.742 959.359 673.243 963.881 673.769 967.72C676.59 986.504 679.566 1005.26 682.695 1024H680.221H658.37H655.967C656.013 1021.63 656.228 1019.05 656.534 1016.7C657.481 1009.43 661.768 1003.02 660.951 995.591L661.216 995.438C661.703 996.375 662.274 997.146 662.866 998.02C662.737 996.74 662.733 995.748 662.722 994.475C661.566 991.772 660.312 989.154 659.059 986.496C660.501 978.887 663.318 969.151 665.132 961.358Z" fill="white"/>
<path d="M669.946 955.25C670.607 955.423 671.239 955.669 671.866 955.64C672.742 959.359 673.243 963.881 673.769 967.72C676.59 986.504 679.566 1005.26 682.695 1024H680.221L669.946 955.25Z" fill="#553927"/>
<path d="M660.951 995.591L661.216 995.438C661.703 996.375 662.274 997.146 662.866 998.02C662.737 996.74 662.733 995.748 662.722 994.475C664.382 998.571 663.687 1000.98 662.37 1005.08C660.262 1011.66 658.642 1017.01 658.37 1024H655.967C656.013 1021.63 656.228 1019.05 656.534 1016.7C657.481 1009.43 661.768 1003.02 660.951 995.591Z" fill="#070607"/>
<path d="M602.867 861.415C605 865.933 603.409 868.087 605.353 872.136L605.842 871.613C605.715 869.933 605.543 868.256 605.325 866.585L605.633 866.387C607.433 872.705 607.177 880.161 608.162 887.172C610.031 900.466 613.362 914.345 616.623 927.347C617.608 931.278 630.067 959.859 630.006 960.134C628.981 958.641 625.19 951.335 624.899 949.622L624.073 949.898C623.241 953.751 628.97 958.561 628.764 962.545C614.843 941.662 608.415 909.463 605.723 884.855C604.88 877.15 603.423 869.141 602.867 861.415Z" fill="#070607"/>
<path d="M665.132 961.358L664.626 961.005C664.588 959.325 665.434 955.696 666.187 954.167C666.496 953.54 674.067 954.622 674.919 954.721C694.29 956.989 714.095 957.165 733.152 952.53C736.173 951.796 739.114 951.353 742.017 950.206L742.145 949.442C741.055 948.996 722.733 953.046 719.082 953.54C702.098 955.841 684.372 954.677 667.439 952.344C664.761 951.976 661.037 951.832 658.563 950.803C657.601 950.403 657.458 950.271 657.059 949.303C664.22 951.876 665.983 951.282 673.18 952.331C703.03 956.684 731.235 952.969 759.502 942.597C761.734 941.778 769.665 938.971 771.749 938.774C770.022 940.484 756.042 943.724 754.91 945.403L755.601 945.918C764.142 943.34 772.082 940.554 780.126 936.636C781.504 935.964 782.021 935.694 783.284 936.268C780.269 937.69 778.138 938.682 774.99 939.816L772.994 940.675C749.497 949.888 726.227 956.962 700.672 957.059C692.167 957.092 679.373 955.028 671.866 955.64C671.239 955.669 670.607 955.423 669.946 955.25C667.905 954.454 668.826 954.399 667.091 954.881C665.57 957.344 666.119 959.019 665.132 961.358Z" fill="#070607"/>
<path d="M633.681 822.406C636.879 824.161 643.516 838.872 642.786 841.9L642.055 841.039L641.681 840.747L641.405 841.724C640.171 839.542 634.545 825.036 633.681 822.406Z" fill="#070607"/>
<path d="M634.121 836.918C636.316 837.993 638.058 839.977 639.007 842.217L638.429 843.116L637.888 843.254C636.396 841.815 634.595 838.991 634.121 836.918Z" fill="#070607"/>
<path d="M609.947 669.785C620.727 665.498 624.454 678.803 631.453 673.817L631.982 675.381C637.247 676.607 654.822 681.058 658.447 685.573C658.679 685.861 659.618 688.022 659.836 688.542C658.327 688.239 656.873 687.811 655.612 688.752C651.499 691.819 647.931 698.872 645.179 703.149C623.159 737.354 610.835 778.304 602.185 817.983C604.012 818.032 606.139 817.897 607.497 819.488C610.087 822.523 608.151 831.827 605.261 833.733C602.619 834.183 602.342 834.161 600.028 835.385C597.165 835.49 595.287 835.332 592.808 836.977L592.448 836.091C591.08 834.874 591.116 835 590.731 833.221C584.717 828.281 582.581 829.129 575.284 829.546L575.002 828.444L574.352 828.605C574.225 830.791 574.169 832.22 571.561 832.855C571.301 834.261 571.241 833.568 572.067 834.935C570.913 836.962 569.759 839.117 568.431 841.02C567.848 840.984 568.137 841.034 567.565 840.865C567.53 839.869 567.438 838.977 567.343 837.984C568.102 836.473 568.752 835.194 569.607 833.736C550.336 833.224 530.492 833.377 511.433 832.717C465.346 831.049 419.346 827.522 373.544 822.144C367.216 845.371 360.546 870.12 362.837 894.526C363.861 905.433 369.385 932.092 368.345 941.761C368.213 943.291 368.444 943.49 367.697 944.605L367.92 945.181L367.436 946.858L367.09 946.708C367.182 946.126 367.225 945.262 367.501 944.856L366.803 944.482L366.623 944.6C365.467 943.482 352.258 940.049 349.284 939.013C342.303 936.515 335.562 933.392 329.143 929.681C328.817 929.313 328.142 929.202 327.539 928.993C322.486 926.078 313.676 921.642 309.85 917.399C308.541 915.875 309.169 911.885 309.631 910.075C317.476 879.548 323.752 849.45 328.971 818.324C333.018 794.185 334.164 763.996 346.288 742.319C353.621 729.208 367.832 717.098 381.451 711.076C394.197 705.44 407.369 700.131 420.396 695.101C430.547 691.335 443.71 681.829 454.063 683.583L455.073 685.228C453.359 686.068 451.802 687.043 449.923 687.087C449.625 694.218 452.425 701.619 456.361 707.481C464.4 719.265 476.817 727.346 490.848 729.923C526.239 736.425 564.735 716.381 591.419 693.78C595.282 690.507 609.741 676.654 610.496 672.499L608.883 671.238C609.289 670.428 609.338 670.484 609.947 669.785Z" fill="#2F2F2F"/>
<path d="M631.982 675.381C637.247 676.607 654.822 681.058 658.447 685.573C658.679 685.861 659.618 688.022 659.836 688.542C658.327 688.239 656.873 687.811 655.612 688.752C651.499 691.819 647.931 698.872 645.179 703.149C623.159 737.354 610.835 778.304 602.185 817.983C604.012 818.032 606.139 817.897 607.497 819.488C610.087 822.523 608.151 831.827 605.261 833.733C602.619 834.183 602.342 834.161 600.028 835.385C597.165 835.49 595.287 835.332 592.808 836.977L592.448 836.091C591.08 834.874 591.116 835 590.731 833.221C584.717 828.281 582.581 829.129 575.284 829.546L575.002 828.444L574.352 828.605C572.024 826.24 568.202 823.958 565.331 822.084C565.999 819.516 567.537 815.405 567.389 813.026C566.206 812.835 566.264 812.833 565.14 812.467L565.02 811.753C566.469 811.895 567.707 812.111 569.133 812.353C569.839 809.622 569.868 807.487 571.648 805.693C572.735 802.955 573.555 798.476 574.371 795.487C584.275 759.183 596.804 722.573 618.926 691.729C622.824 686.294 627.177 679.854 631.982 675.381Z" fill="white"/>
<path d="M567.389 813.026C566.206 812.835 566.264 812.833 565.14 812.467L565.02 811.753C566.469 811.895 567.707 812.111 569.133 812.353C569.839 809.622 569.868 807.487 571.648 805.693C570.921 810.047 569.679 814.456 568.566 818.741C580.437 820.378 589.107 821.593 600.755 825.153C601.186 822.739 601.566 820.356 602.185 817.983C604.012 818.032 606.139 817.897 607.497 819.488C610.087 822.523 608.151 831.827 605.261 833.733C602.619 834.183 602.342 834.161 600.028 835.385C597.165 835.49 595.287 835.332 592.808 836.977L592.448 836.091C591.08 834.874 591.116 835 590.731 833.221C584.717 828.281 582.581 829.129 575.284 829.546L575.002 828.444L574.352 828.605C572.024 826.24 568.202 823.958 565.331 822.084C565.999 819.516 567.537 815.405 567.389 813.026Z" fill="url(#paint0_linear_2_2)"/>
<path d="M590.731 833.221C595.84 827.547 597.268 832.155 601.903 828.895C603.277 827.928 603.26 821.052 604.752 819.655C606.27 820.227 605.557 819.828 606.659 821.501C606.768 824.589 606.595 827.71 605.092 830.53C604.173 832.254 603.401 832.118 601.587 832.679L605.261 833.733C602.619 834.183 602.342 834.161 600.028 835.385C597.165 835.49 595.287 835.332 592.808 836.977L592.448 836.091C591.08 834.874 591.116 835 590.731 833.221Z" fill="#B9B8B8"/>
<path d="M592.448 836.091L594.911 832.344C597.137 832.434 599.363 832.546 601.587 832.679L605.261 833.733C602.619 834.183 602.342 834.161 600.028 835.385C597.165 835.49 595.287 835.332 592.808 836.977L592.448 836.091Z" fill="#070607"/>
<path d="M610.496 672.499C611.04 671.06 611.051 670.738 612.412 669.858L613.255 670.2C613.769 672.216 613.389 673.487 612.203 675.244C595.7 699.7 558.377 723.237 530.204 730.573C512.467 735.191 486.867 735.517 471.594 725.135C459.871 717.167 451.457 708.518 448.485 694.072C447.936 691.404 447.471 689.869 448.195 687.208L448.852 686.768L449.923 687.087C449.625 694.218 452.425 701.619 456.361 707.481C464.4 719.265 476.817 727.346 490.848 729.923C526.239 736.425 564.735 716.381 591.419 693.78C595.282 690.507 609.741 676.654 610.496 672.499Z" fill="#070607"/>
<path d="M567.389 813.026C567.537 815.405 565.999 819.516 565.331 822.084C568.202 823.958 572.024 826.24 574.352 828.605C574.225 830.791 574.169 832.22 571.561 832.855C571.105 830.273 570.667 829.335 569.712 826.911C567.279 825.703 564.619 824.605 562.065 823.339C562.519 820.557 562.866 815.25 564.804 813.421C565.4 812.858 566.385 813.054 567.389 813.026Z" fill="#B9B8B8"/>
<path d="M372.229 785.354L373.379 786.082C375.804 790.479 376.18 797.781 376.266 802.773C377.365 798.336 378.027 791.3 378.621 786.59C379.87 794.27 378.985 799.964 377.562 807.604C376.048 813.819 374.915 818.594 372.082 824.338C372.473 820.418 373.418 816.196 373.925 812.208C375.135 802.683 374.012 794.646 372.229 785.354Z" fill="#070607"/>
<path d="M433.554 697.881C442.914 723.241 450.236 731.979 474.911 743.943C468.509 743.811 457.61 736.107 452.9 731.992C443.829 724.068 434.382 710.184 433.554 697.881Z" fill="#070607"/>
<path d="M557.122 738.057L557.044 739.148C546.727 746.256 515.864 750.138 503.804 750.005L503.787 749.67C504.327 749.151 514.154 748.6 515.965 748.404C530.66 746.814 543.394 743.214 557.122 738.057Z" fill="#070607"/>
<path d="M329.143 929.681C335.562 933.392 342.303 936.515 349.284 939.013C352.258 940.049 365.467 943.482 366.623 944.6C366.372 948.334 366.956 952.165 367.392 955.894C360.367 954.905 350.134 951.538 343.298 948.97C339.029 947.365 333.524 943.873 329.044 942.657C328.907 938.662 329.097 933.743 329.143 929.681Z" fill="#B7896C"/>
<path d="M774.297 965.828L774.905 964.623C775.858 966.9 774.928 970.11 775.857 973.291C776.024 987.727 775.391 1010.64 776.455 1024H773.458C773.421 1005.73 775.328 983.109 774.297 965.828Z" fill="url(#paint1_linear_2_2)"/>
<path d="M631.453 673.817C636.023 672.852 652.091 678.599 656.416 681.338C659.305 683.167 660.293 685.218 660.574 688.574L660.329 689.094L659.836 688.542C659.618 688.022 658.679 685.861 658.447 685.573C654.822 681.058 637.247 676.607 631.982 675.381L631.453 673.817Z" fill="#070607"/>
<path d="M772.994 940.675L774.99 939.816C776.084 949.832 775.92 963.127 775.857 973.291C774.928 970.11 775.858 966.9 774.905 964.623L774.297 965.828C773.88 964.711 773.576 959.022 773.46 957.467C773.614 953.055 773.141 945.385 772.994 940.675Z" fill="#553927"/>
</g>
<defs>
<linearGradient id="paint0_linear_2_2" x1="599.635" y1="811.117" x2="576.891" y2="832.534" gradientUnits="userSpaceOnUse">
<stop stop-color="#020203"/>
<stop offset="1" stop-color="#373636"/>
</linearGradient>
<linearGradient id="paint1_linear_2_2" x1="781.034" y1="991.922" x2="768.012" y2="994.788" gradientUnits="userSpaceOnUse">
<stop stop-color="#4D2F0B"/>
<stop offset="1" stop-color="#6C4A48"/>
</linearGradient>
<clipPath id="clip0_2_2">
<rect width="1024" height="1024" fill="white"/>
</clipPath>
</defs>
</svg>
