<svg width="1024" height="1024" viewBox="0 0 1024 1024" fill="none" xmlns="http://www.w3.org/2000/svg">
<g clip-path="url(#clip0_2_60)">
<path d="M478.951 667.563L479.365 668.86C476.868 672.551 476.022 673.826 472.819 677.025L472.469 677.008C472.774 675.598 473.097 674.764 473.559 673.411C475.71 671.387 477.339 670.059 478.951 667.563Z" fill="#8A6047"/>
<path d="M589.559 631.05C588.452 630.683 588.974 630.944 588.123 629.969L588.508 629.104L589.867 628.667C593.107 629.351 596.631 629.965 599.69 631.125C610.852 633.282 617.114 642.14 624.926 649.979C631.885 656.963 639.765 664.543 646.259 672.003C647.243 673.133 648.726 678.618 649.184 680.316C650.254 681.516 650.508 681.51 651.944 682.185C659.233 685.221 670.397 691.55 677.741 695.309C703.567 708.527 743.997 724.489 754.319 754.233C782.624 835.798 786.62 924.363 800.781 1009.03C801.592 1013.88 801.573 1019.25 802.517 1024H667.154H664.897H486.514H426.232C427.72 983.499 427.626 940.35 431.813 900.438C434.022 878.808 437.091 857.275 441.013 835.889C443.597 821.915 448.709 799.215 449.451 785.763C449.906 777.523 446.004 753.796 444.892 743.991C444.538 742.489 444.55 740.571 444.494 739.001C441.971 723.4 443.419 697.468 447.803 682.581C456.024 677.164 467.495 651.226 475.772 649.858C476.655 654.436 477.831 663.771 478.951 667.563C477.339 670.059 475.71 671.387 473.559 673.411C473.097 674.764 472.774 675.598 472.469 677.008L472.819 677.025C472.479 683.685 476.707 698.834 478.204 705.994C480.691 717.888 483.079 728.939 483.239 741.233C485.116 735.501 500.186 705.743 503.862 703.034C527.532 685.593 569.755 667.535 587.385 642.973L586.945 637.647C587.281 635.944 587.405 633.572 587.56 631.788L589.559 631.05Z" fill="#272626"/>
<path d="M589.559 631.05C594.276 632.3 596.219 633.988 598.79 638.383C601.239 642.572 603.529 649.08 602.45 653.945C592.373 690.965 561.892 720.792 536.562 748.414L534.467 750.862C497.938 791.862 497.544 794.584 494.025 849.185C492.805 868.85 491.739 888.525 490.827 908.207C489.518 931.883 488.434 955.571 487.577 979.269C487.004 994.239 486.286 1009.01 486.514 1024H426.232C427.72 983.499 427.626 940.35 431.813 900.438C434.022 878.808 437.091 857.275 441.013 835.889C443.597 821.915 448.709 799.215 449.451 785.763C449.906 777.523 446.004 753.796 444.892 743.991C444.538 742.489 444.55 740.571 444.494 739.001C441.971 723.4 443.419 697.468 447.803 682.581C456.024 677.164 467.495 651.226 475.772 649.858C476.655 654.436 477.831 663.771 478.951 667.563C477.339 670.059 475.71 671.387 473.559 673.411C473.097 674.764 472.774 675.598 472.469 677.008L472.819 677.025C472.479 683.685 476.707 698.834 478.204 705.994C480.691 717.888 483.079 728.939 483.239 741.233C485.116 735.501 500.186 705.743 503.862 703.034C527.532 685.593 569.755 667.535 587.385 642.973L586.945 637.647C587.281 635.944 587.405 633.572 587.56 631.788L589.559 631.05Z" fill="white"/>
<path d="M589.559 631.05C594.276 632.3 596.219 633.988 598.79 638.383C601.239 642.572 603.529 649.08 602.45 653.945C602.288 653.102 602.375 653.282 601.952 652.422C598.174 644.728 597.126 637.619 589.124 633.474C587.985 634.873 588.314 634.08 588.226 635.981L588.86 637.043L588.947 635.734C590.642 639.361 590.504 639.871 590.2 643.708C570.961 670.67 532.181 687.334 506.15 705.2C503.42 707.073 486.266 739.328 482.303 745.84C481.351 735.58 478.829 722.092 476.915 711.789C475.095 701.997 472.135 693.512 470.778 683.249C471.154 680.853 471.656 679.276 472.469 677.008L472.819 677.025C472.479 683.685 476.707 698.834 478.204 705.994C480.691 717.888 483.079 728.939 483.239 741.233C485.116 735.501 500.186 705.743 503.862 703.034C527.532 685.593 569.755 667.535 587.385 642.973L586.945 637.647C587.281 635.944 587.405 633.572 587.56 631.788L589.559 631.05Z" fill="#909090"/>
<path d="M444.494 739.001L444.728 738.636C455.421 721.683 466.851 684.774 477.598 728.081C474.392 722.008 471.014 714.373 466.062 709.802C457.549 719.867 451.752 735.289 444.892 743.991C444.538 742.489 444.55 740.571 444.494 739.001Z" fill="#ADACAD"/>
<path d="M502.152 719.944C521.38 688.277 528.5 737.294 536.562 748.414L534.467 750.862C530.821 743.586 519.729 713.066 513.395 711.573C509.541 712.407 505.201 717.11 502.152 719.944Z" fill="url(#paint0_linear_2_60)"/>
<path d="M474.954 659.619C474.468 663.349 473.419 669.869 473.559 673.411C473.097 674.764 472.774 675.598 472.469 677.008C471.656 679.276 471.154 680.853 470.778 683.249C469.443 674.862 471.112 667.079 474.954 659.619Z" fill="#ADACAD"/>
<path d="M645.996 675.915C642.144 671.061 633.694 662.963 628.969 658.235C621.227 650.488 613.401 641.645 604.574 635.209C598.279 630.62 592.967 632.707 589.399 629.838L589.629 629.532C592.766 630.202 596.554 631.38 599.69 631.125C610.852 633.282 617.114 642.14 624.926 649.979C631.885 656.963 639.765 664.543 646.259 672.003C647.243 673.133 648.726 678.618 649.184 680.316C650.254 681.516 650.508 681.51 651.944 682.185C650.425 682.202 650.475 682.144 649.074 682.678C648.189 683.983 647.911 690.218 647.608 692.489C646.284 701.888 644.521 711.221 642.324 720.456C638.53 736.695 622.71 797.609 611.293 810.098C605.486 816.452 555.616 772.142 544.086 771.877C531.705 771.591 522.505 784.485 513.28 791.401L513.073 791.133C518.792 782.108 536.127 764.719 547.317 769.566C569.05 778.979 588.034 797.944 609.387 808.31C621.066 793.889 648.06 696.322 645.996 675.915Z" fill="#020202"/>
<path d="M664.897 1024C662.758 1014.38 662.022 1005.99 660.737 996.313C658.534 979.719 657.067 962.854 654.761 946.313C653.583 937.628 652.065 928.994 650.21 920.429C648.117 910.937 645.413 900.752 645.022 891.04C644.83 886.281 640.845 871.043 642.068 868.232C648.062 874.561 646.751 895.019 648.868 902.082C660.797 941.872 659.653 983.786 667.154 1024H664.897Z" fill="#020202"/>
<path d="M731.223 737.126C732.876 736.897 732.861 736.831 734.474 737.13L734.325 737.537C697.238 745.746 674.02 774.902 661.205 809.116C660.806 810.273 660.436 812.008 659.587 812.454C660.693 802.834 669.276 786.714 674.868 778.849C688.906 759.106 706.675 741.634 731.223 737.126Z" fill="#020202"/>
<path d="M650.974 703.008C660.097 705.14 708.301 729.77 714.146 738.636C713.347 738.512 701.712 730.182 700.128 729.059C685.693 718.821 665.236 712.544 650.974 703.008Z" fill="#020202"/>
<path d="M473.571 640.617C474.148 642.044 475.431 644.635 475.343 645.964L475.772 649.858C467.495 651.226 456.024 677.164 447.803 682.581C443.419 697.468 441.971 723.4 444.494 739.001C444.55 740.571 444.538 742.489 444.892 743.991C446.004 753.796 449.906 777.523 449.451 785.763C448.709 799.215 443.597 821.915 441.013 835.889C437.091 857.275 434.022 878.808 431.813 900.438C427.626 940.35 427.72 983.499 426.232 1024H422.975H343.472H340.506H285.772C285.046 1005.37 288.717 993.538 291.954 975.416L302.113 917.055C304.841 900.521 306.277 884.392 308.587 867.929C312.266 841.72 316.082 815.993 322.288 790.249C325.641 776.338 327.04 766.306 332.639 752.831C342.53 729.026 356.245 721.403 378.468 710.276C385.633 706.689 393.449 702.599 400.849 699.588C401.897 696.821 403.39 694.245 405.269 691.96C413.347 682.075 436.403 662.095 446.944 653.454C450.099 650.868 468.813 642.87 473.571 640.617Z" fill="#272626"/>
<path d="M473.571 640.617C474.148 642.044 475.431 644.635 475.343 645.964L475.772 649.858C467.495 651.226 456.024 677.164 447.803 682.581C443.419 697.468 441.971 723.4 444.494 739.001C444.55 740.571 444.538 742.489 444.892 743.991C446.004 753.796 449.906 777.523 449.451 785.763C448.709 799.215 443.597 821.915 441.013 835.889C437.091 857.275 434.022 878.808 431.813 900.438C427.626 940.35 427.72 983.499 426.232 1024H422.975C423.62 1019.71 423.486 1014.43 423.653 1010.01L424.645 979.756C426.497 928.521 428.784 879.479 438.836 829.117C441.247 817.037 445.586 803.366 445.522 791.056C445.508 788.351 435.319 770.389 432.238 768.126C419.679 760.767 384.536 799.555 376.43 794.441C373.209 787.473 389.056 729.932 392.692 720.497C395.056 714.363 399.12 705.999 400.849 699.588C401.897 696.821 403.39 694.245 405.269 691.96C413.347 682.075 436.403 662.095 446.944 653.454C450.099 650.868 468.813 642.87 473.571 640.617Z" fill="url(#paint1_linear_2_60)"/>
<path d="M475.343 645.964L475.772 649.858C467.495 651.226 456.024 677.164 447.803 682.581C448.371 680.656 450.874 676.042 451.933 674.199C458.415 662.916 464.612 653.593 475.343 645.964Z" fill="#909090"/>
<path d="M359.672 788.373C359.6 782.702 360.117 775.755 359.233 770.229C357.755 760.999 351.633 743.351 353.52 734.314C353.992 736.891 354.247 739.443 354.633 742.027C356.413 753.951 359.56 765.254 360.757 777.287C363.149 794.045 360.81 802.832 357.431 819.102C353.419 838.42 348.929 858.012 346.751 877.608C345.09 900.898 347.537 924.214 347.921 947.506C348.043 954.93 346.744 963.82 347.194 971.022C348.311 988.931 343.388 1006.46 343.472 1024H340.506C340.286 1010.46 342.568 1000.51 343.747 987.407C344.648 977.379 344.732 964.686 344.907 954.516C345.374 927.357 340.972 899.389 344.294 872.257C346.466 854.519 350.721 836.577 354.302 819.071C356.283 809.385 358.922 798.179 359.672 788.373Z" fill="#020202"/>
<path d="M393.077 713.473L393.493 713.622L393.772 714.32C385.051 719.028 362.612 728.472 356.478 733.25L355.32 733.409L355.24 732.776C361.898 727.743 384.452 717.561 393.077 713.473Z" fill="#020202"/>
</g>
<defs>
<linearGradient id="paint0_linear_2_60" x1="516.837" y1="736.038" x2="528.964" y2="719.513" gradientUnits="userSpaceOnUse">
<stop stop-color="#98999C"/>
<stop offset="1" stop-color="#B6B4B3"/>
</linearGradient>
<linearGradient id="paint1_linear_2_60" x1="531.744" y1="937.869" x2="361.23" y2="721.524" gradientUnits="userSpaceOnUse">
<stop/>
<stop offset="1" stop-color="#2C2B2B"/>
</linearGradient>
<clipPath id="clip0_2_60">
<rect width="1024" height="1024" fill="white"/>
</clipPath>
</defs>
</svg>
