<svg width="1024" height="1024" viewBox="0 0 1024 1024" fill="none" xmlns="http://www.w3.org/2000/svg">
<g clip-path="url(#clip0_4_312)">
<path d="M602.773 668C603.78 666.662 604.928 664.998 606.078 663.829C609.818 665.656 615.062 668.191 618.491 670.562L620.539 668.988C627.815 666.997 636.75 671.958 643.11 675.334C645.771 676.747 646.522 677.858 647.901 680.486C647.191 681.773 646.961 682.431 645.782 683.333C643.151 685.617 639.171 693.024 637.634 696.38C622.909 728.525 612.889 767.819 609.687 802.999C608.535 815.663 612.089 833.537 614.027 846.036C619.193 879.36 626.117 912.871 648.944 939.268L649.465 939.859C654.408 946.184 656.467 943.695 658.896 952.105L658.77 952.583C658.74 958.279 658.137 963.638 658.106 968.982C655.956 984.835 652.991 1000.68 652.113 1016.66C651.978 1019.11 651.771 1021.56 651.57 1024H377.901C374.681 1010.21 376.437 990.501 375.271 975.555C373.669 955.018 371.135 935.903 370.667 915.299L370.472 911.851C369.695 903.352 369.418 889.039 369.558 880.559C370.215 872.677 372.822 862.3 373.801 853.59C374.598 850.26 375.345 846.918 376.044 843.565C382.018 822.395 387.781 801.166 393.33 779.88C398.059 761.492 402.489 742.575 407.789 724.393C410.695 714.421 415.4 703.292 419.305 693.578C419.699 692.901 420.157 691.511 420.452 690.723C420.705 690.212 420.973 689.709 421.255 689.215C425.777 681.36 439.185 676.949 447.587 674.079C450.455 673.1 452.376 673.323 454.864 674.864C460.746 670.884 463.979 667.523 471.335 669.427C469.658 671.401 469.177 671.828 469.125 674.539C468.191 675.653 467.956 677.619 468.124 678.998C471.264 704.813 505.602 709.369 525.744 706.844C551.397 703.629 584.209 687.51 599.986 667.31L602.497 665.699L603.14 665.976C603.023 666.739 602.955 667.247 602.773 668Z" fill="#292929"/>
<path d="M602.773 668C603.78 666.662 604.928 664.998 606.078 663.829C609.818 665.656 615.062 668.191 618.491 670.562C615.528 674.522 613.314 677.955 610.67 682.1C609.886 683.749 607.963 687.933 606.772 689.084C594.83 712.159 586.632 734.948 581.985 760.557C579.513 774.181 576.407 787.512 574.266 801.235C561.874 802.41 551.528 800.745 539.619 800.654C500.8 800.358 462.075 797.167 423.312 794.925C424.89 786.964 425.853 777.964 427.523 770.124C433.444 742.338 441.164 705.647 452.764 679.932L453.849 678.233L454.512 677.65L454.864 674.864C460.746 670.884 463.979 667.523 471.335 669.427C469.658 671.401 469.177 671.828 469.125 674.539C468.191 675.653 467.956 677.619 468.124 678.998C471.264 704.813 505.602 709.369 525.744 706.844C551.397 703.629 584.209 687.51 599.986 667.31L602.497 665.699L603.14 665.976C603.023 666.739 602.955 667.247 602.773 668Z" fill="white"/>
<path d="M602.773 668C603.78 666.662 604.928 664.998 606.078 663.829C609.818 665.656 615.062 668.191 618.491 670.562C615.528 674.522 613.314 677.955 610.67 682.1C609.886 683.749 607.963 687.933 606.772 689.084C604.287 689.601 594.225 698.301 591.035 700.258C570.726 712.712 546.988 722.964 523.2 724.974C523.518 724.756 523.946 724.324 524.244 724.047L523.634 723.357C514.537 724.027 510.063 724.122 500.874 723.291C499.961 722.828 494.095 721.629 492.854 721.37C474.963 717.625 460.14 706.035 455.147 688.053C454.264 684.87 454.783 681.509 453.849 678.233L454.512 677.65L454.864 674.864C460.746 670.884 463.979 667.523 471.335 669.427C469.658 671.401 469.177 671.828 469.125 674.539C468.191 675.653 467.956 677.619 468.124 678.998C471.264 704.813 505.602 709.369 525.744 706.844C551.397 703.629 584.209 687.51 599.986 667.31L602.497 665.699L603.14 665.976C603.023 666.739 602.955 667.247 602.773 668Z" fill="white"/>
<path d="M599.986 667.31L602.497 665.699L603.14 665.976C603.023 666.739 602.955 667.247 602.773 668C593.573 684.813 560.709 701.26 542.968 706.468C524.954 711.757 499.118 712.516 482.159 703.081C470.114 696.379 462.641 685.446 466.843 671.211C462.222 672.914 458.741 675.175 454.512 677.65L454.864 674.864C460.746 670.884 463.979 667.523 471.335 669.427C469.658 671.401 469.177 671.828 469.125 674.539C468.191 675.653 467.956 677.619 468.124 678.998C471.264 704.813 505.602 709.369 525.744 706.844C551.397 703.629 584.209 687.51 599.986 667.31Z" fill="#8A8989"/>
<path d="M523.634 723.357C526.975 722.387 533.928 721.663 538.48 720.484C557.338 715.838 574.278 709.198 590.456 698.324C597.772 693.406 603.837 686.702 610.67 682.1C609.886 683.749 607.963 687.933 606.772 689.084C604.287 689.601 594.225 698.301 591.035 700.258C570.726 712.712 546.988 722.964 523.2 724.974C523.518 724.756 523.946 724.324 524.244 724.047L523.634 723.357Z" fill="#8A8989"/>
<path d="M453.849 678.233C454.783 681.509 454.264 684.87 455.147 688.053C460.14 706.035 474.963 717.625 492.854 721.37C494.095 721.629 499.961 722.828 500.874 723.291L500.082 724.514C492.315 724.813 475.779 718.393 469.632 713.247C457.825 703.36 454.531 694.373 452.764 679.932L453.849 678.233Z" fill="#8A8989"/>
<path d="M500.874 723.291C510.063 724.122 514.537 724.027 523.634 723.357L524.244 724.047C523.946 724.324 523.518 724.756 523.2 724.974C515.328 725.133 507.934 725.148 500.082 724.514L500.874 723.291Z" fill="#292929"/>
<path d="M411.655 861.71C420.438 860.925 433.111 861.958 442.183 862.503L483.226 864.918C511.177 866.494 538.02 866.555 565.768 867.577C568.096 890.26 567.79 910.158 565.551 932.925C563.643 952.324 562.526 952.207 548.714 965.438C545.18 968.516 541.481 971.399 537.633 974.073C532.917 977.297 527.981 980.251 522.283 981.29C512.802 983.018 456.669 979.675 446.228 977.624C444.095 977.205 441.629 976.679 439.732 975.606C433.678 972.181 420.741 957.314 416.837 951.3C407.209 936.47 407.856 879.936 411.655 861.71Z" fill="#010101"/>
<path d="M412.441 861.913C417.033 862.941 438.195 864.063 444.394 864.582C484.141 867.907 524.982 869.861 564.856 868.708C565.69 890.457 565.651 926.525 560.642 948.572C559.876 951.944 549.714 961.2 546.61 964.158C543.181 967.247 539.565 970.123 535.782 972.768C533.333 974.483 525.368 979.794 522.843 979.802C502.511 979.865 460.696 978.616 441.56 975.189C434.102 968.063 421.941 957.039 417.227 948.08C410.776 935.819 410.504 888.509 411.326 872.972C411.509 869.514 411.334 865.187 412.441 861.913Z" fill="#292929"/>
<path d="M586.907 804.353C593.437 803.196 599.675 807.53 600.868 814.054C602.061 820.577 597.761 826.839 591.244 828.068C584.677 829.307 578.355 824.966 577.153 818.391C575.95 811.817 580.326 805.519 586.907 804.353Z" fill="white"/>
<path d="M402.18 794.354C408.579 793.12 414.771 797.293 416.03 803.687C417.288 810.082 413.138 816.29 406.749 817.572C400.325 818.861 394.076 814.685 392.811 808.256C391.546 801.827 395.747 795.594 402.18 794.354Z" fill="white"/>
<path d="M647.901 680.486C648.043 680.602 648.185 680.717 648.327 680.832C662.461 686.351 678.561 690.167 692.11 697.273C703.67 703.336 721.394 713.49 730.108 722.935C746.435 740.63 753.423 766.767 759.687 789.406C762.459 799.67 763.692 810.525 766.481 820.835C774.08 848.933 783.164 876.609 790.564 904.756C791.086 906.74 792.03 911.871 790.953 913.538C788.659 917.217 775.411 922.326 773.672 924.871L772.764 924.25C771.776 924.898 771.865 924.766 771.055 925.596C772.844 939.243 774.329 960.734 774.524 974.669C774.748 990.661 773.464 1007.6 773.56 1024H679.308H672.104H669.721H651.57C651.771 1021.56 651.978 1019.11 652.113 1016.66C652.991 1000.68 655.956 984.835 658.106 968.982C658.137 963.638 658.74 958.279 658.77 952.583L658.896 952.105C656.467 943.695 654.408 946.184 649.465 939.859L648.944 939.268C626.117 912.871 619.193 879.36 614.027 846.036C612.089 833.537 608.535 815.663 609.687 802.999C612.889 767.819 622.909 728.525 637.634 696.38C639.171 693.024 643.151 685.617 645.782 683.333C646.961 682.431 647.191 681.773 647.901 680.486Z" fill="white"/>
<path d="M771.055 925.596C772.844 939.243 774.329 960.734 774.524 974.669C774.748 990.661 773.464 1007.6 773.56 1024H679.308H672.104H669.721H651.57C651.771 1021.56 651.978 1019.11 652.113 1016.66C652.991 1000.68 655.956 984.835 658.106 968.982C658.137 963.638 658.74 958.279 658.77 952.583L658.896 952.105C659.619 949.268 658.943 946.575 658.381 943.777C692.071 949.023 719.757 948.839 751.527 934.698C758.297 931.685 764.469 929.444 771.055 925.596Z" fill="#CBAB88"/>
<path d="M678.449 1022.3C677.991 1020.58 677.245 1018.52 677.539 1016.84C678.827 1018.83 679.198 1021.66 679.308 1024H672.104C671.373 1021.6 671.214 1020.9 670.967 1018.41C672.173 1020.74 671.903 1021.23 673.833 1022.39C675.438 1022.39 676.846 1022.38 678.449 1022.3Z" fill="#BF9777"/>
<path d="M647.901 680.486C648.043 680.602 648.185 680.717 648.327 680.832C662.461 686.351 678.561 690.167 692.11 697.273C703.67 703.336 721.394 713.49 730.108 722.935C746.435 740.63 753.423 766.767 759.687 789.406C762.459 799.67 763.692 810.525 766.481 820.835C774.08 848.933 783.164 876.609 790.564 904.756C791.086 906.74 792.03 911.871 790.953 913.538C788.659 917.217 775.411 922.326 773.672 924.871L772.764 924.25C771.776 924.898 771.865 924.766 771.055 925.596C764.469 929.444 758.297 931.685 751.527 934.698C719.757 948.839 692.071 949.023 658.381 943.777C658.943 946.575 659.619 949.268 658.896 952.105C656.467 943.695 654.408 946.184 649.465 939.859C649.538 939.721 649.611 939.584 649.684 939.446C647.245 913.745 644.341 886.661 640.587 861.146C640.302 859.203 635.319 850.225 634.584 848.831C630.684 841.438 628.723 837.192 626.295 829.631C630.412 835.524 635.257 845.222 639.008 851.857C638.659 849 638.496 846.024 638.289 843.145C640.353 847.218 642.35 854.244 643.066 858.778C646.948 883.391 649.713 908.225 652.276 933.005C652.783 937.912 653.729 939.61 658.654 940.511C664.678 941.613 670.924 942.195 677.021 942.877C718.061 948.248 755.044 932.716 789.143 911.29C781.994 883.831 773.032 856.746 765.647 829.433C757.51 798.401 753.293 762.705 735.837 735.076C720.398 710.638 673.283 689.826 645.782 683.333C646.961 682.431 647.191 681.773 647.901 680.486Z" fill="#8A8989"/>
<path d="M420.452 690.723C420.157 691.511 419.699 692.901 419.305 693.578C415.4 703.292 410.695 714.421 407.789 724.393C402.489 742.575 398.059 761.492 393.33 779.88C387.781 801.166 382.018 822.395 376.044 843.565C375.345 846.918 374.598 850.26 373.801 853.59C372.822 862.3 370.215 872.677 369.558 880.559C369.418 889.039 369.695 903.352 370.472 911.851L370.667 915.299C353.232 909.281 345.962 906.867 329.55 898.064C329.571 901.08 329.474 902.19 329.07 905.148C329.126 902.27 329.601 899.619 328.176 897.328C324.509 894.564 314.404 890.711 312.867 886.577C311.981 884.191 321.015 821.793 323 813C328.925 786.753 330.79 757.682 344.5 733.5C355.216 714.599 377.667 706.538 397.042 698.984C404.748 695.979 412.477 692.948 420.452 690.723Z" fill="white"/>
<path d="M382.007 778.728C385.131 796.31 377.943 822.591 374.768 841.466L376.044 843.565C375.345 846.918 374.598 850.26 373.801 853.59C372.822 862.3 370.215 872.677 369.558 880.559C368.847 863.787 369.737 851.184 372.769 834.624C376.323 815.211 381.019 798.51 382.007 778.728Z" fill="url(#paint0_linear_4_312)"/>
<path d="M373.801 853.59C372.834 850.447 374.175 844.788 374.768 841.466L376.044 843.565C375.345 846.918 374.598 850.26 373.801 853.59Z" fill="#DEDCDD"/>
<path d="M329.07 905.148C329.474 902.19 329.571 901.08 329.55 898.064C345.962 906.867 353.232 909.281 370.667 915.299C371.135 935.903 373.669 955.018 375.271 975.555C376.437 990.501 374.681 1010.21 377.901 1024H327.126C327.388 1022.4 327.542 1020.02 327.704 1018.34C330.023 1011.07 326.708 963.67 326.922 951.686C327.187 936.764 328.34 920.158 329.07 905.148Z" fill="#CBAB88"/>
<path d="M328.176 897.328C329.601 899.619 329.126 902.27 329.07 905.148C328.34 920.158 327.187 936.764 326.922 951.686C326.708 963.67 330.023 1011.07 327.704 1018.34L327.178 1017.05L326.911 1017.76C326.403 1016.43 326.651 1015.33 326.367 1013.85L326.178 1012.9C325.943 1009.42 326.58 1003.22 326.276 998.516C325.581 987.771 324.784 976.826 324.357 966.099C323.735 950.494 324.48 934.477 325.583 918.916C325.937 913.928 326.831 901.766 328.176 897.328Z" fill="url(#paint1_linear_4_312)"/>
<path d="M771.055 925.596C771.865 924.766 771.776 924.898 772.764 924.25L773.672 924.871C775.391 933.726 775.867 949.944 775.934 959.147L776.096 1001.84C776.147 1009.18 775.928 1016.7 776.479 1024H773.56C773.464 1007.6 774.748 990.661 774.524 974.669C774.329 960.734 772.844 939.243 771.055 925.596Z" fill="#6A4A37"/>
<path d="M602.405 662.528C609.144 660.206 615.133 665.424 620.539 668.988L618.491 670.562C615.062 668.191 609.818 665.656 606.078 663.829C604.928 664.998 603.78 666.662 602.773 668C602.955 667.247 603.023 666.739 603.14 665.976L602.497 665.699L599.986 667.31C600.561 666.405 601.378 665.442 602.052 664.586L602.405 662.528Z" fill="#8A8989"/>
<path d="M326.178 1012.9L326.367 1013.85C326.651 1015.33 326.403 1016.43 326.911 1017.76L327.178 1017.05L327.704 1018.34C327.542 1020.02 327.388 1022.4 327.126 1024H324.167C325.036 1020.43 325.587 1016.55 326.178 1012.9Z" fill="#4E2B17"/>
</g>
<defs>
<linearGradient id="paint0_linear_4_312" x1="385.834" y1="824.891" x2="366.166" y2="826.609" gradientUnits="userSpaceOnUse">
<stop stop-color="#838681"/>
<stop offset="1" stop-color="#9A959B"/>
</linearGradient>
<linearGradient id="paint1_linear_4_312" x1="330.107" y1="958.141" x2="324.022" y2="957.841" gradientUnits="userSpaceOnUse">
<stop stop-color="#543826"/>
<stop offset="1" stop-color="#765949"/>
</linearGradient>
<clipPath id="clip0_4_312">
<rect width="1024" height="1024" fill="white"/>
</clipPath>
</defs>
</svg>
