<svg width="1024" height="1024" viewBox="0 0 1024 1024" fill="none" xmlns="http://www.w3.org/2000/svg">
<g clip-path="url(#clip0_1_136)">
<path d="M359.512 105.471C365.972 90.7534 377.505 71.6277 392.944 65.1313C392.726 83.6584 397.965 96.6557 410.965 110.356C406.261 99.2776 404.777 96.1018 404.977 83.9537C416.084 99.005 438.704 108.94 456.746 111.812C470.231 113.767 484.242 112.458 497.782 112.942C543.655 114.584 592.256 114.038 630.839 142.947C641.826 151.18 650.324 159.289 657.704 170.936C657.025 161.082 655.019 155.409 651.779 146.206C669.788 158.8 681.388 178.829 685.229 200.305C685.397 201.247 685.555 202.191 685.704 203.137C722.424 226.528 727.449 265.338 729.06 305.204C731.329 361.309 720.867 397.985 691.874 445.211L691.164 442.311C690.568 439.38 690.022 436.449 689.143 433.585C683.688 415.798 667.97 406.467 652.113 420.44C650.334 422.609 649.53 423.363 648.558 426.017C645.821 430.43 641.85 439.248 640.546 444.023C633.497 446.989 627.428 451.312 619.975 454.286C625.296 426.31 632.483 397.22 617.666 371.75C614.489 366.29 605.268 353.411 604.919 348.783C602.667 318.855 615.194 286.465 583.593 267.141C542.66 238.833 495.14 246.311 449.367 256.324C437.972 258.817 426.017 263.661 414.336 263.834C393.652 263.438 369.987 248.715 350.158 250.779C343.129 251.511 338.404 258.981 334.684 264.34C322.957 286.171 320.945 323.032 324.252 347.543C325.478 356.624 327.635 364.611 330.204 373.312L329.442 373.558C317.063 352.457 305.456 306.144 305.005 281.839C304.86 275.017 305.653 268.208 307.362 261.601C309.507 253.371 312.325 246.594 317.274 239.717C293.712 211.114 289.814 166.948 315.193 138.244C314.12 150.205 314.291 155.974 317.198 167.927C317.66 161.858 318.207 155.971 319.278 149.97C324.182 122.511 341.769 95.7763 366.771 82.6473C362.005 91.2549 360.885 95.7147 359.512 105.471Z" fill="#1B1B1B"/>
</g>
<defs>
<clipPath id="clip0_1_136">
<rect width="1024" height="1024" fill="white"/>
</clipPath>
</defs>
</svg>
