<svg width="1024" height="1024" viewBox="0 0 1024 1024" fill="none" xmlns="http://www.w3.org/2000/svg">
<g clip-path="url(#clip0_1_240)">
<path d="M303.413 315.555C299.894 318.696 300.446 336.776 298.675 339.77C296.266 338.027 292.918 324.03 292.337 320.664C287.755 294.119 295.995 253.167 306.511 228.591C311.573 216.846 317.984 205.731 325.616 195.469C358.436 150.686 418.855 118.302 473.225 110.69C511.695 105.304 559.324 103.91 596.552 116.41C611.917 121.58 626.36 129.166 639.338 138.882C645.954 143.777 651.616 148.89 656.806 155.323C659.461 158.614 662.743 165.39 665.806 167.712C668.847 170.016 674.488 172.552 677.958 174.568C683.147 177.583 687.485 180.654 692.115 184.485C721.338 208.666 731.834 247.663 737.064 283.768C743.304 326.845 740.319 373.839 723.674 414.445C717.109 430.461 706.832 446.488 696.716 460.437C695.336 462.34 693.184 465.059 691.692 466.832L690.911 465.801C691.66 463.94 692.008 459.175 692.071 457.053C692.435 444.623 690.024 429.067 681.081 419.701C676.416 414.815 672.151 414.173 665.929 414.083L662.367 417.44C650.189 428.337 646.15 435.445 640.154 450.122C637.9 455.642 629.353 457.569 623.38 459.722C622.944 452.62 627.657 432.722 628.743 423.255C633.041 396.569 624.113 375.092 608.034 354.032C604.698 349.663 597.818 342.842 595.387 338.08C595.808 327.124 596.767 323.954 595.807 312.182C594.375 316.483 590.194 330.448 587.524 332.835C583.397 330.588 578.549 326.577 574.557 323.885C569.71 320.615 564.855 317.639 559.833 314.64C561.707 302.609 561.917 297.443 561.364 285.601C556.409 294.801 550.442 303.591 542.052 309.978C532.017 307.615 522.423 303.133 511.946 302.072C508.814 301.755 504.613 301.925 501.775 300.856C501.047 298.734 505.307 290.651 506.416 287.133C509.352 277.825 509.95 271.492 510.425 261.872C496.565 280.171 484.457 297.101 460.275 303.866C470.557 290.68 475.081 284.92 479.051 268.328C460.176 294.725 444.985 300.33 413.633 305.246C409.449 305.902 393.797 309.276 390.761 307.172C388.538 300.128 399.842 272.731 403.283 265.676C394.558 274.324 387.752 282.501 384.815 294.592C384.105 296.372 383.203 302.773 381.087 303.292C375.723 304.605 369.9 304.717 364.54 306.064C357.057 307.946 349.537 311.228 342.396 314.117C339.139 311.297 338.639 303.325 338.336 299.074C338.278 298.29 338.233 297.506 338.199 296.721C336.376 304.072 335.859 309.897 336.544 317.483C331.279 320.921 326.378 323.152 325.196 329.698C322.529 344.469 327.604 358.917 329.825 372.365C330.728 382.809 337.969 401.253 340.939 411.932C341.805 415.049 343.938 419.653 344.58 422.692C343.126 423.602 342.447 424.264 340.841 424.588C333.709 407.539 326.32 391.406 319.715 373.947C312.053 353.691 305.319 340.878 303.579 318.385L303.413 315.555Z" fill="#201F1F"/>
<path d="M622.984 528.224C628.151 533.719 635.772 536.863 643.016 533.42L645.375 533.641C640.913 538.144 636.827 542.166 634.77 548.299C634.259 549.822 633.948 553.939 632.996 554.447C631.121 555.449 624.076 552.456 622.545 551.873C620.777 555.207 619.025 558.993 618.08 562.657C614.044 562.803 611.182 560.484 607.588 558.367C611.26 555.587 619.256 536.267 621.308 531.4C621.801 530.294 622.395 529.281 622.984 528.224Z" fill="#201F1F"/>
</g>
<defs>
<clipPath id="clip0_1_240">
<rect width="1024" height="1024" fill="white"/>
</clipPath>
</defs>
</svg>
