<svg width="1024" height="1024" viewBox="0 0 1024 1024" fill="none" xmlns="http://www.w3.org/2000/svg">
<g clip-path="url(#clip0_1_1113)">
<path d="M612.868 266.379C640.339 254.213 676.181 254.907 705.573 257.075C709.454 265.045 711.311 271.023 713.832 279.457C714.758 282.573 715.335 286.496 718.298 288.085C718.19 293.716 719.597 300.069 720.022 305.752C720.545 312.741 720.962 319.727 721.132 326.737C721.888 354.347 716.396 385.317 707.366 411.424C703.782 421.783 697.531 434.64 692.712 444.414C691.765 442.506 691.954 441.252 691.903 439.05C688.84 430.142 685.978 424.322 678.721 418.199C676.057 416.526 674.064 416.163 671.178 414.993C664.494 415.104 656.329 415.281 653.434 422.294C651.765 426.032 644.74 442.405 643.157 444.543L642.865 444.833C638.006 444.144 633.826 442.877 629.246 441.2C629.986 437.85 630.37 434.462 631.269 431.152C632.905 420.653 634.458 408.203 634.083 397.637C633.599 383.983 622.563 370.144 616.507 358.316C617.277 348.901 619.43 339.309 620.261 329.784C621.836 311.719 620.844 293.694 615.549 276.252C614.793 273.761 613.149 268.684 611.523 266.733L612.868 266.379Z" fill="#7A6B60"/>
<path d="M291.309 192.924C360.879 134.937 461.273 116.575 549 124.026C596.539 127.573 644.821 142.235 678.019 178.225C681.369 181.175 685.52 183.758 688.954 186.509C703.725 198.342 719.139 218.407 720.963 237.937C721.89 247.854 720.961 263.747 719.949 273.92C719.443 278.646 718.893 283.369 718.298 288.085C715.335 286.496 714.758 282.573 713.832 279.457C711.311 271.023 709.454 265.045 705.573 257.075C676.181 254.907 640.339 254.213 612.868 266.379L611.523 266.733C610.67 266.966 608.473 267.92 607.883 267.093C598.245 253.564 585.523 243.86 570.924 236.069C564.428 232.602 561.523 231.486 554.048 231.294C507.145 230.086 462.201 240.149 417.972 254.943C411.143 253.15 404.4 250.485 397.443 248.536C377.455 242.936 360.322 240.101 339.683 239.139C333.976 253.694 330.076 264.394 327.132 279.903C326.53 280.704 326.921 280.469 325.99 280.654C326.173 278.86 326.381 278.395 325.445 276.855L325.285 276.437C322.354 268.591 320.187 257.79 317.306 249.386C310.948 230.839 301.32 209.685 291.309 192.924Z" fill="#222222"/>
</g>
<defs>
<clipPath id="clip0_1_1113">
<rect width="1024" height="1024" fill="white"/>
</clipPath>
</defs>
</svg>
