<svg width="1024" height="1024" viewBox="0 0 1024 1024" fill="none" xmlns="http://www.w3.org/2000/svg">
<g clip-path="url(#clip0_1_188)">
<path d="M328.012 367.695C321.049 345.254 321.515 333.478 320.189 311.388C314.921 224.292 368.379 153.33 450.863 128.466C479.944 119.701 491.479 119.945 520.959 119.002C605.21 116.307 686.133 164.617 710.546 248.152C724.584 296.189 725.552 355.919 709.453 404.705C706.498 413.492 703.067 422.113 699.175 430.528C697.195 434.881 693.49 442.289 691.925 446.569L691.227 443.773C690.783 445.52 690.82 445.941 689.429 447.106C688.196 437.327 683.172 420.826 672.255 417.769C663.211 415.238 656.336 421.253 649.125 425.538C646.048 429.667 644.621 434.723 642.15 439.272C637.885 447.122 631.562 454.033 625.429 460.443C625.616 428.096 633.296 403.932 615.881 373.973C614.135 369.392 601.996 354.803 602.317 350.799C605.282 315.095 606.507 272.199 573.616 249.085C566.892 244.36 539.315 250.454 530.339 251.543C495.773 255.735 456.178 265.658 421.496 263.127C412.767 262.419 404.087 261.204 395.499 259.488C387.247 257.84 360.055 249.191 354.209 250.89C349.763 252.182 346.336 257.53 344.137 261.362C330.599 284.956 326.186 320.257 326.925 347.203C327.113 354.086 327.322 361.351 329.156 368.009L328.012 367.695Z" fill="black"/>
</g>
<defs>
<clipPath id="clip0_1_188">
<rect width="1024" height="1024" fill="white"/>
</clipPath>
</defs>
</svg>
