<svg width="1024" height="1024" viewBox="0 0 1024 1024" fill="none" xmlns="http://www.w3.org/2000/svg">
<g clip-path="url(#clip0_1_2)">
<path d="M466.174 237.787C465.183 239.034 465.289 238.397 465.372 239.658C468.41 240.828 498.044 231.031 505.34 233.176C503.501 233.649 503.161 233.697 501.671 234.835C482.291 238.64 470.885 239.744 451.814 247.484C455.477 244.108 458.233 241.496 462.303 238.573C447.559 243.546 437.541 246.739 423.597 253.901C423.709 251.355 425.069 250.273 426.806 248.176C428.176 249.486 427.914 249.701 429.639 248.868C440.371 243.685 454.474 237.798 466.129 235.699L466.391 236.108C465.406 237.394 464.55 237.459 462.886 238.168C464.945 238.678 463.88 238.654 466.174 237.787Z" fill="#0C0D0C"/>
<path d="M628.766 379.838L629.387 379.036C630.613 382.776 630.979 389.343 631.145 393.399L632.294 393.978C633.773 405.681 631.772 425.377 630.503 437.181C630.225 439.763 627.898 451.82 627.973 453.151L630.136 454.085C627.708 456.993 625.296 459.914 622.898 462.847C630.898 440.098 632.526 403.414 628.766 379.838Z" fill="#0C0D0C"/>
<path d="M368.286 240.727C376.547 243.561 381.216 246.862 389.888 247.247L394.937 250.83C386.309 249.638 379.911 248.366 371.436 246.295C368.276 243.513 368.763 245.725 368.286 240.727Z" fill="#2E2D2D"/>
<path d="M343.35 422.942C339.685 418.726 337.102 411.63 334.575 406.515C324.532 386.18 318.173 364.975 314.614 342.585C313.345 334.598 316.002 325.072 314.802 317.072C313.956 311.434 311.694 305.623 310.554 299.928C307.747 285.895 308.956 271.919 309.076 257.749C310.172 236.83 324.413 221.703 337.456 206.818C342.635 200.426 347.032 194.023 353.478 188.764C359.25 184.055 365.02 179.806 369.501 173.76C378.172 162.063 391.695 156.729 403.693 149.585C428.882 134.588 457.32 126.075 486.204 121.797C492.648 120.831 499.604 121.245 505.999 120.515C563.062 114.001 617.029 135.38 660.552 171.47C670.766 179.939 678.173 184.878 687.267 195.543C693.542 202.982 699.019 211.06 703.608 219.643C708.04 227.906 711.027 235.714 713.917 244.534C718.352 258.069 725.269 269.027 723.496 284.02C722.599 284.566 723.069 284.335 722.086 284.712C722.728 289.936 723.78 295.263 724.184 300.512C725.204 313.768 724.979 327.167 725.671 340.454C725.863 344.135 725.127 348.204 725.263 351.916C725.275 356.493 725.674 361.16 725.683 365.755C725.654 375.839 724.575 385.893 722.465 395.754C720.629 404.698 717.527 411.616 714.511 420.018C713.044 424.103 713.121 431.052 711.638 435.359C707.42 451.056 699.463 469.062 689.247 481.849L688.743 482.713C688.353 481.56 688.073 479.203 687.874 477.893C691.694 460.894 691.719 439.282 681.478 424.319C676.57 417.148 667.741 415.114 659.946 418.588C656.047 420.325 652.85 423.631 649.115 425.221C644.009 437.531 638.586 444.112 630.136 454.085L627.973 453.151C627.898 451.82 630.225 439.763 630.503 437.181C631.772 425.377 633.773 405.681 632.294 393.978L631.145 393.399C630.979 389.343 630.613 382.776 629.387 379.036L628.766 379.838C625.805 368.852 623.248 359.488 617.546 349.46C615.897 346.56 605.775 333.122 605.562 331.882C606.67 332.21 607.611 332.617 608.675 333.052C608.332 331.311 606.478 329.212 605.323 327.616C608.755 313.712 611.778 297.123 607.48 283.122C605.945 278.12 602.751 272.148 600.277 267.431C585.761 245.097 574.62 241.995 549.601 242.663C553.299 239.787 555.373 239.349 559.79 237.965C535.968 236.088 513.844 238.515 490.682 243.592C494.801 240.139 497.399 237.772 502.177 235.274L501.671 234.835C503.161 233.697 503.501 233.649 505.34 233.176C498.044 231.031 468.41 240.828 465.372 239.658C465.289 238.397 465.183 239.034 466.174 237.787C463.88 238.654 464.945 238.678 462.886 238.168C464.55 237.459 465.406 237.394 466.391 236.108L466.129 235.699C454.474 237.798 440.371 243.685 429.639 248.868C427.914 249.701 428.176 249.486 426.806 248.176C425.069 250.273 423.709 251.355 423.597 253.901C422.43 254.98 422.541 254.961 421.007 255.325C420.056 254.945 420.117 255.06 419.325 254.461C414.839 252.033 392.374 244.63 387.263 244.105C388.177 245.305 388.798 246.177 389.888 247.247C381.216 246.862 376.547 243.561 368.286 240.727C368.763 245.725 368.276 243.513 371.436 246.295C369.562 245.92 366.511 245.064 364.831 245.392C365.5 246.496 365.831 246.822 366.695 247.8L366.495 248.333C362.649 248.591 348.788 249.507 345.321 249.382C343.1 252.587 341.978 255.966 340.24 258.636C336.576 267.133 334.063 274.072 331.792 283.115C326.048 315.248 323.37 339.34 331.218 371.662C332.689 377.719 333.841 385.117 335.901 390.925C335.982 398.94 344.983 418.967 344.314 421.985L343.35 422.942Z" fill="#272626"/>
<path d="M502.177 235.274C503.469 235.475 502.919 235.18 503.933 235.962L502.814 237.82L503.004 238.445C514.274 237.199 526.172 235.534 537.518 235.405C546.236 235.306 555.769 236.509 564.545 236.666C566.166 237.667 566.926 237.578 568.81 237.744C567.157 237.85 564.924 237.789 563.609 238.605L563.105 239.867C565.667 239.612 563.147 238.763 564.819 238.646C568.141 238.413 573.792 237.902 576.977 237.793C580.225 237.682 582.616 238.936 585.351 239.158C598.371 240.213 614.143 243.479 625.843 249.622L624.921 249.496C631.398 252.617 652.128 261.457 656.97 265.644C657.272 267.577 663.329 276.594 664.861 279.044C653.02 273.346 641.243 263.118 629.335 259.768C641.428 267.759 653.634 273.046 663.852 284.285C664.798 285.326 667.009 287.222 667.517 288.357C667.216 289.075 667.409 290.856 668.145 291.362C672.367 294.27 675.537 298.384 679.386 301.658C683.543 305.439 688.868 308.545 692.958 312.322C700.464 318.986 706.988 326.592 713.801 333.882C718.646 339.068 718.939 339.776 722.473 346.445L721.745 347.381C714.952 334.9 702.309 322.992 691.751 313.414C690.127 311.941 684.709 306.832 683.127 306.608C683.98 307.703 683.826 307.122 684.011 308.33L681.927 308.744L681.699 309.448C686.758 318.34 693.169 323.391 698.344 331.936C694.249 328.5 689.72 322.476 685.445 319.801L684.972 320.204L685.358 322.441C684.584 323.994 682.421 324.341 680.361 325.157C679.911 327.616 697.098 350.267 697.959 354.153C697.029 354.213 697.573 354.337 696.709 353.291C692.508 348.21 687.676 341.754 681.745 338.789C680.297 339.387 683.04 346.209 681.305 349.497C680.121 349.478 678.277 347.611 677.412 346.703C660.915 329.369 644.533 312.587 625.873 297.518C618.925 291.908 612.153 285.829 607.887 277.865C606.382 275.056 603.271 265.538 600.682 264.181C600.017 266.038 600.944 265.734 600.277 267.431C585.761 245.097 574.62 241.995 549.601 242.663C553.299 239.787 555.373 239.349 559.79 237.965C535.968 236.088 513.844 238.515 490.682 243.592C494.801 240.139 497.399 237.772 502.177 235.274Z" fill="url(#paint0_linear_1_2)"/>
<path d="M453.059 145.219L452.722 145.773C447.862 153.617 441.899 158.749 437.382 165.175L438.013 165.217C439.693 163.292 445.447 156.378 447.089 155.363C444.992 159.939 437.516 166.191 434.147 171.812C422.577 191.119 415.585 211.349 416.058 234.026C416.167 239.26 417.011 243.761 417.142 248.578L416.245 246.962L416.318 245.286L415.794 244.779L415.637 245.464C414.361 243.5 413.344 241.665 412.304 239.564C411.437 237.813 410.963 233.855 409.824 232.881C409.625 233.487 409.44 234.049 409.263 234.663C403.02 208.541 403.047 183.673 417.565 160.088C418.602 158.416 419.661 156.757 420.744 155.114C421.068 160.347 414.835 175.401 413.433 184.059C415.384 181.128 417.39 177.448 420.543 175.925C421.869 177.453 420.33 178.59 421.545 179.67C423.6 178.316 429.279 170.349 431.313 167.759C438.069 159.158 444.963 152.519 453.059 145.219Z" fill="url(#paint1_linear_1_2)"/>
<path d="M466.174 237.787C471.693 238.039 504.572 220.85 512.754 218.404C513.532 218.171 519.059 215.741 519.169 215.759C520.765 216.02 525.4 217.322 527.02 217.076C529.729 216.663 535.596 215.346 538.193 215.083C545.773 214.315 576.955 209.704 581.933 210.688C579.977 211.835 554.894 217.519 550.478 218.784C534.528 223.253 518.963 228.997 503.933 235.962C502.919 235.18 503.469 235.475 502.177 235.274L501.671 234.835C503.161 233.697 503.501 233.649 505.34 233.176C498.044 231.031 468.41 240.828 465.372 239.658C465.289 238.397 465.183 239.034 466.174 237.787Z" fill="url(#paint2_linear_1_2)"/>
<path d="M640.895 248.431C648.783 249.334 662.812 252.146 669.337 256.58C668.219 257.046 664.629 256.311 663.11 256.111C666.673 258.437 677.928 265.043 679.38 267.905L679.086 268.596C675.427 268.65 672.679 266.294 670.359 266.769C671.57 271.596 675.313 272.098 676.401 275.057C675.426 275.265 673.837 274.494 672.684 274.108C672.992 275.732 680.613 281.043 681.114 283.239L679.723 283.478L679.665 284.189C679.597 284.944 679.55 285.316 679.419 286.04C677.743 286.236 678.351 286.196 676.599 285.686L676.352 286.255C681.319 295.085 697.486 308.183 698.732 310.769C693.548 308.176 687.675 302.104 682.836 298.496C678.73 295.435 670.332 291.968 667.517 288.357C667.009 287.222 664.798 285.326 663.852 284.285C653.634 273.046 641.428 267.759 629.335 259.768C641.243 263.118 653.02 273.346 664.861 279.044C663.329 276.594 657.272 267.577 656.97 265.644C661.495 268.146 665.533 270.448 670.298 272.511C666.153 268.673 653.655 261.005 648.397 257.931C650.67 258.072 653.036 258.474 655.073 257.665L655.625 256.842C654.782 254.541 649.33 252.282 647.042 251.221C644.999 250.279 642.95 249.349 640.895 248.431Z" fill="#444343"/>
<path d="M564.545 236.666C582.609 234.838 596.671 235.129 614.888 236.867C620.104 237.364 626.298 238.596 630.86 239.009C643.396 240.832 655.767 244.488 667.947 247.897C670.541 248.844 673.128 249.808 675.709 250.789C688.583 255.712 713.17 267.466 720.138 280.96C720.763 282.171 720.782 283.045 720.294 284.183C718.527 282.936 714.791 276.767 711.909 274.259C683.561 249.591 641.416 241.504 605.132 237.823C601.254 237.267 596.201 238.398 592.467 238.028C584.27 237.217 577.059 237.338 568.81 237.744C566.926 237.578 566.166 237.667 564.545 236.666Z" fill="#0C0D0C"/>
<path d="M343.772 228.673C339.968 225.971 334.96 224.006 330.576 221.115L330.28 220.423L329.513 220.25L330.236 220.822L329.668 220.197L329.911 220.045C335.887 221.552 340.608 224.334 345.881 227.397C346.43 227.789 347.37 228.57 347.945 228.7C350.711 230.654 354.366 233.405 357.293 234.894C359.793 236.665 365.412 240.102 368.286 240.727C368.763 245.725 368.276 243.513 371.436 246.295C369.562 245.92 366.511 245.064 364.831 245.392C365.5 246.496 365.831 246.822 366.695 247.8L366.495 248.333C362.649 248.591 348.788 249.507 345.321 249.382C345.008 249.201 344.325 248.762 343.928 248.686C342.42 248.397 338.749 249.454 337.233 249.878C330.281 251.821 322.935 253.93 317.136 258.404C315.623 259.57 315.069 260.557 313.732 261.603C313.901 260.471 314.047 259.901 314.765 259.025C328.843 241.853 345.271 248.511 361.679 245.999L361.886 245.595C359.435 244.67 356.792 243.058 354.837 242.424C340.571 237.796 334.477 235.487 319.999 237.478C331.137 232.62 343.648 236.997 354.595 240.263C358.714 241.492 361.386 241.414 365.531 243.096L365.751 242.993L365.217 241.961C362.356 240.763 359.919 239.258 357.008 237.941C352.494 234.98 348.157 231.819 343.772 228.673Z" fill="#0C0D0C"/>
<path d="M366.816 208.092L366.688 207.12C365.697 199.923 363.286 194.097 364.922 186.634C365.247 185.152 365.44 181.429 366.21 180.176C366.742 181.156 366.526 193.2 367.199 196.863C371.652 221.092 388.483 239.923 411.072 249.043C412.156 249.481 413.044 249.55 414.158 249.35L414.436 247.319L416.245 246.962L417.142 248.578C417.753 249.658 417.365 250.063 416.905 251.739L416.776 252.19C417.683 252.46 418.029 252.531 418.966 252.675L419.427 247.551L419.289 248.284L419.656 248.414C419.864 251.212 419.922 251.744 419.325 254.461C414.839 252.033 392.374 244.63 387.263 244.105L386.542 244.596C385.08 244.506 385.723 244.74 384.545 243.869L384.478 242.71C386.916 241.094 389.85 243.744 393.737 243.185C393.533 242.187 386.318 236.329 384.872 234.925C379.401 229.615 375.276 223.742 370.811 217.611C369.207 214.199 368.143 211.625 366.816 208.092Z" fill="#0C0D0C"/>
<path d="M332.183 273.645C333.314 269.856 336.384 259.479 340.24 258.636C336.576 267.133 334.063 274.072 331.792 283.115C331.07 280.929 331.069 280.449 331.567 278.202L331.079 277.396C328.236 277.891 321.614 286.836 319.532 289.394C318.017 291.256 315.618 296.154 314.019 297.575L313.535 297.062C313.688 294.089 316.662 289.91 318.308 287.044C320.594 284.253 323.608 281.228 326.133 278.57C328.346 276.932 330.11 275.426 332.183 273.645Z" fill="#0C0D0C"/>
<path d="M345.881 227.397L345.846 226.132L346.657 226.74C348.645 225.987 349.615 224.918 351.291 224.81C350.314 224.14 349.539 223.672 348.515 223.073L348.273 222.291C349.054 220.919 348.496 221.281 349.744 220.843C352.517 221.684 360.128 229.43 360.774 231.828C360.23 232.333 359.602 233.014 358.877 233.148L357.293 234.894C354.366 233.405 350.711 230.654 347.945 228.7C347.37 228.57 346.43 227.789 345.881 227.397Z" fill="#2E2D2D"/>
<path d="M347.945 228.7C349.857 227.656 348.904 227.812 350.83 227.873C351.517 228.557 352.854 230.262 353.756 230.076C356.508 229.506 358.143 230.057 358.877 233.148L357.293 234.894C354.366 233.405 350.711 230.654 347.945 228.7Z" fill="#444343"/>
<path d="M630.86 239.009C629.537 238.208 627.751 237.509 627.431 236.343C628.099 236.045 628.713 235.75 629.331 235.355C623.821 233.283 618.609 232.901 612.783 232.524C615.063 231.746 619.199 231.35 621.43 232.433C624.924 234.13 633.278 234.376 636.332 235.968C636.244 237.325 636.391 236.672 635.625 237.871C636.493 237.958 637.321 238.09 638.167 238.303L638.473 238.912C637.961 239.037 637.449 239.164 636.938 239.295C643.18 240.582 661.933 244.742 668.061 247.113L667.947 247.897C655.767 244.488 643.396 240.832 630.86 239.009Z" fill="#2E2D2D"/>
<path d="M365.744 219.547C362.523 216.355 354.961 204.43 357.276 200.271C358.604 201.429 364.71 212.11 366.636 214.951L367.197 216.217L365.76 217.29L365.744 219.547Z" fill="#444343"/>
<path d="M334.472 227.334L337.499 228.155C340.486 228.978 340.562 229.004 343.772 228.673C348.157 231.819 352.494 234.98 357.008 237.941L356.814 238.522C349.882 235.54 340.523 231.537 334.472 227.334Z" fill="#444343"/>
<path d="M366.816 208.092C368.143 211.625 369.207 214.199 370.811 217.611C368.832 219.212 368.5 219.147 366.942 221.172C365.776 220.497 366.243 220.961 365.744 219.547L365.76 217.29L367.197 216.217L366.636 214.951C367.273 211.445 365.562 211.258 366.816 208.092Z" fill="#444343"/>
<path d="M318.308 287.044L317.903 286.492C318.72 285.41 319.124 284.92 319.785 283.721L318.659 282.916L319.68 282.939L319.535 282.714C318.259 282.979 317.283 284.534 316.235 285.714C317.033 282.764 321.557 277.928 324.071 276.367L322.639 278.188C323.524 279.163 322.982 278.787 324.499 279.011L325.821 277.94L326.133 278.57C323.608 281.228 320.594 284.253 318.308 287.044Z" fill="#2E2D2D"/>
<path d="M507.217 172.069C525.151 167.617 537.366 159.271 557.564 157.022C546.542 160.651 532.121 166.105 521.742 171.109C522.754 173.036 522.32 172.981 523.88 173.685C525.795 173.407 533.317 173.717 535.988 173.678C529.826 175.353 525.099 177.408 519.397 179.729C516.359 180.966 504.355 186.681 502.136 186.924L501.771 186.437C501.929 184.903 502.132 184.181 501.633 182.71C497.741 181.086 491.349 187.056 486.759 185.742C487.117 184.382 487.226 184.387 487.99 183.176C486.15 181.998 477.926 186.407 475.453 186.998C473.773 187.399 472.291 187.728 470.563 188.036C473.341 185.728 476.232 183.56 479.226 181.541C486.129 176.794 502.921 165.793 510.69 167.226C509.794 168.82 508.347 170.576 507.217 172.069Z" fill="#444343"/>
<path d="M523.88 173.685C523.719 173.75 507.6 178.444 507.612 178.442L508.362 177.422L507.574 178.016C509.913 176.396 518.619 172.633 521.742 171.109C522.754 173.036 522.32 172.981 523.88 173.685Z" fill="#2E2D2D"/>
<path d="M606.887 209.22C610.171 208.949 612.476 209.108 615.761 209.278C613.516 209.854 609.365 210.637 607.751 211.991L607.989 212.924C610.053 214.019 630.112 214.945 634.49 215.434C639.37 215.942 644.213 216.761 648.988 217.886C638.849 218.302 625.033 217.22 615.367 218.611C617.945 219.179 626.434 220.611 627.908 221.877L627.873 222.652C625.924 223.128 605.572 221.813 602.122 221.627L592.93 221.556C597.383 219.49 600.829 217.977 605.55 216.55C602.673 216.499 599.79 216.517 596.916 216.363C582.292 215.58 567.997 218.739 553.516 220.219C564.819 216.702 577.075 215.05 588.669 211.817L588.287 211.718C595.189 209.98 599.843 209.728 606.887 209.22Z" fill="#444343"/>
<path d="M654.05 327.761C656.442 328.661 678.633 351.534 679.612 354.042C677.184 353.894 673.445 350.189 671.083 349.972C670.897 353.158 675.336 357.797 676.186 360.64L675.449 360.985C673.1 359.498 673.295 359.405 671.288 360.921C668.804 360.579 666.448 358.22 664.468 356.556C666.201 359.306 677.503 373.476 677.616 374.645C676.037 374.004 667.454 365.096 665.635 363.272L650.336 346.595C648.308 344.367 646.689 342.083 644.54 340.002L644.219 339.698C651.455 339.389 660.332 355.966 665.736 354.331C665.069 352.317 660.44 347.07 658.796 345.008L658.888 344.576C662.906 347.202 665.2 348.514 669.509 350.623C666.859 346.507 664.715 342.614 661.868 338.575C659.373 335.034 655.889 331.454 654.05 327.761Z" fill="#444343"/>
<path d="M398.394 172.807C398.928 181.887 396.728 193.681 396.664 203.335C396.626 208.898 397.231 211.139 397.406 216.146L397.004 216.317L396.226 214.567C394.676 210.04 393.45 205.994 391.341 201.562C390.8 200.424 390.214 193.925 390.014 192.169C389.602 193.35 390.609 204.176 389.711 207.591L389.133 207.72C385.167 198.087 386.066 184.453 388.52 174.547C389.612 177.498 389.64 184.9 392.316 188.274L392.833 188.126C395.04 185.332 397.287 176.58 398.394 172.807Z" fill="#444343"/>
<path d="M377.31 179.729C379.323 181.853 379.679 188.349 380.807 191.339C384.103 200.08 385.645 208.717 387.616 217.759C388.213 220.496 391.753 227.475 391.058 229.663C380.456 213.101 373.684 200.115 377.31 179.729Z" fill="#444343"/>
<path d="M345.763 208.813L345.097 207.478L345.43 206.635C349.221 207.326 349.211 211.605 352.639 211.607C354.245 211.608 355.435 212.74 356.427 213.776L356.768 213.51C356.318 211.434 356.069 212.165 356.694 210.635C358.451 211.066 359.315 212.213 359.215 214.086C361.724 217.488 362.495 220.43 364.443 223.924C364.402 223.898 368.669 230.101 368.999 230.57L368.676 230.973C359.39 229.178 348.922 217.669 345.763 208.813Z" fill="#444343"/>
<path d="M345.763 208.813L345.097 207.478L345.43 206.635C349.221 207.326 349.211 211.605 352.639 211.607C354.245 211.608 355.435 212.74 356.427 213.776L356.768 213.51C356.318 211.434 356.069 212.165 356.694 210.635C358.451 211.066 359.315 212.213 359.215 214.086C358.629 215.914 358.821 215.37 359.333 217.518C358.865 217.213 359.165 217.458 358.713 216.536L357.472 216.709L356.186 215.673C355.812 214.907 356.092 215.281 355.227 214.654L354.116 215.494C351.77 215.028 349.992 210.119 346.491 208.222L345.763 208.813Z" fill="#2E2D2D"/>
<path d="M359.215 214.086C361.724 217.488 362.495 220.43 364.443 223.924L363.315 224.143C360.519 222.437 356.562 219.117 356.186 215.673L357.472 216.709L358.713 216.536C359.165 217.458 358.865 217.213 359.333 217.518C358.821 215.37 358.629 215.914 359.215 214.086Z" fill="#575452"/>
<path d="M651.638 352.847C653.142 353.693 656.402 357.041 657.746 358.336C667.715 367.937 675.004 376.741 681.573 389.071C675.371 385.294 655.094 359.75 651.638 352.847Z" fill="#444343"/>
<path d="M411.027 164.35L411.441 164.616C411.688 165.616 407.526 174.814 406.695 176.935C403.345 185.479 403.671 195.274 401.621 203.169C395.086 193.49 404.373 172.769 411.027 164.35Z" fill="#444343"/>
<path d="M487.891 155.417C488.207 155.724 488.047 155.507 488.201 156.165C483.438 160.499 479.702 164.057 475.271 168.666C479.603 167.701 480.933 166.423 484.222 167.881C486.011 167.339 487.862 166.287 489.546 165.423C489.627 166.288 486.686 169.627 485.889 170.65C490.361 168.754 495.999 165.464 500.365 163.075L501.062 162.959L500.882 163.611C497.33 165.737 490.22 169.91 486.286 171.212L485.222 170.422L485.093 170.985L485.885 168.748C483.985 168.294 482.964 171.007 480.196 171.045C477.051 168.448 478.778 170.029 474.199 169.912L474.142 168.832C476.86 165.341 484.389 158.376 487.891 155.417Z" fill="#2E2D2D"/>
<path d="M464.334 161.482L464.548 161.628L464.528 162.258C462.664 164.051 459.271 167.088 456.824 167.643L456.705 167.601L456.774 167.09C458.698 165.508 462.259 162.325 464.334 161.482Z" fill="#444343"/>
<path d="M327.212 240.867C329.027 240.845 331.84 240.522 333.372 241.29L333.732 241.213L333.247 241.504L332.85 242.25C330.15 242.473 329.142 242.586 326.518 242.089L327.212 240.867Z" fill="#2E2D2D"/>
<path d="M653.134 528.842L654.567 529.792C638.351 552.341 620.264 581.648 635.134 609.436C621.992 595.23 619.887 586.996 619.93 567.953C612.672 586.132 610.464 596.15 617.074 615.195C605.347 606.498 602.383 602.741 597.817 588.528C596.275 596.04 596.333 601.999 596.608 609.689C592.511 606.922 590.473 605.015 587.155 601.285C586.898 611.483 587.65 628.907 588.666 638.996L587.433 639.735C585.428 627.853 584.028 617.609 584.058 605.456C584.075 598.64 584.503 592.715 584.249 585.812L583.068 585.664L582.865 585.007C583.63 584.115 583.445 584.508 583.743 583.392L582.309 583.015C600.038 569.699 602.894 564.035 613.24 544.012C613.67 547.46 611.24 548.371 611.987 549.981L612.634 550.005C616.221 543.376 619.68 535.69 622.936 528.816C630.582 535.218 633.712 535.601 643.151 533.585L644.091 533.365C646.788 532.706 651.666 531.315 653.134 528.842Z" fill="#272626"/>
</g>
<defs>
<linearGradient id="paint0_linear_1_2" x1="591.072" y1="216.947" x2="623.74" y2="369.671" gradientUnits="userSpaceOnUse">
<stop stop-color="#151414"/>
<stop offset="1" stop-color="#414141"/>
</linearGradient>
<linearGradient id="paint1_linear_1_2" x1="444.05" y1="204.365" x2="405.062" y2="176.972" gradientUnits="userSpaceOnUse">
<stop stop-color="#191919"/>
<stop offset="1" stop-color="#4B4A4A"/>
</linearGradient>
<linearGradient id="paint2_linear_1_2" x1="525.599" y1="230.148" x2="520.621" y2="215.616" gradientUnits="userSpaceOnUse">
<stop stop-color="#131313"/>
<stop offset="1" stop-color="#2F2E2E"/>
</linearGradient>
<clipPath id="clip0_1_2">
<rect width="1024" height="1024" fill="white"/>
</clipPath>
</defs>
</svg>
